<?xml version="1.0" encoding="utf-8"?>
<!-- Generator: Adobe Illustrator 24.1.3, SVG Export Plug-In . SVG Version: 6.00 Build 0)  -->
<svg version="1.1" id="_x32_" xmlns="http://www.w3.org/2000/svg" xmlns:xlink="http://www.w3.org/1999/xlink" x="0px" y="0px"
	 viewBox="0 0 512 512" style="enable-background:new 0 0 512 512;" xml:space="preserve">
<style type="text/css">
	.st0{fill:#4C4C4C;}
</style>
<g>
	<g>
		<path class="st0" d="M391.5,187.9c7.1,0,12.9-5.8,12.9-12.9s-5.8-12.9-12.9-12.9h-5.7V25.8h5.7c7.1,0,12.9-5.8,12.9-12.9
			S398.6,0,391.5,0H30c-7.1,0-12.9,5.8-12.9,12.9S22.9,25.8,30,25.8h5.7v116.8h160.7c5.4,0,9.8,4.4,9.8,9.8s-4.4,9.8-9.8,9.8H35.8
			H30c-7.1,0-12.9,5.8-12.9,12.9s5.8,12.9,12.9,12.9h5.7v116.7h160.7c5.4,0,9.8,4.4,9.8,9.8c0,5.4-4.4,9.8-9.8,9.8H35.8H30
			c-7.1,0-12.9,5.8-12.9,12.9s5.8,12.9,12.9,12.9h5.7v136.2H30c-7.1,0-12.9,5.8-12.9,12.9S22.9,512,30,512h361.4
			c7.1,0,12.9-5.8,12.9-12.9s-5.8-12.9-12.9-12.9h-5.7V349.9h5.7c7.1,0,12.9-5.8,12.9-12.9s-5.8-12.9-12.9-12.9h-5.7V187.9
			L391.5,187.9L391.5,187.9z"/>
	</g>
</g>
<path class="st0" d="M473.4,148.3L411,114.4V142c11.1,6.6,18.6,18.8,18.6,32.6c0,13.9-7.5,26-18.6,32.6v50l27-49.8l7.6,4.1
	L411,275.4V304c7.5,4.5,13.4,11.5,16.4,19.8L490.8,207C500.7,188.8,491.6,158.2,473.4,148.3z"/>
<path class="st0" d="M412.5,53.2c-0.6,1.1-1.1,2.2-1.6,3.3v34.2c3.7,8.4,10.1,15.8,18.8,20.5c20.8,11.3,46.7,3.6,58-17.2
	c11.3-20.8,3.6-46.7-17.2-58S423.8,32.5,412.5,53.2z"/>
</svg>
