<!--?xml version="1.0" encoding="utf-8"?-->
<!-- Generator: Adobe Illustrator 18.1.1, SVG Export Plug-In . SVG Version: 6.00 Build 0)  -->

<svg version="1.1" id="_x32_" xmlns="http://www.w3.org/2000/svg" xmlns:xlink="http://www.w3.org/1999/xlink" x="0px" y="0px" viewBox="0 0 512 512" style="width: 256px; height: 256px; opacity: 1;" xml:space="preserve">
<style type="text/css">
	.st0{fill:#4B4B4B;}
</style>
<g>
	<path class="st0" d="M265.057,106.385V58.592c0.748,0.011,1.529,0.02,2.35,0.02c4.544,0,10.196-0.368,17.144-1.444
		c5.736-0.886,11.482-2.541,17.028-4.523c8.286-2.952,16.058-6.589,21.825-9.532c5.789-2.92,9.532-5.135,9.658-5.208l24.872-14.614
		l-28.773-2.214c0,0,0,0-19.633-1.529c-4.07-0.296-9.436-1.318-15.004-2.741c-8.361-2.108-17.228-5.062-23.924-7.465
		c-3.342-1.203-6.168-2.267-8.14-3.037c-0.97-0.379-1.75-0.675-2.266-0.885c-0.254-0.106-0.464-0.19-0.591-0.232l-0.137-0.064
		h-0.042L246.943,0v48.227v58.158C168.425,189.449,116.57,207.078,74.934,233.246h362.132
		C395.428,207.078,343.575,189.449,265.057,106.385z" style="fill: rgb(76, 76, 76);"></path>
	<path class="st0" d="M447.124,255.547H64.875C57.347,307.812,24.44,435.854,2.33,512c64.115,0,108.726,0,108.726,0
		s32.042-19.801,44.599-137.7c0,0,60.204,2.498,100.344-70.242c40.14,72.741,100.343,70.242,100.343,70.242
		c12.547,117.899,44.6,137.7,44.6,137.7s44.61,0,108.726,0C487.559,435.854,454.653,307.812,447.124,255.547z" style="fill: rgb(76, 76, 76);"></path>
</g>
</svg>
