<svg width="127" height="120" viewBox="0 0 127 120" fill="none" xmlns="http://www.w3.org/2000/svg">
<g clip-path="url(#clip0)">
<path d="M106.07 5.67168C99.3035 0.398049 91.1443 -1.19399 81.791 1.09457C63.4826 -3.28354 50.0498 5.57218 42.8856 26.8657C42.6866 27.3632 42.9851 27.9602 43.4826 28.1592C43.9801 28.3582 44.5771 28.0597 44.7761 27.5622C51.6418 6.96521 63.9801 -1.19399 81.4925 3.08462C81.592 3.08462 81.6916 3.08462 81.6916 3.08462H81.791C81.8906 3.08462 81.9901 3.08462 81.9901 3.08462C90.7463 0.895561 98.408 2.2886 104.677 7.26372C123.184 21.7911 124.577 60.398 124.577 71.8408V119.005C124.577 119.602 124.975 120 125.572 120C126.169 120 126.567 119.602 126.567 119.005V71.8408C126.766 60.199 125.274 20.6966 106.07 5.67168Z" fill="#231F20"/>
<path d="M37.3134 58.2089C37.0149 62.587 36.9154 67.1641 36.9154 71.8407V119.005C36.9154 119.602 37.3134 120 37.9104 120C38.5074 120 38.9055 119.602 38.9055 119.005V71.8407C38.9055 67.2636 39.005 62.6865 39.3035 58.3084C39.3035 57.7114 38.9055 57.3134 38.4079 57.2139C37.8109 57.3134 37.3134 57.7114 37.3134 58.2089Z" fill="#231F20"/>
<path d="M48.4577 55.5224C47.3632 55.3234 46.2687 55.4229 45.1741 55.7214C43.5821 56.219 41.6915 57.612 41.4925 60.8956C41.393 62.8856 41.8906 65.3732 42.9851 68.7563C43.8806 71.4428 44.7761 73.4329 45.6716 74.8259C45.4726 80.0995 45.5721 117.313 45.5721 118.906C45.5721 119.503 45.9702 119.901 46.5672 119.901C47.1642 119.901 47.5622 119.403 47.5622 118.906C47.5622 118.508 47.4627 86.5672 47.5622 77.015C48.9552 78.209 50.6468 78.5075 52.3383 77.9105C59.005 95.3234 72.6368 105.97 81.6915 105.97C91.4428 105.97 105.075 96.2189 111.443 78.01C113.035 78.408 114.527 78.01 115.821 76.9155C116.02 86.4677 115.821 118.408 115.821 118.806C115.821 119.403 116.219 119.801 116.816 119.801C117.413 119.801 117.811 119.403 117.811 118.806C117.811 117.214 117.91 79.602 117.711 74.7264C118.706 73.2339 119.502 71.3433 120.398 68.6568C122.09 63.5821 122.388 60.2986 121.294 58.1095C120.697 56.9155 119.701 56.02 118.308 55.6219C117.313 55.3234 116.119 55.2239 115.025 55.4229C112.04 44.7762 104.776 27.2637 89.2537 27.2637C86.7662 27.2637 84.2786 27.7612 81.592 28.6568C78.806 27.4627 76.1194 26.8657 73.4328 26.8657C59.1045 26.9652 51.6418 44.7762 48.4577 55.5224ZM82.1891 30.7463C84.7761 29.8508 87.2637 29.3533 89.5522 29.3533C103.781 29.3533 110.647 46.2687 113.433 56.3185C113.632 57.214 113.831 57.7115 114.627 57.7115C114.726 57.7115 114.826 57.7115 114.925 57.7115C116.02 57.413 117.015 57.413 118.01 57.7115C118.905 58.01 119.502 58.5075 119.901 59.204C120.697 60.8956 120.398 63.7811 118.905 68.2588C118.01 70.9453 117.114 72.8359 116.219 74.1294C114.826 76.1194 113.433 76.7165 111.841 76.219C111.741 76.219 111.642 76.1194 111.542 76.1194C111.244 76.0199 111.045 76.0199 110.746 76.1194C110.448 76.219 110.249 76.418 110.249 76.7165C104.478 93.9304 91.3433 104.279 81.9901 104.279C73.4328 104.279 60.199 93.1344 54.1294 76.5175C54.0299 76.219 53.8308 76.02 53.5323 75.9204C53.4328 75.9204 53.3333 75.8209 53.1343 75.8209C52.9353 75.8209 52.8358 75.8209 52.6368 75.9204C52.4378 76.02 52.2388 76.1194 52.0398 76.219C50.3483 76.816 48.9552 76.1194 47.6617 74.1294C46.7662 72.8359 45.8706 70.8458 44.9751 68.2588C43.9801 65.1742 43.4826 62.7861 43.5821 61.0946C43.6816 59.204 44.3781 58.209 45.8706 57.7115C46.8657 57.413 47.8607 57.413 48.9552 57.7115C49.0547 57.7115 49.1542 57.811 49.2537 57.7115C50.0498 57.7115 50.1493 57.214 50.4478 56.3185C53.4328 46.1692 60.4975 29.0548 73.9304 29.0548C76.4179 29.0548 79.005 29.6518 81.592 30.7463C81.6915 30.7463 81.9901 30.8458 82.1891 30.7463Z" fill="#231F20"/>
<path d="M82.8856 26.0696V6.1691C82.8856 5.57208 82.4876 5.17407 81.8906 5.17407C81.2935 5.17407 80.8955 5.57208 80.8955 6.1691V26.0696C80.8955 26.6666 81.2935 27.0646 81.8906 27.0646C82.3881 27.0646 82.8856 26.5671 82.8856 26.0696Z" fill="#231F20"/>
<path d="M71.6418 85.0747C71.6418 85.0747 71.5423 85.0747 71.6418 85.0747C71.4428 85.0747 71.4428 85.0747 71.3433 85.0747C71.2438 85.0747 71.2438 85.0747 71.1443 85.0747C71.0448 85.0747 71.0448 85.0747 70.9453 85.1742C70.8458 85.1742 70.8458 85.1742 70.7463 85.2737H70.6468C70.6468 85.2737 70.6468 85.3732 70.5473 85.3732L70.4478 85.4727C70.4478 85.5723 70.3483 85.5722 70.3483 85.6718C70.3483 85.6718 70.3483 85.6717 70.3483 85.7713V85.8708C70.3483 85.9703 70.3483 85.9703 70.3483 86.0698C70.3483 86.1693 70.3483 86.1693 70.3483 86.2688C70.3483 86.3683 70.3483 86.3683 70.3483 86.4678C70.3483 86.5673 70.4478 86.5673 70.4478 86.6668V86.7663L70.5473 86.8658C71.2438 87.7613 72.2388 88.2588 73.2338 88.5573C72.9353 88.8558 72.9353 89.3533 73.2338 89.7513C75.2239 92.6369 76.8159 93.831 81.791 93.831C86.8657 93.831 87.9602 93.0349 90.3483 89.7513C90.6468 89.3533 90.5473 88.8558 90.3483 88.5573C91.3433 88.2588 92.3383 87.7613 93.0348 86.8658L93.1343 86.7663V86.6668C93.1343 86.5673 93.2338 86.5673 93.2338 86.4678C93.2338 86.3683 93.2338 86.3683 93.2338 86.2688C93.2338 86.1693 93.2338 86.1693 93.2338 86.0698C93.2338 85.9703 93.2338 85.9703 93.2338 85.8708V85.7713C93.2338 85.7713 93.2338 85.7713 93.2338 85.6718C93.2338 85.5722 93.1343 85.5723 93.1343 85.4727L93.0348 85.3732C93.0348 85.3732 93.0348 85.2737 92.9353 85.2737H92.8358C92.8358 85.2737 92.7363 85.2737 92.6368 85.1742C92.5373 85.1742 92.5373 85.1742 92.4378 85.0747C92.3383 85.0747 92.3383 85.0747 92.2388 85.0747C92.1393 85.0747 92.1393 85.0747 92.0398 85.0747H91.9403C91.8408 85.0747 89.5522 85.8708 87.8607 84.1792C86.8657 83.1842 85.8707 82.6867 84.7761 82.7862C83.1841 82.7862 82.0896 83.9802 81.6915 84.4777C81.6915 84.4777 81.6916 84.4777 81.592 84.5772C81.393 84.3782 80.398 83.0847 78.7065 82.8857C77.5124 82.7862 76.4179 83.2837 75.4229 84.2787C74.0299 85.8708 71.7413 85.1742 71.6418 85.0747ZM77.1144 85.6718C77.7115 85.0747 78.3085 84.7762 78.806 84.8757C79.5025 84.9752 80.0995 85.5722 80.2985 85.7713C80.6965 86.3683 81.194 86.6668 81.791 86.6668C82.3881 86.6668 82.8856 86.4678 83.4826 85.7713C83.6816 85.4727 84.2786 84.8757 85.0746 84.7762C85.5721 84.7762 86.1692 85.0747 86.6667 85.5722C87.2637 86.1693 87.8607 86.4678 88.4577 86.7663C87.6617 86.8658 86.9652 86.8658 86.5672 86.8658C85.3731 86.8658 84.1791 87.1643 83.2836 87.6618C82.4876 88.1593 81.0945 88.0598 80.398 87.6618C79.7015 87.2638 78.408 86.8658 77.2139 86.8658C76.8159 86.8658 76.1194 86.8658 75.3234 86.7663C75.9204 86.5673 76.5174 86.1693 77.1144 85.6718ZM77.2139 88.8558C78.01 88.8558 78.9055 89.1543 79.403 89.4528C80.0995 89.8509 80.995 90.0499 81.8906 90.0499C82.6866 90.0499 83.5821 89.8509 84.2786 89.4528C84.6766 89.1543 85.5721 88.8558 86.4677 88.9553C87.1642 88.9553 87.8607 88.9553 88.5572 88.8558C86.7662 91.3434 86.0697 91.7414 81.791 91.7414C77.4129 91.7414 76.4179 90.7464 75.0249 88.8558C75.8209 88.8558 76.6169 88.8558 77.2139 88.8558Z" fill="#231F20"/>
<path d="M18.9055 64.2787C19.9005 63.3832 21.9901 62.6867 23.4826 62.7862C28.2587 63.0847 29.4528 62.5872 29.9503 62.0896L42.3881 50.7464C42.5871 50.5473 42.6866 50.3483 42.6866 50.0498C42.6866 49.7513 42.5871 49.5523 42.3881 49.3533L29.1542 34.826C28.7562 34.4279 28.1592 34.4279 27.7612 34.7265L15.4229 46.0697C14.8259 46.5672 14.2289 47.7613 14.0299 52.4379C14.0299 53.9304 13.1343 55.9205 12.1393 56.816L0.298519 67.3633C-0.0994909 67.7613 -0.0994909 68.3583 0.199017 68.7563C0.597027 69.1543 1.19404 69.1543 1.59205 68.8558L13.3333 58.209C14.7264 56.9155 15.8209 54.4279 15.9204 52.4379C16.0199 48.1593 16.6169 47.4628 16.6169 47.4628L28.2587 36.9155L40.199 49.9503L28.6567 60.4976C28.6567 60.4976 27.8607 60.9951 23.5821 60.6966C21.5921 60.5971 19.005 61.4926 17.612 62.6867L1.69155 77.1145C1.29354 77.5125 1.29354 78.1095 1.59205 78.5076C1.79106 78.7066 2.08956 78.8061 2.28857 78.8061C2.48757 78.8061 2.78608 78.7066 2.98509 78.5076L18.9055 64.2787Z" fill="#231F20"/>
<path d="M33.2338 29.8508L29.4527 33.3333C29.0547 33.7314 29.0547 34.3284 29.3532 34.7264C29.7512 35.1244 30.3482 35.1244 30.7463 34.8259L34.5274 31.3433C35.7214 30.2488 37.4129 30.1493 39.005 30.8458L32.5373 36.7164C32.1393 37.1144 32.1393 37.7115 32.4378 38.1095C32.6368 38.3085 32.9353 38.408 33.1343 38.408C33.3333 38.408 33.6318 38.3085 33.8308 38.1095L40.6965 31.8408C40.796 31.9403 40.8955 32.0398 40.995 32.1393L42.8856 34.2289L36.0199 40.4975C35.6219 40.8955 35.6219 41.4926 35.9204 41.8906C36.1194 42.0896 36.4179 42.1891 36.6169 42.1891C36.8159 42.1891 37.1144 42.0896 37.3134 41.8906L44.1791 35.6219L46.0696 37.7115C46.1691 37.811 46.1691 37.811 46.2686 37.9105L39.403 44.1791C39.005 44.5771 39.005 45.1741 39.3035 45.5722C39.5025 45.7712 39.801 45.8707 40 45.8707C40.199 45.8707 40.4975 45.7712 40.6965 45.5722L47.2637 39.602C47.4627 40.199 47.5622 40.8955 47.5622 41.5921C47.4627 42.6866 47.0647 43.5821 46.3681 44.1791L42.6866 47.7612C42.2885 48.1592 42.2885 48.7562 42.5871 49.1542C42.7861 49.3533 43.0846 49.4528 43.2836 49.4528C43.4826 49.4528 43.7811 49.3533 43.9801 49.1542L47.7612 45.6717C48.8557 44.6766 49.5522 43.2836 49.5522 41.6916C49.6517 39.801 48.9552 37.811 47.5622 36.3184L42.4876 30.7463C39.9005 28.0597 35.7214 27.5622 33.2338 29.8508Z" fill="#231F20"/>
<path d="M65.6716 21.1941C60 24.2787 54.2289 33.2339 54.0298 33.5324C53.7313 34.0299 53.8308 34.627 54.3284 34.9255C54.5274 35.025 54.7264 35.1245 54.8259 35.1245C55.1244 35.1245 55.5224 34.9255 55.6219 34.627C55.7214 34.5275 61.393 25.6717 66.5672 22.8857C67.0647 22.5872 67.2637 21.9901 66.9652 21.4926C66.7662 21.1941 66.1692 20.9951 65.6716 21.1941Z" fill="#231F20"/>
<path d="M61.6915 16.5173C54.8259 21.3929 50.4477 31.5422 50.2487 31.9402C50.0497 32.4377 50.2487 33.0347 50.7463 33.2337C50.8458 33.3332 51.0448 33.3332 51.1443 33.3332C51.5423 33.3332 51.9403 33.1342 52.0398 32.7362C52.0398 32.6367 56.4179 22.6865 62.7861 18.1094C63.1841 17.8108 63.3831 17.2138 62.9851 16.7163C62.6866 16.3183 62.0895 16.2188 61.6915 16.5173Z" fill="#231F20"/>
<path d="M58.1094 12.8358C50.4478 18.9055 46.4676 28.4577 46.3681 28.8557C46.1691 29.3532 46.3681 29.9502 46.9652 30.1492C47.0647 30.1492 47.1642 30.2487 47.3632 30.2487C47.7612 30.2487 48.1592 30.0497 48.2587 29.6517C48.2587 29.5522 52.1393 20.199 59.403 14.4278C59.801 14.1293 59.9005 13.4328 59.602 13.0348C59.204 12.5373 58.5075 12.5373 58.1094 12.8358Z" fill="#231F20"/>
</g>
<defs>
<clipPath id="clip0">
<rect width="126.766" height="120" fill="white"/>
</clipPath>
</defs>
</svg>
