<svg width="145" height="120" viewBox="0 0 145 120" fill="none" xmlns="http://www.w3.org/2000/svg">
<g clip-path="url(#clip0)">
<path d="M88.1986 118.751C88.0064 119.231 88.2946 119.808 88.775 120C88.8711 120 88.9672 120.096 89.0633 120.096C89.4476 120.096 89.8319 119.808 89.9279 119.424C90.5044 117.694 91.1769 116.253 91.6573 114.908C93.0024 111.545 93.8671 109.335 93.8671 107.414C93.8671 106.165 93.0985 105.012 92.3299 103.763C91.273 102.13 90.024 100.4 90.024 97.8062C90.024 97.2298 89.6397 96.8455 89.0633 96.8455C88.4868 96.8455 88.1025 97.2298 88.1025 97.8062C88.1025 100.881 89.5436 103.09 90.6966 104.82C91.3691 105.877 91.9456 106.741 91.9456 107.414C91.9456 108.951 91.0809 111.161 89.9279 114.235C89.4476 115.484 88.8711 117.022 88.1986 118.751Z" fill="#231F20"/>
<path d="M0 78.4948C0 85.3162 3.84307 90.4083 4.03523 90.6966C4.22738 90.9848 4.51561 91.0809 4.80384 91.0809C4.996 91.0809 5.18815 90.9848 5.3803 90.8887C5.76461 90.6005 5.86069 89.9279 5.57246 89.5436C5.57246 89.5436 1.92154 84.7398 1.92154 78.5909C1.92154 76.8615 2.78623 74.9399 3.65092 72.9223C4.70777 70.6165 5.76461 68.3106 5.76461 65.9087C5.76461 63.795 4.80384 61.7774 3.93915 59.7598C3.07446 57.8383 2.20977 55.9167 2.40192 54.1874C2.59408 52.3619 3.747 50.5364 4.89992 48.5188C6.14892 46.5973 7.39792 44.5797 7.68615 42.3699C8.07046 40.2562 7.494 37.5661 7.01361 34.972C6.53323 32.2818 5.95677 29.4956 6.53323 27.6701C7.10969 25.6525 9.22338 23.8271 11.4331 21.9055C13.2586 20.3683 15.0841 18.735 16.4291 16.7174C24.7878 4.61169 34.972 -0.0960768 46.6934 2.78623C46.8855 2.78623 46.9816 2.78623 47.1737 2.78623C49.6717 2.20977 51.9776 1.92154 54.1874 1.92154C63.8911 1.92154 71.193 6.6293 76.3811 16.1409C77.3419 17.8703 79.0713 19.3114 80.8967 20.8487C83.1065 22.6741 85.3163 24.5957 85.9888 26.7094C86.7574 29.1113 86.5653 32.474 86.3731 35.6445C86.1809 38.3347 86.0849 41.0248 86.4692 43.4267C86.7574 45.4444 88.0064 47.3659 89.1593 49.1914C90.3122 51.0168 91.4652 52.9384 91.5612 54.6677C91.6573 56.3971 90.7926 58.2226 89.9279 60.048C89.0632 61.8735 88.1025 63.795 88.1025 65.8126C88.1025 66.3891 88.4868 67.0616 89.2554 68.2146C90.3122 69.944 91.9455 72.4419 91.9455 75.1321C91.9455 77.2458 90.7926 79.5516 89.7358 81.5693C88.8711 83.3947 88.1025 84.9319 88.1025 86.277C88.1025 86.8535 88.4868 87.2378 89.0632 87.2378C89.6397 87.2378 90.024 86.8535 90.024 86.277C90.024 85.4123 90.6965 83.9712 91.4652 82.4339C92.6181 80.2242 93.8671 77.7262 93.8671 75.1321C93.8671 71.9616 92.0416 69.0793 90.8887 67.2538C90.5044 66.6773 90.1201 66.0048 90.024 65.9087C90.024 64.3715 90.7926 62.7382 91.6573 61.0088C92.6181 58.9912 93.6749 56.8775 93.4828 54.6677C93.2906 52.458 92.0416 50.3443 90.7926 48.3267C89.7358 46.5973 88.6789 44.8679 88.3907 43.3307C88.0064 41.1209 88.1986 38.5268 88.3907 35.9327C88.5829 32.5701 88.775 29.1113 87.9103 26.3251C87.0456 23.6349 84.6437 21.5212 82.2418 19.5036C80.5124 18.0624 78.8791 16.7174 78.2066 15.2762C72.6341 5.09207 64.5637 0 54.2834 0C51.9776 0 49.4796 0.288231 46.9816 0.864692C34.4916 -2.11369 23.6349 2.88231 14.8919 15.7566C13.739 17.486 11.9135 19.0232 10.1841 20.5604C7.78223 22.6741 5.47638 24.6918 4.70777 27.1898C4.03523 29.3995 4.61169 32.474 5.18815 35.3563C5.66853 37.7582 6.14892 40.2562 5.86069 41.9856C5.57246 43.715 4.41954 45.6365 3.26661 47.462C2.01761 49.5757 0.672538 51.6894 0.480384 53.9952C0.288231 56.301 1.249 58.4147 2.20977 60.5284C3.07446 62.3539 3.84307 64.1793 3.84307 65.9087C3.84307 67.9263 2.88231 70.04 1.92154 72.1537C0.960769 74.2674 0 76.3811 0 78.4948Z" fill="#231F20"/>
<path d="M78.783 119.904C78.9752 120 79.1673 120.096 79.2634 120.096C79.5516 120.096 79.8399 119.904 80.032 119.616C80.2242 119.327 84.0673 113.371 84.0673 107.894C84.0673 106.165 83.1065 104.532 82.0496 102.898C81.1849 101.361 80.2242 99.8238 80.2242 98.3826C80.2242 97.8062 79.8399 97.4219 79.2634 97.4219C78.687 97.4219 78.3026 97.8062 78.3026 98.3826C78.3026 100.304 79.3595 102.13 80.4163 103.859C81.281 105.3 82.1457 106.741 82.1457 107.894C82.1457 112.89 78.4948 118.559 78.3987 118.655C78.2066 118.943 78.3026 119.616 78.783 119.904Z" fill="#231F20"/>
<path d="M78.3026 86.8535C78.3026 87.43 78.687 87.8143 79.2634 87.8143C79.8399 87.8143 80.2242 87.43 80.2242 86.8535C80.2242 85.4124 81.1849 83.8751 82.1457 82.434C83.1065 80.9928 84.0673 79.5517 84.0673 78.0144C84.0673 74.2674 82.0496 71.2891 80.8967 69.5597C80.7046 69.1754 80.4163 68.7911 80.2242 68.5028C81.0889 67.1578 81.8575 65.4284 82.6261 63.0264C83.6829 59.952 84.0673 57.5501 83.9712 55.7246C83.779 52.6501 82.0496 51.4011 80.6085 50.9208C79.6477 50.6325 78.5909 50.5365 77.6301 50.7286C74.6517 40.8327 67.8303 24.5957 54.3795 24.5957C51.9776 24.5957 49.4796 25.1722 46.8855 26.229C44.4836 25.3643 42.0817 24.98 39.8719 24.98C25.6525 24.98 19.0232 41.0248 16.237 50.8247C15.1801 50.6325 14.2194 50.7286 13.2586 51.0168C12.0096 51.4011 11.0488 52.2658 10.4724 53.3227C9.41553 55.3403 9.70377 58.4148 11.241 63.0264C12.0096 65.4284 12.8743 67.1578 13.6429 68.5028C13.4508 68.9832 12.9704 69.8479 12.5861 70.5204C11.3371 72.7302 9.70377 75.7086 9.70377 78.8791C9.70377 84.6437 13.5468 90.3123 13.739 90.5044C13.9311 90.7927 14.2194 90.8887 14.5076 90.8887C14.6998 90.8887 14.8919 90.7927 15.0841 90.6966C15.5645 90.4084 15.6605 89.8319 15.2762 89.3515C15.2762 89.2554 11.5292 83.9712 11.5292 78.7831C11.5292 76.189 13.0665 73.4028 14.2194 71.3851C14.5076 70.9048 14.6998 70.5204 14.8919 70.1361C16.237 71.4812 17.7742 71.9616 19.4075 71.5773C25.2682 88.1986 37.8543 97.2298 46.7894 97.2298C55.1481 97.2298 67.6381 87.43 73.787 71.4812C75.6125 72.0577 77.3419 71.5773 78.8791 70.0401C78.9752 70.2322 79.0713 70.3283 79.2634 70.5204C80.4163 72.1538 82.1457 74.6517 82.1457 77.8223C82.1457 78.687 81.3771 79.936 80.6085 81.185C79.5516 82.9144 78.3987 84.7398 78.3026 86.8535ZM78.3987 67.9264C77.1497 69.7518 75.9007 70.3283 74.3635 69.7518C74.1713 69.6558 73.9792 69.5597 73.787 69.5597C73.4988 69.4636 73.2106 69.4636 73.0184 69.5597C72.7302 69.6558 72.538 69.8479 72.442 70.1361C66.9656 85.3163 54.7638 95.5004 46.9816 95.5004C38.4307 95.5004 26.4211 86.0849 21.1369 70.2322C21.0408 69.944 20.8487 69.7518 20.6565 69.6558C20.5604 69.5597 20.3683 69.5597 20.2722 69.5597C20.1761 69.5597 19.984 69.5597 19.8879 69.6558C19.7918 69.6558 19.6958 69.7518 19.5997 69.7518C18.0625 70.2322 16.8135 69.6557 15.5645 67.9264C14.6998 66.6774 13.9311 64.948 13.1625 62.5461C11.8175 58.5108 11.5292 55.8207 12.2978 54.2835C12.5861 53.6109 13.1625 53.1305 13.9311 52.9384C14.7958 52.6501 15.7566 52.6501 16.7174 52.9384C16.8135 52.9384 16.9095 52.9384 17.0056 52.9384C17.7742 52.9384 17.8703 52.3619 18.1585 51.5933C20.5604 42.3699 26.9015 26.9015 39.8719 26.9015C41.9856 26.9015 44.2914 27.2859 46.5973 28.1505C46.7894 28.2466 47.0777 28.2466 47.2698 28.1505C49.6717 27.0937 52.0737 26.6133 54.2834 26.6133C66.5813 26.6133 73.0184 42.2738 75.8046 51.5933C75.9968 52.3619 76.1889 52.9384 76.9576 52.9384C77.0536 52.9384 77.1497 52.9384 77.2458 52.9384C78.2066 52.6501 79.1673 52.6501 80.032 52.9384C81.3771 53.4188 82.0496 54.3795 82.0496 56.0128C82.1457 57.5501 81.6653 59.7598 80.8006 62.5461C80.032 64.948 79.1673 66.6774 78.3987 67.9264Z" fill="#231F20"/>
<path d="M47.9424 23.8269V5.57234C47.9424 4.99588 47.558 4.61157 46.9816 4.61157C46.4051 4.61157 46.0208 4.99588 46.0208 5.57234V23.8269C46.0208 24.4034 46.4051 24.7877 46.9816 24.7877C47.462 24.7877 47.9424 24.4034 47.9424 23.8269Z" fill="#231F20"/>
<path d="M57.55 78.4947C57.454 78.3987 57.454 78.3026 57.3579 78.2065L57.2618 78.1104C57.2618 78.1104 57.2618 78.0144 57.1657 78.0144H57.0697C57.0697 78.0144 56.9736 78.0144 56.9736 77.9183C56.8775 77.9183 56.8775 77.9183 56.7814 77.8222C56.6853 77.8222 56.6854 77.8222 56.5893 77.8222C56.4932 77.8222 56.4932 77.8222 56.3971 77.8222H56.301C56.205 77.8222 54.1873 78.4947 52.6501 77.0536C51.6894 76.0928 50.6325 75.7085 49.5757 75.8046C48.1345 75.9007 47.1737 77.0536 46.8855 77.3418C46.5973 76.9575 45.5404 75.9007 44.0993 75.8046C43.1385 75.8046 42.1777 76.1889 41.217 77.1497C39.6797 78.6869 37.6621 77.9183 37.5661 77.9183H37.47C37.3739 77.9183 37.3739 77.9183 37.2778 77.9183C37.1817 77.9183 37.1817 77.9183 37.0857 77.9183C36.9896 77.9183 36.9896 77.9183 36.8935 77.9183C36.7974 77.9183 36.7974 77.9183 36.7014 78.0144H36.6053C36.6053 78.0144 36.6053 78.0144 36.5092 78.1104L36.4131 78.2065C36.4131 78.3026 36.3171 78.3026 36.3171 78.3987C36.3171 78.3987 36.3171 78.3987 36.3171 78.4947V78.5908C36.3171 78.6869 36.3171 78.6869 36.3171 78.783C36.3171 78.8791 36.3171 78.8791 36.3171 78.9751C36.3171 79.0712 36.3171 79.0712 36.3171 79.1673C36.3171 79.2634 36.4131 79.2634 36.4131 79.3594V79.4555L36.5092 79.5516C37.0857 80.3202 37.9504 80.8006 38.9111 81.0888C38.719 81.3771 38.6229 81.8574 38.9111 82.2417C41.1209 85.3162 42.1777 85.9887 46.8855 85.9887C51.4972 85.9887 53.0344 84.8358 54.7638 82.2417C54.956 81.9535 54.956 81.4731 54.7638 81.1849C55.7246 80.8967 56.4932 80.4163 57.1657 79.6477L57.2618 79.5516V79.4555C57.2618 79.3594 57.3579 79.3594 57.3579 79.2634C57.3579 79.1673 57.3579 79.1673 57.3579 79.0712C57.3579 78.9751 57.3579 78.9751 57.3579 78.8791C57.55 78.783 57.55 78.6869 57.55 78.4947C57.55 78.5908 57.55 78.5908 57.55 78.4947ZM42.6581 78.4947C43.1385 78.0144 43.715 77.7261 44.0993 77.7261C44.7718 77.7261 45.3483 78.3987 45.5404 78.5908C46.0208 79.1673 46.5012 79.3594 47.0777 79.3594C47.558 79.3594 48.0384 79.0712 48.4227 78.4947C48.4227 78.4947 48.9992 77.7261 49.7678 77.7261C50.2482 77.7261 50.7286 77.9183 51.305 78.4947C51.7854 78.9751 52.2658 79.2634 52.7462 79.5516C52.0737 79.6477 51.5933 79.6477 51.209 79.5516C50.056 79.5516 48.9031 79.9359 48.2306 80.3202C47.6541 80.7045 46.309 80.8006 45.6365 80.3202C44.8679 79.8398 43.715 79.5516 42.6581 79.5516C42.3699 79.5516 41.7934 79.5516 41.1209 79.5516C41.6974 79.3594 42.1777 78.9751 42.6581 78.4947ZM46.9816 84.0672C43.0424 84.0672 42.466 83.5868 40.9287 81.4731C41.6013 81.5692 42.1777 81.5692 42.7542 81.5692C43.5228 81.5692 44.2914 81.8574 44.6757 82.0496C45.3483 82.4339 46.1169 82.6261 46.8855 82.6261C47.7502 82.6261 48.6149 82.4339 49.1914 82.0496C49.6717 81.7614 50.4404 81.4731 51.209 81.5692C51.7854 81.5692 52.3619 81.5692 53.0344 81.4731C51.7854 83.2025 50.8247 84.0672 46.9816 84.0672Z" fill="#231F20"/>
<path d="M143.251 80.7045C142.77 80.6084 142.194 80.8966 142.098 81.377C141.329 84.3554 136.621 84.0672 136.621 84.0672C136.237 84.0672 135.853 84.2593 135.661 84.6436C134.796 84.4515 133.931 84.3554 133.066 84.3554C128.935 84.3554 125.669 86.6612 124.708 89.9278H108.567C107.99 88.871 107.222 87.9102 106.453 87.1416L96.269 76.381C95.8847 75.9967 95.3082 75.9967 94.9239 76.381C94.5396 76.7653 94.5396 77.3418 94.9239 77.7261L105.012 88.3906C105.492 88.871 105.877 89.3514 106.261 89.9278H104.339H104.147L95.7886 81.377C95.4043 80.9927 94.8279 80.9927 94.4436 81.377C94.0592 81.7613 94.0592 82.3378 94.4436 82.7221L101.457 89.9278L70.4243 90.0239C70.04 90.0239 69.7518 90.2161 69.5596 90.6004C69.3675 90.9847 69.4636 91.369 69.7518 91.6572C71.9616 94.1552 77.6301 95.5003 86.7574 95.5003L102.706 95.4042C103.955 95.4042 105.108 95.2121 106.357 94.9238L117.406 106.261C115.484 109.239 116.061 113.082 118.943 115.965C121.057 118.174 124.131 119.327 127.014 119.327C128.935 119.327 130.761 118.847 132.298 117.79C134.123 116.541 135.18 114.716 135.372 112.602C135.564 110.296 134.7 107.798 132.778 105.973C129.416 102.514 123.939 101.649 120.096 103.763L110.584 94.0591C110.488 93.9631 110.488 93.867 110.392 93.6748C110.584 93.6748 110.681 93.5788 110.777 93.5788H124.612C125.669 97.7101 130.088 100.881 134.988 100.881C137.774 100.881 140.272 99.8238 141.906 97.9983C143.251 96.4611 143.827 94.4434 143.539 92.4258C143.155 89.7357 141.329 87.3338 138.735 85.7965C140.657 85.5083 143.058 84.5475 143.827 81.8574C144.115 81.377 143.731 80.8005 143.251 80.7045ZM132.298 108.375C133.163 109.624 133.643 111.065 133.451 112.506C133.259 114.043 132.49 115.388 131.145 116.253C130.28 116.829 129.416 117.214 128.359 117.31C129.223 117.118 130.088 116.829 130.761 116.253C132.202 115.292 133.066 113.851 133.163 112.218C133.451 110.969 133.066 109.624 132.298 108.375ZM124.996 106.357C126.821 106.357 128.647 107.126 129.896 108.375C130.953 109.431 131.529 110.777 131.337 112.026C131.241 113.082 130.665 114.043 129.704 114.716C128.839 115.292 127.878 115.58 126.725 115.58C124.9 115.58 123.074 114.812 121.825 113.563C120.769 112.506 120.192 111.161 120.384 109.912C120.48 108.855 121.057 107.894 122.018 107.222C122.882 106.741 123.939 106.357 124.996 106.357ZM119.424 106.837C119.616 106.549 119.712 106.165 119.616 105.877C119.904 106.069 120.288 105.973 120.576 105.781C121.345 105.204 122.306 104.82 123.363 104.724C122.498 104.916 121.633 105.204 120.961 105.781C119.52 106.741 118.655 108.182 118.559 109.816C118.463 111.161 118.751 112.506 119.52 113.755C117.886 111.353 117.886 108.759 119.424 106.837ZM108.471 94.3474C108.567 94.3474 108.567 94.3474 108.663 94.2513C108.759 94.4435 108.855 94.5395 108.951 94.7317L108.471 94.3474ZM108.759 92.2337L108.279 92.4258C107.702 92.618 107.03 92.8101 106.357 93.0023C105.108 93.3866 103.859 93.4827 102.61 93.4827L86.6613 93.5788C80.8967 93.5788 76.3811 93.0023 73.6909 92.0415L105.973 91.9455H107.99H110.008C109.624 91.9455 109.239 92.0415 108.759 92.2337ZM126.437 92.4258C126.437 92.0415 126.149 91.8494 125.861 91.6572C126.149 91.5611 126.341 91.2729 126.437 90.8886C126.725 88.7749 128.359 87.1416 130.761 86.4691C129.704 86.8534 128.743 87.4298 127.974 88.2945C126.918 89.5435 126.437 91.0808 126.725 92.7141C126.918 93.867 127.398 94.8278 128.07 95.7885C127.206 94.8278 126.629 93.6748 126.437 92.4258ZM135.084 99.9198V99.0551V99.9198ZM141.809 92.618C142.002 94.1552 141.617 95.5003 140.657 96.6532C139.888 97.5179 138.735 98.1904 137.486 98.5748C138.639 98.1904 139.6 97.614 140.272 96.7493C141.329 95.5003 141.809 93.9631 141.521 92.3298C141.329 91.1768 140.849 90.12 140.176 89.2553C141.041 90.3121 141.617 91.4651 141.809 92.618ZM139.696 92.7141C139.888 93.7709 139.6 94.7317 138.831 95.5964C137.966 96.6532 136.525 97.2297 134.892 97.2297V98.1904V97.2297C131.817 97.2297 128.935 95.116 128.647 92.5219C128.455 91.4651 128.743 90.5043 129.512 89.6396C130.376 88.5828 131.817 88.0063 133.451 88.0063C136.429 88.0063 139.311 90.12 139.696 92.7141Z" fill="#231F20"/>
<path d="M14.6998 40.0639C15.1801 40.0639 15.6605 39.6796 15.6605 39.1032V38.8149C15.6605 35.0679 15.7566 29.9759 19.6958 27.8622C24.4035 25.3642 25.6525 23.827 27.2858 18.1584C28.6309 13.5467 35.8367 12.7781 35.9327 12.682C36.4131 12.586 36.7974 12.1056 36.7974 11.6252C36.7014 11.1448 36.3171 10.7605 35.7406 10.7605C35.3563 10.7605 27.1898 11.7213 25.4604 17.582C23.9231 22.7701 23.0584 23.827 18.8311 26.1328C13.9311 28.7269 13.8351 34.7797 13.8351 38.8149V39.1032C13.739 39.6796 14.1233 40.0639 14.6998 40.0639Z" fill="#231F20"/>
<path d="M68.0224 18.3508C69.6557 24.0193 70.9047 25.5566 75.6125 28.0546C79.5516 30.1683 79.5516 35.2603 79.6477 39.0073V39.2956C79.6477 39.7759 80.1281 40.2563 80.6085 40.2563C81.185 40.2563 81.5693 39.7759 81.5693 39.2956V39.0073C81.5693 35.0682 81.4732 29.0153 76.5733 26.3252C72.3459 24.0193 71.4812 22.9625 69.944 17.7743C68.2146 11.9136 60.048 11.049 59.6637 10.9529C59.1833 10.9529 58.703 11.2411 58.6069 11.8176C58.5108 12.298 58.8951 12.7783 59.4716 12.8744C59.4716 12.8744 66.6773 13.7391 68.0224 18.3508Z" fill="#231F20"/>
</g>
<defs>
<clipPath id="clip0">
<rect width="144.019" height="120" fill="white"/>
</clipPath>
</defs>
</svg>
