<svg width="112" height="120" viewBox="0 0 112 120" fill="none" xmlns="http://www.w3.org/2000/svg">
<g clip-path="url(#clip0)">
<path d="M101.929 42.3529C101.835 42.2588 99.3883 40.3765 96.3765 40.3765C93.3647 40.3765 89.5059 43.5765 89.0353 43.9529C88.6588 44.3294 88.5647 44.8941 88.9412 45.2706C89.1294 45.4588 89.4118 45.647 89.6941 45.647C89.8824 45.647 90.1647 45.5529 90.2588 45.4588C91.2941 44.6118 94.4 42.3529 96.3765 42.3529C98.7294 42.3529 100.8 43.9529 100.8 43.9529C101.177 44.2353 101.835 44.2353 102.118 43.7647C102.4 43.2941 102.306 42.6353 101.929 42.3529Z" fill="#231F20"/>
<path d="M100.988 50.7295C100.047 50.8236 99.3882 49.3178 99.3882 49.3178C99.2 48.9413 98.7294 48.6589 98.353 48.7531C96.9412 49.0354 93.1765 49.506 91.8588 47.8119C91.5765 47.4354 90.9177 47.3413 90.5412 47.6236C90.1647 47.906 90.0706 48.5648 90.353 48.9413C91.6706 50.7295 94.3059 50.9178 96.1882 50.8236C96.6588 51.8589 97.6 52.8942 98.6353 53.1766C98.7294 53.1766 98.8235 53.1766 98.8235 53.1766C99.2 53.1766 99.6706 52.8942 99.7647 52.4236C99.7647 52.3295 99.7647 52.3295 99.7647 52.2354C100.047 52.3295 100.424 52.4236 100.8 52.4236C100.894 52.4236 101.082 52.4236 101.271 52.4236C101.741 52.3295 102.118 51.8589 102.024 51.3884C102.024 51.0119 101.553 50.6354 100.988 50.7295Z" fill="#231F20"/>
<path d="M98.8235 12.7059C96.4706 4.89417 88.3765 -0.564653 80 5.32195e-05C79.4353 5.32195e-05 79.0588 0.470641 79.1529 1.03535C79.1529 1.60005 79.6235 1.97652 80.1882 1.88241C87.7176 1.41182 94.8706 6.21182 97.0353 13.2706C99.6706 21.9295 94.0235 30.8706 81.6941 37.9295C61.4588 49.5059 63.6235 67.6706 65.5059 75.0118C69.0824 88.8471 67.9529 111.435 50.1647 117.459C44.5177 119.341 36.5177 117.082 32.0941 112.188C31.3412 111.435 30.7765 110.588 30.2118 109.647C31.8118 110.118 33.5059 110.306 35.2 110.306C36.1412 110.306 37.1765 110.212 38.1177 110.118C43.9529 109.177 48.2824 106.541 51.0118 102.212C56.6588 93.6471 54.7765 80.2824 52.3294 70.4942C50.3529 62.9648 49.7882 48.2824 67.6706 35.4824C73.1294 31.6236 76.6118 27.2001 78.0235 22.4942C78.2118 22.0236 77.9294 21.4589 77.3647 21.3648C76.8941 21.1765 76.3294 21.4589 76.2353 22.0236C74.9177 26.353 71.7177 30.4001 66.6353 34.0706C47.8118 47.5295 48.4706 63.0589 50.5412 71.0589C52.9882 80.3765 54.7765 93.1765 49.5059 101.271C47.0588 105.129 43.1059 107.482 37.8353 108.329C34.9177 108.8 32 108.424 29.1765 107.388C28.0471 104 28.2353 100.141 30.0235 96.0942C30.2118 95.6236 30.0235 95.0589 29.5529 94.8706C29.0824 94.6824 28.5177 94.8706 28.3294 95.3412C26.6353 99.2001 26.2588 102.965 27.0118 106.353C24.9412 105.224 22.9647 103.624 21.3647 101.741C17.6941 97.3177 16.4706 91.953 18.1647 87.3412C18.3529 86.8706 18.0706 86.3059 17.6 86.1177C17.1294 85.9295 16.5647 86.2118 16.3765 86.6824C14.4941 91.953 15.8118 97.9765 19.953 102.965C22.1177 105.6 24.8471 107.577 27.8588 108.894C28.5177 110.588 29.5529 112.094 30.8706 113.6C34.6353 117.647 40.5647 120.094 46.0235 120.094C47.7177 120.094 49.4118 119.812 50.9177 119.341C69.9294 112.941 71.2471 89.1295 67.4824 74.6353C65.6941 67.7648 63.6235 50.5412 82.7294 39.7177C91.6706 34.6353 96.0941 29.2706 98.1647 24.5648C101.176 30.6824 104.282 41.1295 104.094 42.4471C104 42.9177 103.812 43.4824 103.529 44.0471C102.965 45.2706 102.212 46.8706 103.247 48.753C104.471 51.1059 106.635 54.3059 108.047 55.9059L108.235 56.0942C108.706 56.5648 109.459 57.4118 109.365 58.0706C109.271 58.5412 108.706 58.9177 108.329 59.2001C105.412 60.8942 104.376 61.4589 105.506 63.5295C105.694 64.0001 105.976 64.3765 106.259 64.753C107.2 66.0706 107.294 66.353 106.353 67.1059C105.035 68.1412 104.376 68.4236 104.376 68.4236C104 68.5177 103.718 68.8 103.718 69.1765C103.624 69.553 103.812 69.9295 104.188 70.1177C104.659 70.4 105.412 70.8706 105.694 71.2471C105.976 71.5295 106.071 71.9059 106.071 72.1883C105.976 72.3765 105.788 72.5648 105.412 72.6589C102.776 73.3177 103.059 75.0118 103.153 75.5765C103.153 75.6706 103.153 75.7648 103.153 75.8589C103.153 76.0471 103.153 76.1412 103.153 76.3295C103.153 78.2118 103.059 80.0942 101.365 80.9412C99.7647 81.7883 96.7529 81.0353 93.8353 80.2824C91.2941 79.6236 88.6588 78.9648 86.4941 79.2471C82.1647 79.7177 79.0588 81.6001 76.8941 85.1765C74.5412 89.0353 72.9412 97.4118 72.9412 97.7883C72.8471 98.2589 73.2235 98.8236 73.6941 98.9177C73.7882 98.9177 73.7882 98.9177 73.8824 98.9177C74.3529 98.9177 74.7294 98.6353 74.8235 98.1648C74.8235 98.0706 76.4235 89.7883 78.5882 86.2118C80.3765 83.2001 83.1059 81.6 86.7765 81.1295C88.6588 80.9412 91.1059 81.6001 93.4588 82.1648C96.8471 83.0118 100.047 83.8589 102.306 82.7295C105.224 81.3177 105.129 78.0236 105.129 76.4236V75.953C105.129 75.7648 105.129 75.5765 105.035 75.3883C104.941 74.9177 104.941 74.8236 105.882 74.6353C106.918 74.353 107.671 73.7883 107.953 72.8471C108.235 71.9059 107.953 70.9648 107.2 70.1177C107.012 69.9295 106.824 69.7412 106.635 69.553C106.918 69.3648 107.294 69.0824 107.671 68.8C110.024 66.9177 108.8 65.0353 107.953 63.9059C107.671 63.5295 107.482 63.2471 107.294 62.8706C107.294 62.7765 107.106 62.5883 107.106 62.4001C107.388 62.1177 108.329 61.553 109.365 60.9883C110.494 60.3295 111.153 59.4824 111.341 58.5412C111.624 57.0353 110.494 55.7177 109.835 54.9648L109.647 54.7765C108.329 53.1765 106.259 50.1648 105.035 47.9059C104.471 46.8706 104.847 46.1177 105.412 44.8942C105.788 44.2353 106.071 43.4824 106.165 42.6353C106.447 40.4706 102.494 27.8589 99.2 22.1177C99.9529 17.9765 99.3882 14.6824 98.8235 12.7059Z" fill="#231F20"/>
<path d="M25.1294 87.4354C21.8353 84.706 19.2941 79.3412 22.8706 73.4118C23.1529 72.9412 22.9647 72.3765 22.5882 72.0942C22.1176 71.8118 21.5529 72.0001 21.2706 72.3765C17.3176 78.9648 19.7647 85.3648 24 88.8471C26.0706 90.5412 28.9882 91.7648 31.9059 91.7648C34.2588 91.7648 36.7059 91.0118 38.9647 89.0354C44.6118 84.0471 42.5412 76.1413 39.9059 66.2589C38.2118 59.953 36.3294 52.8001 35.6706 44.4236C34.0706 29.1765 38.7765 18.5412 49.7882 12.7059C63.8118 5.36477 82.9176 8.75301 85.2706 10.8236C85.647 11.2001 86.2118 11.1059 86.5882 10.7295C86.9647 10.353 86.8706 9.69418 86.4941 9.41183C83.2941 6.68242 63.2471 3.57654 48.9412 11.1059C40.8471 15.3412 31.7176 24.5648 33.7882 44.6118C34.4471 53.0824 36.3294 60.3295 38.0235 66.7295C40.4706 76.5177 42.3529 83.4824 37.5529 87.7177C33.5059 91.2942 28.4235 90.1648 25.1294 87.4354Z" fill="#231F20"/>
<path d="M9.69412 32.6589H4.8C4.2353 32.6589 3.85883 33.0354 3.85883 33.6001C3.85883 34.1648 4.2353 34.5413 4.8 34.5413H9.78824C10.3529 34.5413 10.7294 34.1648 10.7294 33.6001C10.6353 33.1295 10.2588 32.6589 9.69412 32.6589Z" fill="#231F20"/>
<path d="M24.4706 34.5413C25.0353 34.5413 25.4118 34.1648 25.4118 33.6001C25.4118 33.0354 25.0353 32.6589 24.4706 32.6589H19.4824C18.9177 32.6589 18.5412 33.0354 18.5412 33.6001C18.5412 34.1648 18.9177 34.5413 19.4824 34.5413H24.4706Z" fill="#231F20"/>
<path d="M14.5882 22.8706C14.0235 22.8706 13.647 23.2471 13.647 23.8118V28.7059C13.647 29.2706 14.0235 29.6471 14.5882 29.6471C15.1529 29.6471 15.5294 29.2706 15.5294 28.7059V23.8118C15.5294 23.3412 15.1529 22.8706 14.5882 22.8706Z" fill="#231F20"/>
<path d="M13.647 43.3883C13.647 43.953 14.0235 44.3294 14.5882 44.3294C15.1529 44.3294 15.5294 43.953 15.5294 43.3883V38.4942C15.5294 37.9294 15.1529 37.553 14.5882 37.553C14.0235 37.553 13.647 37.9294 13.647 38.4942V43.3883Z" fill="#231F20"/>
<path d="M3.95294 55.1528H0.941176C0.376471 55.1528 0 55.5293 0 56.094C0 56.6587 0.376471 57.0352 0.941176 57.0352H3.95294C4.51765 57.0352 4.89412 56.6587 4.89412 56.094C4.89412 55.5293 4.42353 55.1528 3.95294 55.1528Z" fill="#231F20"/>
<path d="M12.8 55.1528H9.78822C9.22352 55.1528 8.84705 55.5293 8.84705 56.094C8.84705 56.6587 9.22352 57.0352 9.78822 57.0352H12.8C13.3647 57.0352 13.7412 56.6587 13.7412 56.094C13.7412 55.5293 13.3647 55.1528 12.8 55.1528Z" fill="#231F20"/>
<path d="M7.8118 50.1648C7.8118 49.6001 7.43533 49.2236 6.87062 49.2236C6.30591 49.2236 5.92944 49.6001 5.92944 50.1648V53.1766C5.92944 53.7413 6.30591 54.1178 6.87062 54.1178C7.43533 54.1178 7.8118 53.7413 7.8118 53.1766V50.1648Z" fill="#231F20"/>
<path d="M6.87062 58.0706C6.30591 58.0706 5.92944 58.447 5.92944 59.0117V62.0235C5.92944 62.5882 6.30591 62.9647 6.87062 62.9647C7.43533 62.9647 7.8118 62.5882 7.8118 62.0235V59.0117C7.8118 58.447 7.43533 58.0706 6.87062 58.0706Z" fill="#231F20"/>
</g>
<defs>
<clipPath id="clip0">
<rect width="111.059" height="120" fill="white"/>
</clipPath>
</defs>
</svg>
