<svg xmlns="http://www.w3.org/2000/svg" viewBox="0 0 781.2 781.2"><defs><style>.cls-1{fill:none;}.cls-2{fill:#dd7b50;}.cls-3{fill:#eceff1;}.cls-4{fill:#1b3e4f;}.cls-5{fill:#224f64;}.cls-6{fill:#b0bec5;}.cls-7{fill:#122b38;}.cls-8{fill:#ed9d66;}.cls-9{fill:#f36e67;}.cls-10{fill:#ef5350;}.cls-11{fill:#cfd8dc;}</style></defs><g id="レイヤー_2" data-name="レイヤー 2"><g id="_Layer_" data-name="&lt;Layer&gt;"><rect class="cls-1" width="781.2" height="781.2"/><path class="cls-2" d="M242.37,443.52c5.37,23.51-2.78,124.39-19.55,144.79-14.14,17.21-56.8-38.6-125.48-84.57-12-8-4.52-33.85,17.34-20.2,25.67,16,61.95,22.29,73.88,43.85,10.65,19.25-29-70.83-15.16-117C184.62,373,237,420,242.37,443.52Z"/><path class="cls-3" d="M102.79,488.78c-5.44,4.53-4.34,15.67-8.26,14.46-7.84-2.42-17.1-7.41-41.38,3.1a25.3,25.3,0,0,1-8.82,2.31c-6.88.27-8.56-5,1.29-14.81,14.35-14.31,20.11-9,31.81-17.06s20.39-15.29,22.83-14.61a10.15,10.15,0,0,1,2.25,1c6.14,3.51,11.79,13.78,12.87,19.37C116,485.9,108.24,484.26,102.79,488.78Z"/><path class="cls-2" d="M274.87,392.62c12.58,21,42.84,161.11,39,183s-40.15,68-77.33,137.51c-7.08,13.24-31.37,8.51-27.43-.84C232,658,239.45,596,259,572.66c11-13.14-61.43-120.6-56.5-142.62S262.28,371.58,274.87,392.62Z"/><path class="cls-3" d="M271.91,745.86c-20.06,3-22.5-1.79-36.7-2.25s-25.49.15-27.05-1.84a11.22,11.22,0,0,1-1.87-4.69c-1.67-8.07.25-21.61,2.47-26.25,1.49-3.12,6.15,5.57,13.22,5.18s14.76-9.69,17.2-6.37c4.86,6.6,8.34,15.7,34.11,21.69,6.26,1.47,10.37,4,11.3,6.58C285.74,741.09,282.13,744.35,271.91,745.86Z"/><path class="cls-4" d="M242.37,443.52C237,420,184.62,373,173.4,410.43c-13.84,46.13,25.81,136.21,15.16,117-10.23-18.48-38.35-25.73-62.34-37.52C117.94,494.3,114,504,112.47,513.28c0,.31-.09.62-.14.92,59.92,43.46,97.41,90,110.49,74.11C239.59,567.91,247.74,467,242.37,443.52Z"/><path class="cls-5" d="M274.87,392.62c-12.59-21-76.6-5.84-77.79,16.69-2.62,49.91,72.85,150.21,61.88,163.35-16.77,20.08-24.63,68.73-41,116.46a15.19,15.19,0,0,0,1.15,1.29c6.16,6.19,15.6,8.59,24.67,9.52C278.28,637.72,310.3,596,313.88,575.58,317.71,553.73,287.45,413.65,274.87,392.62Z"/><path class="cls-6" d="M102.51,463.13c-5.75,5.38-13.53,13-26,18.63-11.37,5.17-41.73,16.55-32.2,26.89-6.88.27-8.56-5,1.29-14.81,14.35-14.31,20.11-9,31.81-17.06s20.39-15.29,22.83-14.61A10.15,10.15,0,0,1,102.51,463.13Z"/><path class="cls-6" d="M271.91,745.86c-20.06,3-22.5-1.79-36.7-2.25s-25.49.15-27.05-1.84a11.22,11.22,0,0,1-1.87-4.69c8.26.52,28.55,1.87,35.1,2.89,7.08,1.11,30.75,2.78,43.2-2.06C285.74,741.09,282.13,744.35,271.91,745.86Z"/><path class="cls-7" d="M255.44,552.84a1.5,1.5,0,0,1-1.28-.72,627.28,627.28,0,0,1-52.64-110.69,1.49,1.49,0,0,1,2.81-1,624.5,624.5,0,0,0,52.38,110.17,1.5,1.5,0,0,1-.5,2A1.57,1.57,0,0,1,255.44,552.84Z"/><path class="cls-7" d="M299,481.7a1.49,1.49,0,0,1-1.47-1.24c-5.95-33.62-12.58-60.28-20.87-83.89a1.49,1.49,0,1,1,2.82-1c8.34,23.76,15,50.57,21,84.36a1.5,1.5,0,0,1-1.21,1.73Z"/><path class="cls-7" d="M296.25,579.79a8.23,8.23,0,0,1-5.13-2.23,32.16,32.16,0,0,1-11.51-22A1.51,1.51,0,0,1,281,554a1.48,1.48,0,0,1,1.6,1.38A29.05,29.05,0,0,0,293,575.25c.93.76,2.69,2,3.94,1.41a1.5,1.5,0,0,1,1.2,2.74A4.78,4.78,0,0,1,296.25,579.79Z"/><path class="cls-2" d="M338.81,317.27c2.67-1.71,6.58-8.25,10.34-11.11,7.78-5.9,15.8-8.58,16.92-8.14,1.67.64,4,3,3.92,5.55s-2.08,4.64-1.56,5.63c3.71,7.05,6.73,14.59,4.47,19.66s-23.09,6.85-30.51,7.95S330.92,322.35,338.81,317.27Z"/><path class="cls-2" d="M253.18,236.06c-7.51,27.36-17.28,95-8.37,106.05s52.63,8.75,97.58-5.3c8.16-2.55,7-21.76-3.69-19.44-19.83,4.28-50.65,6.59-57.17-3.4s8.05-49.73,7.89-84.22C289.32,209.56,259.72,212.25,253.18,236.06Z"/><path class="cls-3" d="M285.75,208.76c7.34,22.53,20.83,42.2,19.13,60.35-1.66,17.73-14.72,21.49-18.47,32.61-12.18,36.11-14.47,61-2.65,101,7.12,24.11-121.1,45.21-117.54-4.6.66-9.19,21.75-22.27,25.25-64.9S187.3,251.2,231.3,200.13C252.74,175.24,280.74,193.38,285.75,208.76Z"/><path class="cls-8" d="M215.39,347.23c8.09,5.41,22.55,1.56,21.8,7.35s6.65,8.21,6.72,10-1.18,4.89-3.53,5.8-5.09-.06-5.79.82c-5,6.2-10.71,12-16.26,11.92s-16.12-17.41-20.07-23.78S207.6,342,215.39,347.23Z"/><path class="cls-8" d="M229.45,213.66c-26.15,11-77,41.33-84,57.36s20.64,54.28,52.83,88.32c5.87,6.21,23.4-3.25,17-12.17-11.82-16.49-31.05-46.35-27.23-57.65s45.31-28.65,62.53-39.2S252.2,204.08,229.45,213.66Z"/><path class="cls-7" d="M310.35,133.36a19.4,19.4,0,1,1-18.07-20.63A19.38,19.38,0,0,1,310.35,133.36Z"/><path class="cls-8" d="M292.63,241.61c3.65-3.65-17.92-40.14-18.59-52.24a54.14,54.14,0,0,1,1.86-13.09c1.31-5,2.85-8.24,2.86-8.92,0,0-35.91-14.89-35.43-2.93.58,14.67-5.35,19.91-12.68,28.64-3.06,3.66,15.24,5.44,30.46,16C278.24,221,289,245.26,292.63,241.61Z"/><path class="cls-2" d="M274,189.37a54.14,54.14,0,0,1,1.86-13.09c-.19-2.39-.33-5.06-.43-8.06-2.11-1.18-3.47-1.9-3.47-1.9l-21.95-4.2S245.73,183.13,274,189.37Z"/><path class="cls-8" d="M292.34,182.75c-4.25,1.39-26.26.88-36.5-4.05-23.72-11.42-27.81-46.15-21.71-56.89s49.31-11,58.53-5.27c2,1.25,3.37,4.92,4.27,10,0,.1,0,.2.05.3a117,117,0,0,1,1.35,17.47c0,.81,0,1.63,0,2.43C298.41,163.65,296.59,181.38,292.34,182.75Z"/><path class="cls-2" d="M293.3,164.16c.62,1.28,7.32,2.91,9,1s-3.88-14.52-4.76-14.31S292.44,162.38,293.3,164.16Z"/><ellipse class="cls-8" cx="235.57" cy="246.92" rx="37.16" ry="28.53" transform="translate(-30.8 460.25) rotate(-85.04)"/><path class="cls-7" d="M221.39,232.72a1.5,1.5,0,0,1-.39-2.94c8.85-2.34,16.81-8.94,21.32-17.67a44.16,44.16,0,0,0,3.74-28A61.26,61.26,0,0,0,234,158a1.49,1.49,0,1,1,2.36-1.83A64.25,64.25,0,0,1,249,183.57a47.06,47.06,0,0,1-4,29.91c-4.88,9.46-13.56,16.64-23.2,19.19A1.73,1.73,0,0,1,221.39,232.72Z"/><path class="cls-7" d="M247.41,222.69a1.5,1.5,0,0,1-1.19-2.4c13.77-17.93,5.87-31.91-1.78-45.44-6.15-10.89-12.51-22.15-6.29-34.58a1.49,1.49,0,1,1,2.67,1.34c-5.51,11,.19,21.09,6.22,31.77,7.74,13.7,16.52,29.23,1.55,48.73A1.49,1.49,0,0,1,247.41,222.69Z"/><path class="cls-2" d="M298.35,146.72c-7.06,4.82-27,15.69-45.64,1s26.18-19.81,44.22-21.21c0,.1,0,.2.05.3a117,117,0,0,1,1.35,17.47C298.35,145.1,298.35,145.92,298.35,146.72Z"/><path class="cls-7" d="M275.11,151.28c-22.84,3.51-25-10.1-31.58-6.8-16.9,8.43,18.75,34.93-4.7,64.86-10.77,13.75-31.27,18.83-47.22,11.71-16.81-7.51-27.78-26.37-45.86-29.86-22.7-4.38-58.34,27-71.84-17.36-3.8-12.46,6-29.2,21.82-29.56,28.07-.62,48.33,28.81,77.16-11.18,16.79-23.3,50.38-57.46,112.19-39C312.05,102.13,316.06,145,275.11,151.28Z"/><path class="cls-6" d="M244.73,310.54a1.53,1.53,0,0,1-1-.4,1.49,1.49,0,0,1-.07-2.11,47.32,47.32,0,0,1,37.22-14.8,1.49,1.49,0,0,1-.19,3,44.26,44.26,0,0,0-34.85,13.85A1.47,1.47,0,0,1,244.73,310.54Z"/><path class="cls-6" d="M219.64,430.16a1.49,1.49,0,1,1,0-3c21.89,0,38.16-4.38,54.4-14.55a1.49,1.49,0,1,1,1.59,2.53c-16.75,10.49-33.49,15-56,15Z"/><path class="cls-6" d="M275.55,365.4a1.49,1.49,0,0,1-1.49-1.42c-1.4-27.57,3.47-44.47,8.95-58.62,2.82-7.27,7-12.91,11.07-18.37s7.77-10.45,9.36-16.24c3.08-11.22-13-45.17-13.16-45.52A1.49,1.49,0,1,1,293,224c.69,1.44,16.72,35.31,13.35,47.59-1.74,6.33-5.67,11.62-9.84,17.23-3.94,5.3-8,10.78-10.68,17.67-5.36,13.84-10.13,30.37-8.76,57.39a1.5,1.5,0,0,1-1.41,1.57Z"/><path class="cls-2" d="M590,551.52S540.63,631.57,524.7,638c-11.8,4.77-37.77-21.6-90.6-31.53-9.23-1.74-11.55-17.12,5.2-16.52,19.25.68,55.84,1.16,73.16,11.31,9.26,5.42,12.15-52.72,41.93-75.43C574.58,510.43,600.83,531.81,590,551.52Z"/><path class="cls-7" d="M434.49,597.09c-1.61,4.31,2.6,10.24,0,10.83-5.21,1.16-12.05,1.33-22.36,15.11-3.06,4.07-6.23,5.83-7.93,4.64-1.41-1-1.82-3.94-.37-9.27,3.49-12.72,8.46-11.57,12.45-19.9s6.59-15.23,8.18-15.63a7.7,7.7,0,0,1,3.22,0,24,24,0,0,1,11.89,6.64C441,591.18,436.1,592.77,434.49,597.09Z"/><path class="cls-8" d="M588.31,524.18c12.74,9.59,55.92,70,64.7,98.12,4.3,13.78,22,69,32.63,100.62,3.12,9.25-12.8,13.67-15.27,7.54-13-32.44-38.26-58.2-44.63-89.38-3.34-16.29-62.25-57.57-74.75-82.9S575.56,514.6,588.31,524.18Z"/><path class="cls-7" d="M715.74,735.21c-11.34,6.72-14.68,2.73-23.34,5.95s-15.32,6.36-16.75,5.54a7.62,7.62,0,0,1-2-1.79c-2.83-3.51-4.44-10-4.24-13.46.13-2.24,4.78,0,8.94-1.93s5.25-9.19,7.53-7.79c4.56,2.78,10.16,7.12,27.14,4.39,4.83-.77,8.25.06,8.87,1.93C722.44,729.73,720.73,732.26,715.74,735.21Z"/><path class="cls-4" d="M647.74,604.87c-5.52-11.29-48.2-82.4-57.32-91C578.78,503,537,523.79,548.2,553.42c8.75,23.07,54.46,69.2,59.3,73.43S650.55,610.58,647.74,604.87Z"/><path class="cls-4" d="M545,629.69c10.31-7.19,49.45-77,56.51-87.29,9-13.17-17-42.28-44.57-26.65C535.47,527.91,513,589.56,509.56,595S539.76,633.33,545,629.69Z"/><path class="cls-7" d="M598.57,617.55a1,1,0,0,1-.65-.24c-15.8-13.93-30.74-32.21-45.67-55.87a1,1,0,0,1,.3-1.34,1,1,0,0,1,1.34.3c14.83,23.51,29.66,41.64,45.32,55.45a1,1,0,0,1,.08,1.37A1,1,0,0,1,598.57,617.55Z"/><path class="cls-7" d="M632.26,580.22a1,1,0,0,1-.86-.53c-6.94-13.38-15.55-27-27.92-44.1a1,1,0,1,1,1.57-1.14c12.43,17.2,21.09,30.87,28.07,44.35a1,1,0,0,1-.41,1.31A1,1,0,0,1,632.26,580.22Z"/><path class="cls-9" d="M590.83,425.15c8.83,18.2,33.31,55.84,45,60.2s31.27-10.93,52.6-36.87c3.87-4.71-3.6-16.27-9.09-10.7-10.17,10.3-25.93,20-34.12,17.69s-19.35-43.2-27.52-55.06S583.14,409.31,590.83,425.15Z"/><path class="cls-8" d="M674.29,431.2c-.25-3.05,3-7.78,5.13-13.23,1-2.56,2.88-.76,2.92,2,0,2.22-1.13,5.54-.62,6.56,1.15,2.33,5.59-2,6.6-6.57,2.25-10.14,7.36-11.52,7.3-8.4-.1,4.28,2.24,5.23,5.35,8.36s2,12.48-.73,16-7.32,6.86-11.48,12.11-15.09,1.57-13.22-3.6S674.55,434.26,674.29,431.2Z"/><path class="cls-9" d="M620.18,403.77c17,37-21.8,79.24-8.29,128,1,3.62-7.84,9.59-28.14,9-24.68-.71-49.52,22.78-63,2.12-3.29-5,22.79-28.75,25.29-57.36s-9.46-62.69,25.36-93.89C589.3,375.53,612.39,386.78,620.18,403.77Z"/><path class="cls-8" d="M563.86,493c6.17,3.17,16.1-.74,16,3.42s5.38,5.28,5.58,6.54a4.67,4.67,0,0,1-2,4.4c-1.6.84-3.61.37-4,1-3,4.8-6.6,9.36-10.54,9.77s-14.77-9.58-18.1-13.77S557.91,489.93,563.86,493Z"/><path class="cls-9" d="M582.31,384.59c-33.17,4-71.33,46.94-75,58.87s16.48,39.9,41.2,62.64C553,510.22,569,498.75,563.76,493c-9.72-10.72-25.78-30.3-24-38.62s35-28.26,46.38-37.14S599.79,382.46,582.31,384.59Z"/><path class="cls-8" d="M612.37,395.14a36.26,36.26,0,0,1-1.4-9.87,69.15,69.15,0,0,1,1.58-14.86c.06-.28.09-.47.11-.56s-23.11-21-22.45-13.25c.92,10.62-5,26.16-10.6,29.74C574.5,389.58,615.11,404.28,612.37,395.14Z"/><path class="cls-2" d="M593.77,368.72c2.47,10.56,12.59,14.86,17.2,16.55a69.15,69.15,0,0,1,1.58-14.86C604.62,365,591.47,358.85,593.77,368.72Z"/><path class="cls-8" d="M635.07,384.3c-4.23,1.06-25.18.33-34.32-5.95s-25.06-47.17-18.41-57.24,48.77-7.51,57.37-1.31c1.89,1.37,3,5.17,3.54,10.3a114.15,114.15,0,0,1,.17,17.12C642.51,364.4,639.49,383.18,635.07,384.3Z"/><path class="cls-2" d="M637.54,365.86c.52,1.29,6.94,3.31,8.72,1.56s-2.84-14.4-3.71-14.25S636.82,364.07,637.54,365.86Z"/><path class="cls-2" d="M643.42,347.22c-7.65-1.17-13.15-5.53-17.23-6.25-5.22-.89-8.11,4-8.11,4L616.5,332l26.75-1.92A114.15,114.15,0,0,1,643.42,347.22Z"/><path class="cls-4" d="M621.13,340.69c5.39-6.46,15.78,4.69,31.52-3.25,18.17-9.16-13.53-34.62-21.45-39.71-10.3-6.62-13.25-.82-15,0-4.8,2.23-7.34-5.56-11.92-6-7.94-.83-6.23,12.56-10.36,16.69-6.14,6.14-13.82-5.48-20.42,1.62-9,9.64,7.67,47.37,14.53,54.08,12.11,11.84,6.39-16,13.24-20.67s12.55,9.83,15.38,8.24S618.17,344.22,621.13,340.69Z"/><path class="cls-10" d="M559.14,489a1.07,1.07,0,0,1-.83-.4c-2.18-2.75-21.21-27-19.59-34.46S560,434,560.81,433.43a1.06,1.06,0,1,1,1.15,1.79c-5.48,3.51-20,13.84-21.16,19.35-1.06,4.88,10.89,22.21,19.17,32.67a1.07,1.07,0,0,1-.17,1.5A1.08,1.08,0,0,1,559.14,489Z"/><path class="cls-10" d="M609,497.1a.93.93,0,0,1-.23,0,1,1,0,0,1-.81-1.19c1.25-5.34,2.51-10.29,3.73-15.08,2.72-10.67,5.06-19.88,6.22-29.39,1.73-14.16,2-26.24-2.56-39.17A1,1,0,0,1,616,411a1.07,1.07,0,0,1,1.34.64c4.64,13.27,4.42,25.6,2.66,40-1.18,9.64-3.54,18.91-6.27,29.63-1.22,4.79-2.48,9.73-3.72,15A1.05,1.05,0,0,1,609,497.1Z"/><path class="cls-10" d="M575.23,471.68a1.06,1.06,0,0,1-.85-.41,1,1,0,0,1,.22-1.4,120.75,120.75,0,0,0,30-29.61,1.12,1.12,0,0,1,1.48-.28,1,1,0,0,1,.29,1.39,122.43,122.43,0,0,1-30.54,30.11A1,1,0,0,1,575.23,471.68Z"/><path class="cls-10" d="M592.54,465.93a1.08,1.08,0,0,1-.68-.23,1,1,0,0,1-.14-1.41,123.64,123.64,0,0,0,10.55-13.87,1.1,1.1,0,0,1,1.46-.33,1,1,0,0,1,.35,1.38,125.3,125.3,0,0,1-10.72,14.1A1.08,1.08,0,0,1,592.54,465.93Z"/><path class="cls-11" d="M427.68,582.83c-3.56,7-10,18.9-14.69,23.16s-7.53,15.36-8.79,21.68c-1.41-1-1.82-3.94-.37-9.27,3.49-12.72,8.46-11.57,12.45-19.9s6.59-15.23,8.18-15.63A7.7,7.7,0,0,1,427.68,582.83Z"/><path class="cls-11" d="M715.74,735.21c-11.34,6.72-14.68,2.73-23.34,5.95s-15.32,6.36-16.75,5.54a7.62,7.62,0,0,1-2-1.79c6.26-2.8,19.13-8.32,22.83-8.32,4.09,0,16-2.33,25.41-8.54C722.44,729.73,720.73,732.26,715.74,735.21Z"/></g></g></svg>