<svg xmlns="http://www.w3.org/2000/svg" viewBox="0 0 984.53 781.2"><defs><style>.cls-1,.cls-14{fill:none;}.cls-2{fill:#122b38;}.cls-3{fill:#1b3e4f;}.cls-4{fill:#9b5334;}.cls-5{fill:#cfd8dc;}.cls-6{fill:#d4e157;}.cls-7{fill:#b86c3a;}.cls-8{fill:#c0ca33;}.cls-9{fill:#dd7b50;}.cls-10{fill:#42a5f5;}.cls-11{fill:#ed9d66;}.cls-12{fill:#fdd835;}.cls-13{fill:#fbc02d;}.cls-14{stroke:#42a5f5;stroke-linecap:round;stroke-linejoin:round;stroke-width:5px;}</style></defs><g id="レイヤー_2" data-name="レイヤー 2"><g id="_Layer_" data-name="&lt;Layer&gt;"><rect class="cls-1" width="984.53" height="781.2"/><path class="cls-2" d="M848.74,409.15S927,531.8,923.51,558c-2.94,22.07-45.2,50-110.38,100.77-11.39,8.87-31.47-4.09-13.75-22.8,20.36-21.49,45.43-48.57,64.39-72.24,10.3-12.88-51.37-62.85-62.41-119.35C793.88,406,829,380.75,848.74,409.15Z"/><path class="cls-3" d="M854.29,556.71c3.54,5.43,66.79-23.29,63.12-30.54-19.47-38.48-68.67-117-68.67-117-19.76-28.4-54.86-3.11-47.38,35.21C810.23,489.74,850.75,551.28,854.29,556.71Z"/><path class="cls-2" d="M817.32,588.68c-9.58,17.72-74.72,63-113.6,95.23-3.94,3.26-7.62,6.39-10.93,9.34-11.22,10-29.23-6.78-22.12-14,4.69-4.77,9.22-9.91,13.6-15.26,29.89-36.51,53.4-83.26,78.63-95.12,19.36-9.11-23-106-11.47-153.32s77.31-43.32,82.57-19.38S827.88,569.18,817.32,588.68Z"/><path class="cls-3" d="M827.5,561.28c2.82-19.12,10.63-146.36,6.5-165.13-5.26-23.94-71-27.94-82.57,19.39-9,36.84,3.49,129,5.94,138.57S826.07,571,827.5,561.28Z"/><path class="cls-4" d="M815,619.36c-5.36,5.78-10.61,11.35-15.57,16.59-17.72,18.71,2.36,31.67,13.75,22.8q9.54-7.44,18.41-14.23A30.1,30.1,0,0,1,815,619.36Z"/><path class="cls-4" d="M703.72,683.91c-3.94,3.26-7.62,6.39-10.93,9.34-11.22,10-29.23-6.78-22.12-14,4.69-4.77,9.22-9.91,13.6-15.26C687.32,679.9,703.38,683.69,703.72,683.91Z"/><path class="cls-2" d="M824.07,709c-2.41,3.72-8.15,3.45-15.74-4.38-14.11-14.54-8.71-20.23-16.62-32s-15-20.62-14.3-23.05a10.3,10.3,0,0,1,2.05-3.6c4.77-5.88,15.87-11.59,21.09-12.53,3.39-.61,1.65,7.17,6.1,12.68s15.61,4.56,14.34,8.46c-2.53,7.8-7.64,17,2.54,41.41C825.84,701.53,825.83,706.33,824.07,709Z"/><path class="cls-2" d="M713.66,745.48c-2.36,2.12-7.47,2-15.16-2.11-17.88-9.53-14.43-15.48-25.58-24.29s-20.6-15-20.66-17.54a11.25,11.25,0,0,1,.75-4c2.52-7.16,10.87-16.34,15.57-18.83,3.06-1.63,3.78,6.32,9.7,10.2s16.25-.44,16.24,3.66c0,8.2-1.24,19,15.93,39.15C715.42,737.58,716.39,743,713.66,745.48Z"/><path class="cls-5" d="M713.66,745.48c-2.36,2.12-7.47,2-15.16-2.11-17.88-9.53-14.43-15.48-25.58-24.29s-20.6-15-20.66-17.54a11.25,11.25,0,0,1,.75-4c6.15,4.82,19.81,15.55,24.77,19.27C683.57,721.17,695.62,738.25,713.66,745.48Z"/><path class="cls-5" d="M824.07,709c-2.41,3.72-8.15,3.45-15.74-4.38-14.11-14.54-8.71-20.23-16.62-32s-15-20.62-14.3-23.05a10.3,10.3,0,0,1,2.05-3.6c4.46,5.75,19,24.71,20.07,29.09C800.67,679.58,807.26,700.22,824.07,709Z"/><path class="cls-2" d="M828.32,547.25h-.07a1.48,1.48,0,0,1-1.42-1.55c1.24-29.32,2.33-63.33-.57-96a1.49,1.49,0,0,1,3-.26c2.92,32.84,1.83,67,.58,96.38A1.5,1.5,0,0,1,828.32,547.25Z"/><path class="cls-2" d="M752.19,512.17a1.5,1.5,0,0,1-1.48-1.35,619.47,619.47,0,0,1-1.77-101.92,1.5,1.5,0,0,1,1.59-1.39,1.48,1.48,0,0,1,1.39,1.58,616.81,616.81,0,0,0,1.76,101.43,1.5,1.5,0,0,1-1.34,1.64Z"/><path class="cls-4" d="M909.34,276.82c3.78-1.42,7.37-15.12,13.4-19.57,2.43-1.79,6.14,1.89,8.6,1.37,5-1.07,7.62-3.94,9.1-3.67,1.76.32,4,3.1,3.81,5.62s-2.16,4.61-1.66,5.61c3.57,7.11,6.61,16,4.09,19.74-4,5.84-19.2,6-29,10.39C909.93,299.81,900.56,280.14,909.34,276.82Z"/><path class="cls-4" d="M828.58,290.44c43.46-4.36,68.53-9.49,80.76-13.62,10.39-3.5,16,15.74,8.37,19.49-16.6,8.08-47.45,21.13-74.14,30.61S793.33,294,828.58,290.44Z"/><path class="cls-6" d="M873.88,218.25c23.78,55.16-46.48,134.82-11.29,201.11,7.75,14.61-37.07,18.35-74.85,13.39-3.21-.42-.51-23.61-3.19-25.1s-9.86,22.52-13.32,21.7c-19.7-4.69-36.23-12.67-33.21-22.13,11.61-36.42,23.5-36.5,29-54.9,12.3-41-10.43-105.71,38.39-152.19C830.59,176.18,863,192.93,873.88,218.25Z"/><path class="cls-7" d="M808.67,371.66c-1.15,6.19-10.45,18.51-13.7,17-3-1.4,3.94-9.42,1.88-11.08s-18,17-18.09,9.4c-.14-9.49-5.45-10.28-5.23-14.33.31-5.52,4.33-10.08,6.12-14.89,2.13-5.77-8-9.85.61-20.89,2.43-3.11,13.18-2.5,17.33,5.32C802.14,350.73,809.25,368.59,808.67,371.66Z"/><path class="cls-6" d="M755.07,220.83c-3.84,2.48-6.24,16.17,1.35,28.18,6.79,10.72,21,18,28.12,15.09,15.2-6.23,58.63-25.46,58.33-41.06s-15.8-34.39-29.52-32.33C784.21,195.1,762.33,216.14,755.07,220.83Z"/><path class="cls-7" d="M862.93,204.4a51.7,51.7,0,0,1-2-13.85,96.42,96.42,0,0,1,2.22-20.83c.08-.39.13-.66.15-.79s-32.41-29.4-31.47-18.57c1.28,14.89-7,36.68-14.87,41.69C809.83,196.6,866.78,217.22,862.93,204.4Z"/><path class="cls-4" d="M836.86,167.34c3.46,14.81,17.65,20.85,24.11,23.21a96.42,96.42,0,0,1,2.22-20.83C852.07,162.08,833.63,153.51,836.86,167.34Z"/><path class="cls-7" d="M877.34,182.91c-4.58,1.16-27.3.37-37.21-6.44s-27.17-51.16-20-62.08,52.89-8.14,62.21-1.41c2.06,1.48,3.26,5.6,3.84,11.16a122.59,122.59,0,0,1,.19,18.57C885.42,161.34,882.14,181.7,877.34,182.91Z"/><path class="cls-4" d="M880,162.92c.57,1.4,7.53,3.59,9.45,1.69s-3.07-15.61-4-15.45S879.24,161,880,162.92Z"/><path class="cls-4" d="M886.4,142.71c-8.29-1.27-14.26-6-18.69-6.78-5.65-1-8.79,4.3-8.79,4.3l-1.71-14,29-2.09A122.59,122.59,0,0,1,886.4,142.71Z"/><path class="cls-2" d="M862.23,135.62c5.85-7,17.11,5.09,34.18-3.51S890.35,96.33,860,87.65c-27.77-8-8.28,17.14-29.18,8.29-35.75-15.13-17.48,52.55-4.34,65.39s6.76-17.66,14.19-22.75,13.61,10.66,16.68,8.94S859,139.46,862.23,135.62Z"/><path class="cls-7" d="M759.72,276.87c1.5-5.59,14-14.84,17.29-17.54,2.91-2.41,5.17-13.25.62-22.06-5-9.56-14.79-17.81-20.45-15.44-10.87,4.57-41.23,28.27-45,38.76-5.93,16.45,34.56,63.11,70.28,93.8,6.48,5.57,20.93-7.18,13.29-15.05C781.6,324.78,756.64,288.39,759.72,276.87Z"/><path class="cls-8" d="M794,278.42a1.49,1.49,0,0,1-1.14-2.46c15.76-18.71,19.59-47.28,9.33-69.48a1.49,1.49,0,1,1,2.71-1.25c10.9,23.58,7,52.78-9.76,72.66A1.48,1.48,0,0,1,794,278.42Z"/><path class="cls-8" d="M822.63,343.42a1.49,1.49,0,0,1-1-2.58,131.91,131.91,0,0,0,38.54-68,1.49,1.49,0,1,1,2.92.63A135,135,0,0,1,823.65,343,1.48,1.48,0,0,1,822.63,343.42Z"/><path class="cls-8" d="M827.93,362.8a1.48,1.48,0,0,1-1-.4,1.5,1.5,0,0,1-.07-2.11,84.43,84.43,0,0,0,18.8-32.18,1.49,1.49,0,1,1,2.85.89A87.26,87.26,0,0,1,829,362.33,1.49,1.49,0,0,1,827.93,362.8Z"/><path class="cls-9" d="M210.5,405.93s9,142.56-6,164.28c-11.13,16.07-68.5,10.23-149.06,28.68-14.07,3.22-27.55-19.27-2.81-26.47,29.92-8.71,70.32-32.35,97.45-27.53,22.64,4-10.11-88.89-5.4-123.73C149.88,382.47,207.84,371.43,210.5,405.93Z"/><path class="cls-10" d="M56.85,600.69c-6.62,4.83-16.16,9.27-22.23,35-1.31,5.55-3.46,9.41-5.74,10.85-3.45,2.18-7.18-1.11-8.79-12.27-2.9-20.07,4.82-21.5,5.32-35.7s-.07-25.49,1.92-27.05a13,13,0,0,1,5.32-2.21c6.61-1.34,15.67.13,20,2.24,3.11,1.5-2.86,6.77-2.48,13.85S60.16,598.26,56.85,600.69Z"/><path class="cls-3" d="M149.26,393.7c-13.55,26.16-4.85,46.14-5.18,74.69-.13,10.71,71.45,27.2,76.21,13.41s16.5-76.4,17.34-88.78c.05-.73,26.44,24.57,24.11,19.53-9.68-20.88-9.32-47.35-12.28-54.49s-15,7.9-43.72,7.57-32.29-14.8-36-8C164.53,367.27,158.62,375.65,149.26,393.7Z"/><path class="cls-11" d="M247.8,387.57c14.1,20.05,54.57,157.53,52.36,179.6s-36.65,76.33-68.61,148.4c-6.09,13.72-29.06,5.22-25.81-4.4,18.83-55.78,14.51-106.77,39.43-142.87,10.7-15.51-70.12-115.76-66.83-138.08S233.7,367.52,247.8,387.57Z"/><path class="cls-10" d="M267.26,746.57c-20.21,1.62-24.53-4.83-38.67-6.25s-25.44-1.56-26.85-3.66A11.49,11.49,0,0,1,200.1,731c-.49-7.1,2.42-16.91,4.8-21.12,1.7-3,7.47,3.51,14.55,3.59s14.16-8.42,16.36-5c4.41,6.92,8.5,16,33.81,23.71,4.63,1.42,8,3.36,9.71,5.36C282.64,741.44,279.62,745.59,267.26,746.57Z"/><path class="cls-3" d="M281.73,459.42c-4.63-13.52-24.19-59.2-31.29-66.69-16.85-17.8-91.63,3-91.65,25.55,0,10.09,38.29,65.55,45.55,74.68,3.09,3.88,28.8-.62,34.68-5s-2.08-21,1.35-22.46c2.49-1.05,10.87,15.38,16.34,15.11S283.66,465.06,281.73,459.42Z"/><path class="cls-2" d="M217.25,95.7A1.5,1.5,0,0,1,216,93.35a37.42,37.42,0,0,0-8.1-51,1.5,1.5,0,0,1,1.81-2.38,40.42,40.42,0,0,1,8.75,55.11A1.5,1.5,0,0,1,217.25,95.7Z"/><path class="cls-2" d="M206.82,99.28a1.49,1.49,0,0,1-.59-2.87A37.81,37.81,0,0,0,226,76.84c3.61-8.31,4-15.88,1.27-25.32a1.49,1.49,0,1,1,2.86-.83c2.9,10,2.47,18.46-1.39,27.34a40.78,40.78,0,0,1-21.37,21.13A1.46,1.46,0,0,1,206.82,99.28Z"/><circle class="cls-2" cx="184.4" cy="81.15" r="38.93" transform="translate(-10.79 131.04) rotate(-38.09)"/><path class="cls-12" d="M200.24,121.16c7.39,6.82,20.46,5.21,29.2-3.59s9.83-21.45,2.45-28.27-20.46-5.21-29.2,3.59S192.86,114.34,200.24,121.16Z"/><path class="cls-9" d="M321.47,246.86c1.1-3-2-11.54-.73-16.08,2.68-9.39,7.49-16.34,8.65-16.67,1.72-.49,5,0,6.46,2.09s1.13,5,2.14,5.44c7.19,3.42,14.13,7.63,15.37,13.05s-11.78,19.52-17.06,24.85S318.21,255.66,321.47,246.86Z"/><path class="cls-9" d="M201.9,232.28c10.41,26.39,43.15,86.33,56.93,89.86s49.94-24.39,77.47-62.6c5-6.94-7.67-20.83-14.86-12.54-13.3,15.32-38.9,34.67-50.11,30.59s-23.4-44.61-44.22-72.1C214.91,189.39,192.85,209.31,201.9,232.28Z"/><path class="cls-12" d="M258.81,198.38c7.34,22.53,20.17,43.77,18.28,59.51S265.73,281.12,262,292.25C249.8,328.36,246.1,353,260.9,405.49c1.83,6.52-9.25-8.52-24.27-8.93-41-1.11-104.08,27.78-97.44-.94,5.65-24.44,25.14-27.59,28.64-70.22s-13.67-83.75,33.91-131.51C225.29,170.25,253.8,183,258.81,198.38Z"/><path class="cls-11" d="M191.41,340.83c8.51,4.73,22.6-.3,22.33,5.53s7.3,7.64,7.52,9.42-.77,5-3,6.07-5.08.36-5.71,1.29c-4.46,6.59-9.68,12.82-15.22,13.22S179,360.2,174.55,354.18,183.21,336.28,191.41,340.83Z"/><path class="cls-11" d="M197,203.32c-25.15,13.12-76.91,49-82.54,65.53s24.42,54.38,60.08,85.33c6.45,5.6,23.84-5,16.73-13.4-13.14-15.46-34.76-43.63-31.88-55.21s50.39-38,66.69-49.94S218.9,191.9,197,203.32Z"/><circle class="cls-2" cx="268.95" cy="122.22" r="19.4" transform="translate(-14.94 203.93) rotate(-40.5)"/><path class="cls-11" d="M257.27,199.42c-2.3-6.4-1.5-13.48-1.41-18.82a54.53,54.53,0,0,1,1.85-13.09c1.32-5,2.86-8.24,2.87-8.93,0,0-35.91-14.89-35.43-2.93.58,14.67-8.2,28.77-16.7,36.49-3.4,3.08,10.7-5.41,24-2.55C248.65,193.05,260,207,257.27,199.42Z"/><path class="cls-9" d="M255.86,180.6a54.53,54.53,0,0,1,1.85-13.09c-.19-2.4-.32-5.07-.42-8.06-2.11-1.19-3.47-1.91-3.47-1.91l-21.95-4.2S227.55,174.35,255.86,180.6Z"/><path class="cls-11" d="M280.16,140c-.08,16.28-1.93,32.65-6,34-4.25,1.38-26.26.87-36.49-4-23.72-11.43-27.81-46.15-21.72-56.9s49.33-11,58.53-5.27c2,1.27,3.43,5.08,4.33,10.27.14.8.27,1.64.38,2.5.3,2.25.53,4.69.68,7.25.05.78.09,1.57.13,2.38.09,1.75.14,3.55.16,5.36C280.17,137,280.18,138.51,280.16,140Z"/><path class="cls-9" d="M275.06,153.66c.62,1.28,7.32,2.91,9,1s-3.89-14.52-4.76-14.31S274.2,151.88,275.06,153.66Z"/><ellipse class="cls-11" cx="203.15" cy="241.35" rx="38.93" ry="26.92" transform="translate(-101.47 323.38) rotate(-64.98)"/><path class="cls-2" d="M204.55,494.53a1.48,1.48,0,0,1-1.2-.62A250.25,250.25,0,0,1,174.68,442a1.48,1.48,0,1,1,2.74-1.12,247.2,247.2,0,0,0,28.33,51.26,1.48,1.48,0,0,1-1.2,2.35Z"/><path class="cls-2" d="M277.23,452.08a1.47,1.47,0,0,1-1.35-.88l-13.76-31.05a1.48,1.48,0,1,1,2.71-1.19l13.75,31a1.47,1.47,0,0,1-.75,1.95A1.44,1.44,0,0,1,277.23,452.08Z"/><path class="cls-13" d="M218.9,302.48a1.44,1.44,0,0,1-.88-.3,1.48,1.48,0,0,1-.32-2.08,46.59,46.59,0,0,1,41.1-18.43,1.49,1.49,0,1,1-.28,3,43.59,43.59,0,0,0-38.42,17.23A1.47,1.47,0,0,1,218.9,302.48Z"/><path class="cls-13" d="M251.15,336.39h-.1a1.5,1.5,0,0,1-1.4-1.58c1.6-25.25,10.33-42.25,17.34-55.91,4.06-7.91,7.56-14.73,8.63-21.24,2.82-17.23-10.08-35.53-10.21-35.71a1.49,1.49,0,0,1,2.43-1.74c.56.79,13.75,19.47,10.72,37.94-1.14,7-4.74,14-8.91,22.11-6.89,13.42-15.46,30.11-17,54.74A1.49,1.49,0,0,1,251.15,336.39Z"/><path class="cls-5" d="M30.66,600.32C28,608,20.26,628.05,28.88,646.56c-3.45,2.18-7.18-1.11-8.79-12.27-2.9-20.07,4.82-21.5,5.32-35.7s-.07-25.49,1.92-27.05a13,13,0,0,1,5.32-2.21C32.79,576.71,32.88,594.05,30.66,600.32Z"/><path class="cls-5" d="M267.26,746.57c-20.21,1.62-24.53-4.83-38.67-6.25s-25.44-1.56-26.85-3.66A11.49,11.49,0,0,1,200.1,731c7.49.16,30.92.9,36.08,4.48,5.81,4,28.46,7.83,43.15,2.1C282.64,741.44,279.62,745.59,267.26,746.57Z"/><path class="cls-9" d="M280,130.16c-9.63,5.54-23.41.62-25.48.62-2.27,0-8.61,9.75-8.61,9.75l-1.58-3.64,11.77-22.65s15,2.36,23.09,6.29c.3,2.25.53,4.69.68,7.25C279.91,128.56,280,129.35,280,130.16Z"/><path class="cls-3" d="M287.49,108.15c2.82,17.73-12.61,20.07-32.31,19.33-5.73-.21-6.88,15-11.81,17s-13.05-9.25-18-6.77c-11.2,5.59,3.77,22.66-.46,26.26s-45.13-32.49-19.24-64S283.6,83.7,287.49,108.15Z"/><line class="cls-14" x1="358.86" y1="386.02" x2="698.3" y2="386.02"/><polygon class="cls-10" points="375.43 406.47 378.84 402.81 360.78 386.03 378.84 369.24 375.43 365.58 353.44 386.03 375.43 406.47"/><polygon class="cls-10" points="681.73 406.47 678.32 402.81 696.38 386.03 678.32 369.24 681.73 365.58 703.72 386.03 681.73 406.47"/><path class="cls-10" d="M457.91,337.93a21.86,21.86,0,0,0,11.2,3.14c6.41,0,10.18-3.35,10.18-8.26,0-4.5-2.63-7.15-9.18-9.6-7.92-2.81-12.84-7-12.84-13.77,0-7.55,6.29-13.16,15.74-13.16a22.22,22.22,0,0,1,10.7,2.34L482,303.76a18.45,18.45,0,0,0-9.17-2.3c-6.67,0-9.18,4-9.18,7.26,0,4.5,2.95,6.72,9.65,9.31,8.23,3.23,12.38,7.18,12.38,14.3,0,7.44-5.49,14-17,14-4.69,0-9.81-1.41-12.4-3.16Z"/><path class="cls-10" d="M513.56,345.57l-.56-4.4h-.19a13,13,0,0,1-10.66,5.19c-7,0-10.63-5-10.63-10,0-8.44,7.47-13.07,20.93-13v-.74c0-2.83-.8-8.07-7.93-8a17,17,0,0,0-9.08,2.6L494,313A21.8,21.8,0,0,1,505.5,310c10.64,0,13.24,7.28,13.24,14.26v13a54.5,54.5,0,0,0,.53,8.34Zm-1-17.79c-6.85-.14-14.7,1.09-14.7,7.82,0,4.16,2.73,6.07,5.91,6.07a8.72,8.72,0,0,0,8.49-5.83,6.61,6.61,0,0,0,.3-2Z"/><path class="cls-10" d="M529.57,345.57v-30h-4.86v-4.8h4.86v-1.68c0-4.91,1.13-9.35,4-12.2a12.13,12.13,0,0,1,8.46-3.21,13.69,13.69,0,0,1,5.41,1l-.83,4.86a9.76,9.76,0,0,0-4.07-.79c-5.35,0-6.75,4.74-6.75,10.12v1.88h8.41v4.8h-8.38v30Z"/><path class="cls-10" d="M558.37,300.72v10h9.1v4.8h-9.1v18.77c0,4.34,1.25,6.79,4.79,6.79a12.52,12.52,0,0,0,3.67-.46l.29,4.81a16.05,16.05,0,0,1-5.66.87,8.88,8.88,0,0,1-6.84-2.68c-1.74-1.92-2.46-5-2.46-9.08v-19h-5.39v-4.8h5.39v-8.39Z"/><path class="cls-10" d="M577.53,310.74l7.61,20.59c.82,2.3,1.67,5,2.24,7.1h.18c.62-2.05,1.39-4.71,2.22-7.24l6.89-20.45h6.72l-9.53,24.81c-4.51,12-7.61,18.07-11.92,21.84a17.57,17.57,0,0,1-7.77,4.07l-1.57-5.3a16.57,16.57,0,0,0,5.54-3.09,20.12,20.12,0,0,0,5.3-7.06,3.77,3.77,0,0,0,.49-1.52,4.14,4.14,0,0,0-.44-1.63l-12.84-32.12Z"/></g></g></svg>