<svg xmlns="http://www.w3.org/2000/svg" viewBox="0 0 781.2 781.2"><defs><style>.cls-1{fill:none;}.cls-2{fill:#dd7b50;}.cls-3{fill:#ed9d66;}.cls-4{fill:#1b3e4f;}.cls-5{fill:#eceff1;}.cls-6{fill:#122b38;}.cls-7{fill:#d4e157;}.cls-8{fill:#c0ca33;}.cls-9{fill:#cfd8dc;}.cls-10{fill:#85c5f9;}</style></defs><g id="レイヤー_2" data-name="レイヤー 2"><g id="_Layer_" data-name="&lt;Layer&gt;"><rect class="cls-1" width="781.2" height="781.2"/><path class="cls-2" d="M396.74,426.27s-.63,29.35-2,63.47c-1.72,43.53-4.63,94.8-8.89,102.73-3.49,6.51-17.37,11.3-39.32,15.64-25.76,5.08-62.64,9.53-106.89,15.37-14.31,1.89-25.41-20.81-.31-26.62,31.84-7.37,69.13-30,91.28-31.93a26.34,26.34,0,0,1,7.35.25c13.81,2.69-20.63-91.89-1.54-146.21,10.78-30.65,43.54-29.12,55.75-7.87A35.73,35.73,0,0,1,396.74,426.27Z"/><path class="cls-3" d="M518.56,585.71c-1.24,27.73-6.22,70-11.64,130.88-1.33,15-26.67,13.74-25.93,3.62,3.31-44.94-13.91-98.81-12.33-131.23a49.7,49.7,0,0,1,2.35-13.8c3.22-9.32-47.46-52.2-76.25-85.44-10.89-12.57-18.65-23.76-19.18-31.24-.95-13.49,6.49-33,16.61-47.4,10.32-14.72,23.43-24.18,33.28-16.69,19.49,14.86,87.41,139.39,92,161.1C518.9,562.52,519.16,572.45,518.56,585.71Z"/><path class="cls-4" d="M343.75,403.34c-14.29,21.9-19,48.51-18.92,71.68.1,21.68.84,39.71,1.42,44.72,1.19,10.37,73.57,15.31,74,1.1,1.44-46.36,10.22-83.27,8.41-95.23C405.09,402,355.75,385,343.75,403.34Z"/><path class="cls-4" d="M363.92,418.87c4,51.86,47.12,98.73,54.57,106.42,3.53,3.64,30.64-8,34.23-12.82s-1-19.76.6-20.93c1.39-1,8.37,8.37,13.75,10.17S486.94,484,483.31,479c-27.8-38.62-36.93-76.69-45.88-85.29C419.75,376.69,362.19,396.38,363.92,418.87Z"/><path class="cls-4" d="M346.55,608.11c-25.76,5.08-62.64,9.53-106.89,15.37-14.31,1.89-25.41-20.81-.31-26.62,31.84-7.37,69.13-30,91.28-31.93C330.39,573.41,331.52,593.85,346.55,608.11Z"/><path class="cls-4" d="M518.56,585.71c-1.24,27.73-6.22,70-11.64,130.88-1.33,15-26.67,13.74-25.93,3.62,3.31-44.94-13.91-98.81-12.33-131.23C480.61,591.73,503.27,595.05,518.56,585.71Z"/><path class="cls-5" d="M240.44,624.25c-7.48,3.36-17.73,5.71-29,29.64-2.1,4.44-4.55,7.53-6.8,8.9-4.31,2.61-7.92-1-7.1-13.32,1.32-20.22,9.17-20,12.62-33.81s5.22-24.95,7.5-26a11.62,11.62,0,0,1,4.47-1c6.89-.38,16.25,3.17,20.31,6.31,2.74,2.12-4.2,6-5.3,13S244.18,622.57,240.44,624.25Z"/><path class="cls-5" d="M549.22,739.05c-18.89,7.33-23,.45-36.91,3.14s-24.82,5.8-26.77,4.2a12.27,12.27,0,0,1-3.1-4.15c-3-6.11-3.68-15.67-2.58-20.55.76-3.36,7.24,1.26,14.06-.69s11.8-12,14.91-9.28c6.21,5.36,12.06,12.72,38.52,12.85,6.44,0,11,1.59,12.49,3.92C561.64,731.32,558.84,735.31,549.22,739.05Z"/><path class="cls-6" d="M416.61,522.2a1.5,1.5,0,0,1-1-.38A289.17,289.17,0,0,1,363.33,459a1.48,1.48,0,0,1,2.52-1.55,286.63,286.63,0,0,0,51.75,62.17,1.48,1.48,0,0,1-1,2.58Z"/><path class="cls-6" d="M473.59,468.53a1.48,1.48,0,0,1-1.21-.62c-8.61-12.11-16-28.83-22.5-51.11a1.48,1.48,0,1,1,2.84-.83c6.43,22,13.65,38.38,22.07,50.22a1.49,1.49,0,0,1-.34,2.07A1.51,1.51,0,0,1,473.59,468.53Z"/><path class="cls-2" d="M484.27,277.83c4-1.85,9.31-8.84,15.82-12.57,8-4.56,16.93-5.75,17.8-5.27,1.57.86,3.57,3.54,3.13,6s-2.68,4.32-2.3,5.37c2.73,7.48,4.71,16.7,1.78,20.08-4.63,5.35-18.92,2.47-28.72,6.54C483.9,301.29,475.77,281.81,484.27,277.83Z"/><path class="cls-2" d="M403.11,287.34c43.63-2,68.94-5.77,81.37-9.23,10.57-2.94,15.18,16.58,7.3,19.9-17,7.19-48.51,18.55-75.68,26.57S367.71,289,403.11,287.34Z"/><path class="cls-7" d="M465.65,221.94c23.78,55.16-31.17,130.37-8.88,202,2.6,8.36-16.07-6.92-37.86-5.35-26.88,1.93-39.81,14.89-60,22.61-11.35,4.33-31.28,7.83-33.37,1.41-.94-2.85,3.14-21.88,10.63-36.89,9.35-18.71,19.14-26.78,20.93-49,2.13-26.38-3.87-60.1,4.45-93.58,5.13-20.62,11.4-42.17,30-59.89C416.72,179.33,454.74,196.62,465.65,221.94Z"/><path class="cls-3" d="M385.61,317.69c9.51,2.07,21.36-8.27,22.78-2.6s9.39,6.66,10.11,8.3.7,5-1.16,6.69-4.76,1.81-5.09,2.88c-2.37,7.6-5.57,15.06-10.76,17S378,342.35,372,337.87,376.45,315.69,385.61,317.69Z"/><path class="cls-3" d="M389.8,210.41c-31.51,6.52-89.39,31.24-97.09,46.93S330.3,316,372,337.87c7.57,4,22.69-14.24,13.48-20.19-17.05-11-45.37-31.89-41-43s52.35-18.76,70-28.5S414,205.4,389.8,210.41Z"/><path class="cls-3" d="M454.7,208.09a51.7,51.7,0,0,1-2-13.85A96.42,96.42,0,0,1,455,173.41c.08-.39.13-.66.15-.79s-32.41-29.4-31.47-18.57c1.28,14.89-7,36.68-14.87,41.69C401.6,200.29,458.55,220.9,454.7,208.09Z"/><path class="cls-2" d="M428.63,171c3.45,14.81,17.65,20.85,24.11,23.21A96.42,96.42,0,0,1,455,173.41C443.84,165.77,425.4,157.2,428.63,171Z"/><path class="cls-3" d="M469.11,186.6c-4.59,1.16-27.3.37-37.22-6.44s-27.17-51.16-20-62.08,52.89-8.14,62.21-1.41c2.06,1.48,3.26,5.6,3.84,11.16a123.91,123.91,0,0,1,.19,18.57C477.19,165,473.91,185.39,469.11,186.6Z"/><path class="cls-2" d="M471.79,166.61c.56,1.4,7.52,3.59,9.45,1.69s-3.07-15.61-4-15.45S471,164.67,471.79,166.61Z"/><path class="cls-2" d="M459.82,138.93c-5.58-1.32-9.13,5-9.13,5l-1.71-14,29-2.09a106.77,106.77,0,0,1,.39,13.38C474.59,141.4,468.53,141,459.82,138.93Z"/><path class="cls-4" d="M454,139.31c5.85-7,18.35,0,35.42-8.65S443.55,83.76,421,99.85c-17.64,12.56-16,51.18-2.86,64s6.92-16.51,14.34-21.6,13.62,10.66,16.69,8.94S450.79,143.15,454,139.31Z"/><path class="cls-8" d="M454.75,345.82a2,2,0,0,1-.41-.05,1.5,1.5,0,0,1-1-1.85c8.47-29.66,15.51-57.21,15.92-94a1.5,1.5,0,0,1,1.5-1.48h0a1.5,1.5,0,0,1,1.48,1.51c-.42,37.14-7.51,64.89-16,94.77A1.49,1.49,0,0,1,454.75,345.82Z"/><path class="cls-8" d="M427.72,325.15a1.43,1.43,0,0,1-.77-.22,1.49,1.49,0,0,1-.51-2.05,185,185,0,0,0,25-72,1.5,1.5,0,1,1,3,.37A188.36,188.36,0,0,1,429,324.43,1.51,1.51,0,0,1,427.72,325.15Z"/><path class="cls-8" d="M437.05,279.45a1.72,1.72,0,0,1-.44-.06,1.49,1.49,0,0,1-1-1.87,169.83,169.83,0,0,0,7.62-46.44,1.5,1.5,0,0,1,1.5-1.46h0a1.5,1.5,0,0,1,1.46,1.53,172.57,172.57,0,0,1-7.76,47.25A1.5,1.5,0,0,1,437.05,279.45Z"/><path class="cls-9" d="M214.11,620.69c-3.34,4.45-17.89,24.49-9.5,42.1-4.31,2.61-7.92-1-7.1-13.32,1.32-20.22,9.17-20,12.62-33.81s5.22-24.95,7.5-26a11.62,11.62,0,0,1,4.47-1C220.5,597.51,216.71,617.21,214.11,620.69Z"/><path class="cls-9" d="M549.22,739.05c-18.89,7.33-23,.45-36.91,3.14s-24.82,5.8-26.77,4.2a12.27,12.27,0,0,1-3.1-4.15c8.38-1.78,31.61-6.61,35.76-6.14,4.37.49,27.38-.07,41.64-7.61C561.64,731.32,558.84,735.31,549.22,739.05Z"/><path class="cls-10" d="M379.8,101.4c-4.89-4.89-4.59-8.73-2-11.29s6.4-2.86,11.29,2,6.39,15.66,6.39,15.66S384.68,106.28,379.8,101.4Z"/><path class="cls-10" d="M380.07,124.88c-4.88-.14-6.59-2.25-6.52-4.8s1.89-4.57,6.76-4.44,10.88,4.91,10.88,4.91S384.94,125,380.07,124.88Z"/><path class="cls-10" d="M458.24,170.79c-.08,2.93-1.35,4-2.89,3.91s-2.74-1.13-2.66-4.06,2.95-6.53,2.95-6.53S458.31,167.87,458.24,170.79Z"/></g></g></svg>