<svg xmlns="http://www.w3.org/2000/svg" viewBox="0 0 77.84 77.86"><defs><style>.cls-1{fill:#ae2f5b;}.cls-2{fill:#fff;}</style></defs><g id="レイヤー_2" data-name="レイヤー 2"><g id="レイヤー_1-2" data-name="レイヤー 1"><path class="cls-1" d="M52.86,0H25A25,25,0,0,0,0,25V52.87a25,25,0,0,0,25,25H52.86a25,25,0,0,0,25-25V25a25,25,0,0,0-25-25"/><path class="cls-2" d="M58.69,55.38c-2.07,9.8-10.46,13.79-20.85,13a17.28,17.28,0,0,1-9.5-3.66,7.7,7.7,0,0,1-3.36,1c-5.27.34-8.49-3.25-7.17-6.26,1.13-2.55,3.91-2.67,5.67-2.11a12.59,12.59,0,0,1,3.88,2.42c1.51-2.4.86-5.7.31-10.16-1.38-11.09-.68-19.39,1.95-27.2.89,1.43,2.21,3.71,2.21,3.71s1.72-1.07,4.09-2.28a47.86,47.86,0,0,0-3.17,22.9c.56,6,1.38,12.56-2.07,15.94a13.9,13.9,0,0,0,8.15,4.37c7.42.72,11.1-3.4,12.08-12.64a36.06,36.06,0,0,0,.2-5.74c-.28-5.83-2.37-9.62-4-10.9a12.52,12.52,0,0,1-4.21.71c-2.7,0-5.06-.52-4.9-2.72.13-1.65,2.17-2.89,5.91-1.77.55.17,1.11.36,1.63.57h0l1.08.49c.92-.71,2.71-2.53,3.13-7.34,0-.55.09-2,.09-2,0-9.89-4.52-14.23-11.41-14.23-3.32,0-7.35,2-9.65,4.07a31.55,31.55,0,0,0-5.55,6.88c-.31-2-.58-4.6-.58-4.6s-2.05-.4-3.7-.84a28.47,28.47,0,0,1,6.1-4.24A31.58,31.58,0,0,1,38.73,9.38c13.08.25,17.75,9.07,17.7,15.67a17.3,17.3,0,0,1-.14,2.22A11.62,11.62,0,0,1,49.6,36.6C55.41,39.39,58.5,43.77,59,49a22.44,22.44,0,0,1-.35,6.34m-39.94,5c-.41,1.13,1,2.85,3.39,2.89a4.76,4.76,0,0,0,2.92-1,10.68,10.68,0,0,0-2.58-1.95c-2.13-1.18-3.38-.85-3.73.08"/></g></g></svg>