<svg xmlns="http://www.w3.org/2000/svg" viewBox="0 0 1105.23 480.46"><defs><style>.cls-1{fill:#fff;}</style></defs><g id="レイヤー_2" data-name="レイヤー 2"><g id="レイヤー_1-2" data-name="レイヤー 1"><g id="ekIQzo.tif"><path class="cls-1" d="M267.61,440.92c4.08.24,8.73-.83,12.55,1.09,1.51.83,2.81,1.9,4.63,2.21,1.88.57,1.85,4.15,4.2,4.32,1.43.27,2.81.83,4.24,1.14,2.58.51,4.88-1.29,7.09,1a36.72,36.72,0,0,0,3.77,2.19c6,4.29-3.58,6.18-.49,8,3.35,1.69,3.51,4.33,2.37,7.43-.87,2.61.83,4.36-2.78,5.57-.76,3.83-2,4.71-6.3,4.09-2.69-1-5.72,2.68-7.41-.55-2-2.1-2.38-7.18-5.92-6.78-5.92.2-12.14,3.05-17.7-.17-3.71-2.26-9.54-.76-12.85-3.91a27.72,27.72,0,0,1-3.11-4.23c-3.05-5.74-8.25-9.79-11.27-15.56-2.7-5-4.82,1.41-10.37-1.2-1.78-.68-3.91-.93-5.62-1.61-2.43-2.6-5.8-2.46-8.87-3.35-2.52-.73-5.1-1.85-6.63-4.43-.49-.83-1.85-1.1-2.53-1.86a62.63,62.63,0,0,0-13.88-10.59c-1.53-.67-3.49-.74-4.16.65-1.56,3.19-4.75,4.82-6.72,7.6a32.85,32.85,0,0,1-8.29,7.7A7,7,0,0,0,168.1,447c.27,1.18.77,2.36-.18,3.3s-2.25,2.35-3.61,2.74a6,6,0,0,0-3.2,2.28c-1.88,2.55-4.9,5.45-7.74,2.32-4.33-3.32-8.52,5-13-.54-2.46,3.68-6.47,4.17-10.07,5.4a2.29,2.29,0,0,1-2-.25c-1.58-1.46-3.4-1.11-5.23-1a37.9,37.9,0,0,0-6.14.27c-9.32,1-7.69,8.75-15.75,8.61-3.35.15-7,1.25-9.72-1.42-2.59-2.14-3.39-1.89-5.11,1-2.23,4.47-7.91,4.26-11.53,7.28-1.58,1.23-3.54-.06-5.13-.95-5.55-2.89-2.92-6-6.64-9.15a37.3,37.3,0,0,1-5.88-7.18c-1.22-1.76-.24-3.55.73-5.19,1.71-2.85,4-5.88,2.8-9.4-.51-2.92-.46-6.19,2.67-7.59,2.52-1.17,1.5-4,.91-6.06-.17-.49-1.34-.59-2-.93-8.4-3.35-4-5-7.05-11.33-.87-1.65.32-6.46,1.69-7.62,2.82-2.12,7,.28,7,3.91l3.77-.68c-1.93-4.68,1.65-4.88.62-8-2.24-5.4.44-6-.78-10.44-.71-3.08.26-6.08.71-9.12,1.23-4.9,9.46-3.59,13.62-4.8,1.4-4.6,2.49-9.3,4-13.78,2.62-3.66,1.09-8,2.4-12,.21-1.46,0-2.62-1.73-3.23-2.55-.82-3.45-4.24-6.37-4-3.37.17-7.39-1.45-10.08,1.3-2.35,1.87-7.3-.17-9.13-2.36a15.52,15.52,0,0,0-2.58-2.11c-2.32,1.86-4.37,3-7.1,1.2-2.16-1.3-4.21-2.42-4.16-5.4,0-.48-.78-1-1.3-1.45-2.61-2-5.32-3.9-7.85-6-4.58-4.18,4-21.47,5.49-26.88.08-.28,0-.68.17-.84,2.46-2.38,2.79-6.6,6.72-7.73.59-.16,1-.8,1.5-1.17-.93-4.49,0-8.62,3.49-11.35,1.78-.82,3.49-1.68,4.47-3.52a1.16,1.16,0,0,1,.66-.56c2.46-.41,3.37-2.31,4.35-4.25,1.13-2.66,6.71-2.34,9-2,2.69.69,5.14.16,8.2.22-1.53-5.18-2.6-11,4-12.48,4.86-1.17,8.87-1.52,13.74.62,4.13-3.52,3.76-.52,7.41-.16,3.29-1.51,6.74-.78,10.12-.95,3.56-.06,7.25-.6,10.77-.36,5.83,2,5.78-8.59,11.92-3.73,12.88,11.22,3,4.82,17.52,3.25,3.63-7-2.42-17.68,11.05-10.77,4.32,2.42,5.45-2.49,9.38-1.42a29,29,0,0,0,5.1.31c.76-2.34,1.31-4.22,2-6.19-.66-3.24,2-5,3.5-7.06,3-4.07,7.9-2.8,12.25-1.37.26-4.88-.29-9.26.81-13.81,1.66-3.64,2.49-10.52,7.95-9.37a24.35,24.35,0,0,0,8.61,1.16c4.35.39,5.88,1.48,10.46-.49,4.52-1.72,8.15-4.11,9.53-9.05,1.81-4.75,7.65-6.68,10.08-1.29A86.2,86.2,0,0,1,252.09,214c2.27,7.07,7.44,5.58,5.58,15.11-.89,8.7,8.27.67,10.67,13.17,2.36-.18,4.7-.41,6,2.56.08.16.26.38.41.39,2.85.26,4.23,2.56,6,4.28,3,2.92,7.62-1.55,9.41,4.34a2.55,2.55,0,0,0,1.78,1.23c4,.77,12.37,7,6.59,10.27-2.35,1.61-5.51,1.87-6.89,4.94-.33.73-1.57,1.06-2.42,1.53-2,1.14-2.57,3.07-1.08,4.79a26.91,26.91,0,0,0,5.86,4.69c3.13,2.13,3,2.07,1.57,5.52s-4.08,5.54-7.53,6.77c-.5.18-1.15.52-1.31.95-1.24,4.51-8.08,3.12-7.74,7.32,1.76,1.75,5,4.27,2.68,6.74-2.82,3.32-4.76,7.43-8.57,9.87-2.8,1-3.9,3.59-5.51,5.78-2.17,3-2.62,6.41-3.52,9.93,5.19,2,2.32,4.28,5.11,5.77,1.31.72,3.58.75,4.59,1.74,1.45,3.07,4.71,3.15,7.17,4.52,2.66,1.05,5.69.78,8.49,1.29,4,.86,3.21,6.34,4.59,9.39a3.76,3.76,0,0,1-1.64,4.56c-3.81,2.28-6.65,6-11.33,6.45,1.41,6.85-9.65,7.72-6.61,13.47,1.75,5.43-1.18,9.95-6.81,10.62a3.54,3.54,0,0,0-2,.87c-3.82,3.75-7.29,7.87-11.26,11.46-4.4,3.51-.91,6.33,1.46,9.67,1.67,2.87,3.25,5.79,4.88,8.68.82,1.45,1.14,2.83,0,4.35-.91,2.05.53,4,1.09,6.27C265.89,433.54,265.44,437.89,267.61,440.92Z"/><path class="cls-1" d="M440.48,59.82h27.85V31.87c2.41-.66,52.34-.9,58.09-.32.36,21-.34,42.09-.2,63.12,0,3,.75,8.17,4.53,4.55,25.94-23.51,41.73-65.65,80.63-69.5,19.9-2.68,29.26,15.87,27.43,33.13,0,42.82-.34,85.63-.46,128.45-.73,28.45,21.24,3.56,31.94-3.37v45.65c-23.91.49-48,1-71.95.11-4.78-.57-10.05-2.27-11.76-7.29a28,28,0,0,1-2-10.3c0-29.33.06-58.66-.06-88-.3-7.82-1.22-15.79-9.6-6.76-15.63,17.36-31.12,34.86-46.75,52.23a5.12,5.12,0,0,0-1.47,3.66c-.36,18.22-.38,36.35-1.16,54.58H469c-.07-8.78,0-17.32-.05-26.6-7.29,7.58-13.47,15.65-20.42,23.48-1.92,2.68-6.5,5.66-7.46.6-.87-17.44-.41-35-.68-52.48a4.54,4.54,0,0,1,1.69-3.79c32.63-32,26.36-12.28,26.34-56.56-9.57-.42-18.88.51-28.61.34C440,97.78,440.26,79.07,440.48,59.82Z"/><path class="cls-1" d="M991.4,409.78c1.8-9.93,3.53-19.53,5.34-29.49l-84.31-1.23v-35.5c30.4-.25,60.54,0,91-.09,2.34-10.37,4.65-20.62,7-31.15l-80-.48c-.68-2.24-.91-30-.3-35.1,29.31-.45,58.58,0,87.94-.16,2.74-9.84,5.44-19.51,8.17-29.34h32c.58,10.73,0,21.18.21,32h31.51c.66,2.38.83,28.72.24,32.87-10.37.29-21,0-31.4.11-.68,2.18-.76,25.62-.1,31.06,15.53.49,30.81,0,46.43.17V379h-46.6c-.13,10.43.45,20.54.27,31.08l30.47.3c.79,2.11,1,27.1.24,31.09H1057.4c1.71,20.19-9.18,31.51-29.08,32.64-23.88,2.32-48.16,3.3-71.93-.58-39.66-8.49-36.4-58,3.36-62.64C970.33,410.1,980.76,409.93,991.4,409.78ZM973,453.26c9.07-.25,16.86-1.06,18.47-11.14.41-14.44-17.51-15.69-27.88-12.55-4.42,1.31-8.07,6.84-7.78,11.87C956.62,451.39,964.71,453.34,973,453.26Z"/><path class="cls-1" d="M683,231.83c-.53-19.09-.2-38.08-.35-57.17,16.15-46.51,37.27-91.76,55.06-137.85,4.37-11.76,18.23-7.88,28-8.69,12.1,0,23.87.06,36,.06l-31.6,85.47c14.91.6,29.76-.24,44.65.37,14.89,1.17,12.55,17.89,13,28.74.39,8.07-.78,16.31.8,24.28,1,4.37,3.63,6.47,8.12,6.62,16.51-.25,33-.75,49.54-.34-9,18.19-19.57,35.67-29.11,53.63a7.74,7.74,0,0,1-7.4,4.32c-25.68-.61-51.52.36-77.12-1.09-6-1.06-8.12-6.81-8.13-12.29.06-11.83-.17-23.67.49-35.48-.18-5.48-3.63-10.72-7.71-3.84-8.55,15.37-13.68,32.37-20.61,48.49-1.67,4.15-.84,3.54-5.14,3.64C715.33,231,699.23,231.66,683,231.83Z"/><path class="cls-1" d="M828.75,275.79l-31.59,85.46c14.91.61,29.76-.23,44.65.37,14.89,1.18,12.55,17.9,13,28.75.39,8.07-.78,16.3.8,24.27,1,4.37,3.63,6.48,8.12,6.62,16.51-.24,33-.75,49.54-.34-9,18.19-19.57,35.67-29.12,53.64a7.75,7.75,0,0,1-7.4,4.32c-25.67-.61-51.51.35-77.11-1.09-6-1.07-8.12-6.81-8.13-12.3.06-11.83-.17-23.66.49-35.48-.18-5.48-3.63-10.72-7.71-3.83-8.55,15.36-13.68,32.36-20.61,48.49-1.67,4.14-.84,3.53-5.14,3.64-16.19.33-32.29.95-48.5,1.13-.53-19.1-.2-38.09-.35-57.18,16.15-46.51,37.27-91.76,55.06-137.85,4.37-11.76,18.23-7.87,28-8.69C804.84,275.7,816.61,275.78,828.75,275.79Z"/><path class="cls-1" d="M143.22,232.76c-.08-21.74-.29-43.44-.36-65.17,0-9.33-4-16.13-12.58-20-11.1-1.8-22.86-.5-34.15-.59-9.55,21.95-19,44-28.54,66-3.79,9.41-11.09,17.13-21.22,19.35-15.43.78-30.89.43-46.37.14,13.29-28.54,26.42-56.73,39.74-85.35H28.66L1.78,90.37c.35-1,.64-.86,1.41-1C24,89,44.9,89.31,65.61,88.54c25.6-58.68,12.81-58.36,80.23-56.62L122.51,88.6c13.94,0,27.58.17,41.48-.06,7.67-.13,12.83,3.21,16.07,10,18.5,39.53,41.67,105.52-5.46,133.47a7.36,7.36,0,0,1-3.29,1C161.92,232.85,152.59,233.44,143.22,232.76Z"/><path class="cls-1" d="M637.54,277.54V247.16h14V277.9c2.23-1,2-1.62,1.92-3.53-.05-9.24-.17-18.25-.18-27.53h13.9c.65,9.43,0,19,.28,28.49a6.06,6.06,0,0,1-2.18,4.83c-26.8,25.66-55.23,49.87-81.1,76.38a11,11,0,0,0-.86,10.91,24,24,0,0,0,5.71,7.73c35.54,35,72.12,68.93,107.24,104.27-38.1,0-76-.39-114.11-.31a5.83,5.83,0,0,1-5.23-2.4c-22.67-27.16-44.75-54.87-68.88-80.77a44.2,44.2,0,0,1-7.71-11c-7.26-13.54-1.43-28.77,9.23-38.61,22.88-22.33,45.54-44.89,68.76-66.87a6.36,6.36,0,0,1,4.91-2C601.39,277.58,619.38,277.53,637.54,277.54Z"/><path class="cls-1" d="M407.07,31.94c-26.45,24.89-53.15,49.54-79.7,74.33-4.26,3.81-6.62,9.54-3.94,15a25.64,25.64,0,0,0,6,7.88c35.28,34.58,71.15,68.58,106.43,103.14l-.27.62c-38,.29-76-.36-114-.2a5,5,0,0,1-4.45-2.14c-22.46-27.23-45-54.37-68.7-80.53a51.81,51.81,0,0,1-8.1-11.46q-6.88-14.07.71-27.79a49.32,49.32,0,0,1,8.87-11.25q34.47-33.54,69-67a4.77,4.77,0,0,1,3.66-1.4c28,.18,56.11-.28,84.12.19Z"/><path class="cls-1" d="M1102.16,118.23H1076c-.72,2.33-1,48.32-.37,55,8.7.12,17.45,0,26.59.08.47,10.34-.07,20.52-.23,31-9,.2-17.87-.08-27-.1,1.12,10.91-3.33,24-15.64,25.22-16,2.19-32.23.87-48.33,1.19-36.55-1.15-33.28-61.29,9.32-58.74l15-55.36c-16.53-.06-32.23.37-48.53.2-.77-2.62-.63-26.81.19-31.49l51.29-.26,4.77-27.74c-19-.21-37.25,0-56.24-.08V31.1c28.89-.3,56.94-.41,86-.34.09-10.54-.37-19.63-.19-30.14l13.93-.47c.47,8.75,0,17.26.25,26,0,1.44-1,4.16,1,4.09s.82-2.78.83-4.25c.06-8.64-.26-16.93-.25-25.61,4.68-.33,9.2-.42,13.95-.35V58.16h-26.82V84.63c8.78.21,17.61,0,26.62.13Zm-83.42,89.55v0c6.44.69,13.66-1.26,14.25-8.81.64-14-29.53-14.52-28,.27C1005.56,206.44,1012.47,208.62,1018.74,207.78Z"/><path class="cls-1" d="M957.39,231.63c-7.71.57-15.19,0-22.88.29a4.09,4.09,0,0,1-4-2.28C909.18,196,898.47,155.8,901.27,116a186.61,186.61,0,0,1,26.17-84c.72-1.22,1.38-2.17,3.09-2.15,9.24.28,18.41-.34,27.62.28C958.17,97.24,957.54,164.26,957.39,231.63Z"/><path class="cls-1" d="M449.93,480.11h-49c-.71-32.33-.53-64.76-.44-97.12,13.2-1,26.57-.45,39.84-.78,8.37-.5,9.45,4.27,9.54,11.8,13.11-19.75,45.74-10.68,46.91,12.83.76,24.36.36,48.76.67,73.15-26.53.32-23.83,4.63-23.83-20.71-.57-9.53,3.32-24.7-8.93-27.83-8.08-2.11-15.6,4.87-14.75,13.12C449.94,456.48,449.93,468.17,449.93,480.11Z"/><path class="cls-1" d="M385.65,480.12H333.34c-.66-2-.92-91.11-.26-96.31,12.6-.63,25.31-.1,37.95-.23,8,0,13.29,4.67,14.21,12.67C386.29,424.19,384.88,452.13,385.65,480.12Z"/><path class="cls-1" d="M357.15,378.77c-31.25.47-33.43-49,.35-49.48C391.05,330.23,388.62,379.51,357.15,378.77Z"/><path class="cls-1" d="M171.81,32.23H202.2l28,57.53c-2.2.86-20.48,1.15-29.38.54C191.34,71.28,181.76,52.11,171.81,32.23Z"/></g></g></g></svg>