<!--?xml version="1.0" encoding="utf-8"?-->
<!-- Generator: Adobe Illustrator 18.1.1, SVG Export Plug-In . SVG Version: 6.00 Build 0)  -->

<svg version="1.1" id="_x32_" xmlns="http://www.w3.org/2000/svg" xmlns:xlink="http://www.w3.org/1999/xlink" x="0px" y="0px" viewBox="0 0 512 512" style="width: 256px; height: 256px; opacity: 1;" xml:space="preserve">
<style type="text/css">
	.st0{fill:#4B4B4B;}
</style>
<g>
	<path class="st0" d="M288.904,408.495c-7.865,13.493-21.341,21.569-36.03,21.569c-14.507,0-28.237-7.929-35.838-20.701
		c-7.966-13.392-8.058-29.973-0.247-44.37c6.038-11.136,13.319-25.561,21.751-42.26c37.19-73.704,74.315-143.379,113.808-191.778
		V26.814H0v458.373h352.348V323.711c-6.888,3.033-14.461,5.28-22.729,6.44C317.488,354.022,294.686,398.62,288.904,408.495z" style="fill: rgb(76, 76, 76);"></path>
	<path class="st0" d="M451.165,92.926c-83.341,11.483-170.428,213.09-209.71,285.45c-9.866,18.18,13.082,33.352,23.231,15.95
		c7.317-12.506,47.229-91.28,47.229-91.28c43.475,1.434,59.508-28.922,42.132-47.777c58.43,1.206,87.388-30.95,70.818-50.464
		c17.429,5.518,32.521,1.827,54.939-10.396C527.636,168.319,525.408,80.986,451.165,92.926z" style="fill: rgb(76, 76, 76);"></path>
</g>
</svg>
