<!--?xml version="1.0" encoding="utf-8"?-->
<!-- Generator: Adobe Illustrator 15.1.0, SVG Export Plug-In . SVG Version: 6.00 Build 0)  -->

<svg version="1.1" id="_x32_" xmlns="http://www.w3.org/2000/svg" xmlns:xlink="http://www.w3.org/1999/xlink" x="0px" y="0px" width="512px" height="512px" viewBox="0 0 512 512" style="width: 256px; height: 256px; opacity: 1;" xml:space="preserve">
<style type="text/css">

	.st0{fill:#4B4B4B;}

</style>
<g>
	<path class="st0" d="M498.344,237.492c-5.844-0.797-6.844-4.453-7.516-7.625c-1.484-7-8.063-9.109-18.578-10.516
		c-20.25-2.688-50.219-4.453-84-2.797C287.953,221.461,295.375,230.57,256,230.57s-31.953-9.109-132.281-14.016
		c-33.766-1.656-63.719,0.109-83.969,2.797c-10.516,1.406-17.094,3.516-18.578,10.516c-0.672,3.172-1.672,6.828-7.516,7.625
		C6.906,238.383,0,238.273,0,239.586c0,2.219,0,29.172,0,31.984c0,2.797,2.969,6.641,7.063,6.641c4.063,0,7.063,2.109,7.063,4.906
		c0,4.906,0.375,74.281,53.125,102.313c52.75,28.016,131.531,17.516,158.281-44.859c12.094-28.188,12.281-55.688,30.469-55.688
		s18.375,27.5,30.469,55.688C313.219,402.945,392,413.445,444.75,385.43c52.75-28.031,53.125-97.406,53.125-102.313
		c0-2.797,2.969-4.906,7.063-4.906S512,274.367,512,271.57c0-2.813,0-29.766,0-31.984C512,238.273,505.094,238.383,498.344,237.492z
		 M207.266,318.523c-1.047,3.688-2.094,7.484-3.203,11.25c-4.766,16.266-14.516,28.813-28.938,37.266
		c-13.063,7.688-29.438,11.734-47.344,11.734c-16.953,0-33.641-3.703-46.953-10.406C41.719,348.68,41.297,291.18,41.25,290.602
		c-0.734-11.094,1.625-22.422,7.672-28.719c9.203-9.609,40.625-13.797,71.438-13.797c33.859,0,69.25,5.609,80.672,14.484
		C218.672,276.305,210.359,307.352,207.266,318.523z M431.172,368.367c-13.328,6.703-30,10.406-46.953,10.406
		c-17.906,0-34.297-4.047-47.344-11.734c-14.438-8.453-24.188-21-28.938-37.266c-1.109-3.766-2.172-7.563-3.203-11.25
		c-3.109-11.172-11.438-42.219,6.234-55.953c11.422-8.875,46.813-14.484,80.656-14.484c30.844,0,62.25,4.188,71.438,13.797
		c6.031,6.297,8.422,17.625,7.656,28.719C470.688,291.18,470.281,348.68,431.172,368.367z" style="fill: rgb(76, 76, 76);"></path>
	<path class="st0" d="M170.656,139.305c17.094-8.172,30.469,23.031,41.625,29.734c11.141,6.688,26.734-4.469,20.063-17.844
		c-20.063-31.203-43.844-43.844-60.188-37.891c-15.109,5.484-151.594,95.109-151.594,95.109l64.641-5.938
		C85.203,202.477,157.172,145.758,170.656,139.305z" style="fill: rgb(76, 76, 76);"></path>
	<path class="st0" d="M299.719,169.039c11.141-6.703,24.516-37.906,41.625-29.734c13.469,6.453,85.438,63.172,85.438,63.172
		l64.656,5.938c0,0-136.5-89.625-151.594-95.109c-16.344-5.953-40.125,6.688-60.188,37.891
		C272.953,164.57,288.563,175.727,299.719,169.039z" style="fill: rgb(76, 76, 76);"></path>
</g>
</svg>
