<svg xmlns="http://www.w3.org/2000/svg" viewBox="0 0 122.18 122.01"><defs><style>.cls-1{fill:#231f20;}</style></defs><g id="レイヤー_2" data-name="レイヤー 2"><g id="Ñëîé_2" data-name="Ñëîé 2"><path class="cls-1" d="M20.39,61a1,1,0,0,0,1.28,0c.23-.2,5.68-4.88,5.68-10.58a12.16,12.16,0,0,0-.26-2.44,16.67,16.67,0,0,0,2.87.24c6.42,0,11.56-4.77,11.77-5a1,1,0,0,0,.32-.73,1,1,0,0,0-.32-.73c-.22-.2-5.47-5-11.77-5A16.54,16.54,0,0,0,27.1,37a12.16,12.16,0,0,0,.25-2.44c0-5.81-5.46-10.4-5.69-10.59a1,1,0,0,0-1.28,0c-.23.19-5.68,4.88-5.68,10.58A12.16,12.16,0,0,0,15,37a16.63,16.63,0,0,0-2.86-.25c-6.42,0-11.56,4.78-11.78,5a1,1,0,0,0,0,1.46c.22.2,5.46,5,11.77,5A16.47,16.47,0,0,0,15,47.94a12.16,12.16,0,0,0-.25,2.44C14.7,56.19,20.15,60.78,20.39,61ZM30,38.76c4.12,0,7.86,2.46,9.52,3.72-1.63,1.26-5.33,3.7-9.52,3.7a14.29,14.29,0,0,1-3.56-.43,9.08,9.08,0,0,0-1-1.75,4,4,0,0,0,.32-1.53A3.87,3.87,0,0,0,25,40.28a4.17,4.17,0,0,0-.36-.47v0A10.82,10.82,0,0,1,26,39.31,13.81,13.81,0,0,1,30,38.76ZM21,26.12c1.34,1.31,4.32,4.66,4.32,8.45a9.61,9.61,0,0,1-.47,3,11.48,11.48,0,0,0-2.09,1,5.2,5.2,0,0,0-4.08.23,4.7,4.7,0,0,0-.7.46l-.08.05A7.23,7.23,0,0,1,17.31,38a9.21,9.21,0,0,1-.61-3.42C16.7,30.85,19.69,27.46,21,26.12Zm2.68,16.35a1.91,1.91,0,0,1-.34,1.1,2.55,2.55,0,0,1-1,.84,3.11,3.11,0,0,1-2.79,0,2.5,2.5,0,0,1-.95-.84,2,2,0,0,1,0-2.19,2.45,2.45,0,0,1,1-.83,3.05,3.05,0,0,1,2.79,0,2.31,2.31,0,0,1,.94.84A1.82,1.82,0,0,1,23.71,42.47ZM17.31,47a7.13,7.13,0,0,1,.62-1.27l.09,0a3.44,3.44,0,0,0,.68.44h0a5.17,5.17,0,0,0,4.6,0,4.28,4.28,0,0,0,.71-.45l.08,0A7.48,7.48,0,0,1,24.74,47a9.59,9.59,0,0,1,.61,3.43c0,3.71-3,7.11-4.33,8.45-1.35-1.32-4.32-4.66-4.32-8.45A9.59,9.59,0,0,1,17.31,47Zm-5.22-.77c-4.12,0-7.87-2.45-9.52-3.71,1.62-1.27,5.32-3.71,9.52-3.71a14.06,14.06,0,0,1,3.56.44,8.79,8.79,0,0,0,1,1.75,3.79,3.79,0,0,0,0,3,9.08,9.08,0,0,0-1,1.75A14.29,14.29,0,0,1,12.09,46.18Z"/><path class="cls-1" d="M77.21,36.83a14.15,14.15,0,0,1,10.85-14,1,1,0,0,0,.74-1.21,1,1,0,0,0-1.21-.74,16.13,16.13,0,0,0-12.38,16,1,1,0,0,0,1,1h0A1,1,0,0,0,77.21,36.83Z"/><path class="cls-1" d="M76.49,56.31c0,13.48,5.88,24,13.39,24s13.38-10.55,13.38-24-5.88-24-13.38-24S76.49,42.84,76.49,56.31Zm24.77,0c0,11.94-5.21,22-11.38,22s-11.39-10.09-11.39-22,5.22-22,11.39-22S101.26,44.37,101.26,56.31Z"/><path class="cls-1" d="M95.24,11.43c1.06-1.51,3.07-4.11,4-4.65,1.85-1.13,8.38-2.24,10.74-2.57a1,1,0,0,0,.86-1V1a1,1,0,0,0-1-1H88.43a4.88,4.88,0,0,0-4.87,4.87v6a1,1,0,0,0,1,1h.26v5.23A16.17,16.17,0,0,0,71.7,33.27l.93,61.58a1,1,0,0,0,1,1h32.5a1,1,0,0,0,1-1l.92-61.58A16.15,16.15,0,0,0,94.55,17V11.84A1,1,0,0,0,95.24,11.43ZM102,23a14.13,14.13,0,0,1,4.07,10.22l-.91,60.6H74.61l-.91-60.6A14.19,14.19,0,0,1,87.93,18.79h3.9A14.13,14.13,0,0,1,102,23ZM86.82,16.85v-5h5.73v5c-.24,0-.48,0-.72,0h-3.9C87.56,16.79,87.19,16.82,86.82,16.85Zm7.09-7H85.56v-5A2.88,2.88,0,0,1,88.43,2H108.8v.36c-2.37.36-8.49,1.39-10.65,2.72C96.86,5.86,94.77,8.66,93.91,9.86Z"/><path class="cls-1" d="M83.18,52.31a1,1,0,0,0,1,1H95.57a1,1,0,0,0,0-2H84.18A1,1,0,0,0,83.18,52.31Z"/><path class="cls-1" d="M80.5,60.77a1,1,0,0,0,1,1H98.25a1,1,0,0,0,0-2H81.5A1,1,0,0,0,80.5,60.77Z"/><path class="cls-1" d="M19.11,97.37h46A2.94,2.94,0,0,0,68,94.43V75.54a2.93,2.93,0,0,0-2.93-2.93H61.66V65.82a1,1,0,0,0-1-1h-.53a4.77,4.77,0,0,0-1.27-1.63c-2.25-1.76-6-2.21-9.71-2.65l-.65-.08a1.08,1.08,0,0,1-.87-.48c-.6-.92-.21-2.88,0-3.49a1,1,0,0,0-.19-.92,1,1,0,0,0-.86-.37c-.55,0-13.53,1.24-20.17,6.1a8.87,8.87,0,0,0-2.9,3.53,1,1,0,0,0-.94,1v6.79H19.11a2.93,2.93,0,0,0-2.93,2.93V94.43A2.94,2.94,0,0,0,19.11,97.37Zm8.46-34.46c5-3.66,14.35-5.13,17.82-5.57A5.62,5.62,0,0,0,46,61.07a3.09,3.09,0,0,0,2.31,1.38l.65.07c3.39.41,6.9.83,8.71,2.25l.06,0H25.74A7.49,7.49,0,0,1,27.57,62.91Zm-3,8.46h6a1,1,0,0,0,0-2h-6V66.82H59.66V68H43.33a1,1,0,0,0,0,2H59.66v2.65H24.55Zm-6.37,4.17a.92.92,0,0,1,.93-.93h46a.93.93,0,0,1,.93.93v2.8H18.18Zm0,4.8H66V90.82H18.18Zm0,12.48H66v1.61a.94.94,0,0,1-.93.94h-46a.93.93,0,0,1-.93-.94Z"/><path class="cls-1" d="M52.27,84.58H31.94a1,1,0,1,0,0,2H52.27a1,1,0,0,0,0-2Z"/><path class="cls-1" d="M121.15,98.74l-58.77,1.8h0L46.78,101a2.58,2.58,0,0,0-2.54,2.5v2.07h-13a1,1,0,0,0-1,1v7.57a1,1,0,0,0,1,1h13v2.07a2.58,2.58,0,0,0,2.54,2.5l61.48,1.89h0l12.88.39h0a1,1,0,0,0,.69-.28,1,1,0,0,0,.31-.72V99.74a1,1,0,0,0-.31-.72A1,1,0,0,0,121.15,98.74ZM44.24,110H38.52a1,1,0,1,0,0,2h5.72v1.17h-12v-4.34a1,1,0,0,0,1,.84h11Zm0-2.33h-11a1,1,0,0,0-1,.84v-.91h12Zm17.13,10.52-14.53-.45a.58.58,0,0,1-.6-.5V103.52a.58.58,0,0,1,.6-.5l14.53-.45Zm45.9,1.4-43.9-1.34V102.51l43.9-1.34Zm12.91-18.49h-.67a1,1,0,0,0,0,2h.67v1.33h-.67a1,1,0,0,0,0,2h.67v1.33h-.67a1,1,0,1,0,0,2h.67v1.34h-.67a1,1,0,0,0,0,2h.67v1.32h-.67a1,1,0,0,0,0,2h.67v1.34h-.67a1,1,0,1,0,0,2h.67V120l-10.91-.33V101.11l10.91-.34Z"/><path class="cls-1" d="M66.91,106.19h0l36.84-1.13a1,1,0,0,0,0-2h0l-36.84,1.13a1,1,0,0,0-1,1A1,1,0,0,0,66.91,106.19Z"/><path class="cls-1" d="M116.14,119.39a1,1,0,0,0,1-1v-16a1,1,0,0,0-2,0v16A1,1,0,0,0,116.14,119.39Z"/><path class="cls-1" d="M65.42,54a1,1,0,0,0,0-2H62.94a1,1,0,0,0,0,2Z"/><path class="cls-1" d="M58.07,52H55.58a1,1,0,0,0,0,2h2.49a1,1,0,0,0,0-2Z"/><path class="cls-1" d="M60.5,51.57a1,1,0,0,0,1-1V48.11a1,1,0,0,0-2,0v2.46A1,1,0,0,0,60.5,51.57Z"/><path class="cls-1" d="M59.5,57.84a1,1,0,0,0,2,0V55.39a1,1,0,0,0-2,0Z"/><path class="cls-1" d="M58.32,34.85H55a1,1,0,0,0,0,2h3.3a1,1,0,0,0,0-2Z"/><path class="cls-1" d="M48.54,36.85a1,1,0,0,0,0-2h-3.3a1,1,0,0,0,0,2Z"/><path class="cls-1" d="M51.78,33.64a1,1,0,0,0,1-1V29.38a1,1,0,1,0-2,0v3.26A1,1,0,0,0,51.78,33.64Z"/><path class="cls-1" d="M50.78,42.32a1,1,0,0,0,2,0V39.06a1,1,0,0,0-2,0Z"/></g></g></svg>