<svg xmlns="http://www.w3.org/2000/svg" viewBox="0 0 420.86 781.2"><defs><style>.cls-1{fill:none;}.cls-2{fill:#dd7b50;}.cls-3{fill:#eceff1;}.cls-4{fill:#1b3e4f;}.cls-5{fill:#b0bec5;}.cls-6{fill:#122b38;}.cls-7{fill:#ed9d66;}.cls-8{fill:#fdd835;}.cls-9{fill:#fbc02d;}</style></defs><g id="レイヤー_2" data-name="レイヤー 2"><g id="_Layer_" data-name="&lt;Layer&gt;"><rect class="cls-1" width="420.86" height="781.2"/><path class="cls-2" d="M186.7,368.71c-5.42,27.94-25.36,167.57-19.28,188.9s35.71,95.67,39,143.81c1,15,28.52,17.55,28.52,7.4,0-52.26,3.07-110.92-13.74-153.16-9.6-24.15,46.11-134.11,38.93-155.5S191.36,344.65,186.7,368.71Z"/><path class="cls-3" d="M169.11,733c19.44,5.72,22.91-1.48,37,0s25.23,3.69,27,1.93a12.73,12.73,0,0,0,3-5.1c2.23-6.33,2-15.4.59-20-1-3.3-7.11,1.86-14.06.49s-14.2-13.62-17.08-10.68c-5.74,5.87-9.52,16.37-35.87,18.72-5.6.5-9.68,2-11.47,4.07C155.51,725.61,158.19,729.83,169.11,733Z"/><path class="cls-4" d="M262.41,369.91c12.73,50.43-17.89,108.74-22.5,118.4s-75.86-9.5-71.55-23.44c14.06-45.46,10.6-84.46,16.35-95.45C196.06,347.69,256.89,348,262.41,369.91Z"/><path class="cls-5" d="M169.11,733c19.44,5.72,22.91-1.48,37,0s25.23,3.69,27,1.93a12.73,12.73,0,0,0,3-5.1c-6.65-.53-22.48-1.8-31.92-2.65-11.23-1-26.91,6.26-46-4.73C155.51,725.61,158.19,729.83,169.11,733Z"/><path class="cls-6" d="M239.37,488.85a1.44,1.44,0,0,0,.84-.7c13.52-24.87,24.49-51.45,34.52-83.63a1.49,1.49,0,0,0-2.85-.89c-10,32-20.87,58.4-34.3,83.1a1.5,1.5,0,0,0,.6,2A1.47,1.47,0,0,0,239.37,488.85Z"/><path class="cls-6" d="M174,450a1.51,1.51,0,0,0,1-1.12A310.7,310.7,0,0,0,181.22,395a1.49,1.49,0,0,0-3-.08,306.78,306.78,0,0,1-6.14,53.36,1.49,1.49,0,0,0,1.16,1.76A1.46,1.46,0,0,0,174,450Z"/><path class="cls-7" d="M228.37,380.32c-4.46,28.11-19.62,168.33-12.82,189.44s38.95,94.41,43.87,142.4c1.53,14.94,29.1,16.57,28.75,6.43-1.82-52.24-.72-111-19-152.61-10.41-23.8,41.51-135.6,33.6-156.73S232.21,356.11,228.37,380.32Z"/><path class="cls-3" d="M223.22,745c19.63,5.06,22.85-2.26,37-1.22s25.34,2.83,27.1,1a12.76,12.76,0,0,0,2.81-5.2c2-6.4,1.52-15.46-.1-20-1.15-3.26-7,2.1-14,1s-14.66-13.12-17.43-10.09c-5.54,6.06-9,16.68-35.21,19.93-5.59.7-9.61,2.37-11.33,4.46C209.38,738.08,212.2,742.2,223.22,745Z"/><path class="cls-4" d="M304.08,378.93c14.44,50-14.17,109.29-18.45,119.1s-76.14-6.9-72.31-21c12.5-45.92,7.71-84.77,13.08-96C237,359,297.81,357.26,304.08,378.93Z"/><path class="cls-5" d="M223.22,745c19.63,5.06,22.85-2.26,37-1.22s25.34,2.83,27.1,1a12.76,12.76,0,0,0,2.81-5.2c-6.67-.31-22.53-1-32-1.56-11.26-.64-26.67,7.18-46.1-3.16C209.38,738.08,212.2,742.2,223.22,745Z"/><path class="cls-6" d="M218.49,462a1.5,1.5,0,0,0,.95-1.15,309.9,309.9,0,0,0,4.35-54.06,1.49,1.49,0,1,0-3,0,307.84,307.84,0,0,1-4.31,53.54,1.49,1.49,0,0,0,1.22,1.72A1.43,1.43,0,0,0,218.49,462Z"/><path class="cls-2" d="M130.19,120.23c2.11-2.37,9.17-5.23,12.58-8.5,7-6.78,10.92-14.28,10.67-15.46-.38-1.75-2.37-4.43-4.88-4.73s-4.91,1.34-5.81.67c-6.39-4.75-13.36-8.91-18.73-7.46s-11.35,20.61-13.58,27.76S124,127.23,130.19,120.23Z"/><path class="cls-2" d="M197.16,217.4c-28.2,3.18-96.07-1.13-105.64-11.65s-1.93-51,18.92-93.24c3.78-7.66,23.59-2.43,19.64,7.8-7.3,18.93-14.36,49-5.5,57s55.56-5.11,89.6.4C234.12,180.94,221.69,214.63,197.16,217.4Z"/><path class="cls-8" d="M164.68,175.9C140.91,231.05,206.29,287.18,175,382.18c-7.85,23.88,139.76,35.31,134.08,5.76-9.7-50.55-23.85-64.16-26.73-90.89s-.44-92.79-49.26-139.27C208,133.83,175.59,150.58,164.68,175.9Z"/><path class="cls-9" d="M230.4,357.38a1.45,1.45,0,0,0,.83-.26,1.5,1.5,0,0,0,.41-2.07,132.31,132.31,0,0,1-19.71-47.23,1.49,1.49,0,1,0-2.93.59,135.33,135.33,0,0,0,20.16,48.31A1.48,1.48,0,0,0,230.4,357.38Z"/><path class="cls-9" d="M263.43,373.54a1.49,1.49,0,0,0,1.1-2.5,273.85,273.85,0,0,1-63.47-116.5,1.49,1.49,0,0,0-2.89.75,276.77,276.77,0,0,0,64.16,117.77A1.49,1.49,0,0,0,263.43,373.54Z"/><path class="cls-9" d="M183.9,309.58l.23,0a1.49,1.49,0,0,0,1.25-1.71c-2.29-14.59-7-29.51-11.63-44C166.5,241.1,159,217.52,161,194.69a1.49,1.49,0,0,0-3-.26c-2.08,23.42,5.52,47.29,12.86,70.38,4.56,14.32,9.27,29.14,11.52,43.5A1.49,1.49,0,0,0,183.9,309.58Z"/><path class="cls-7" d="M175.63,162a51.57,51.57,0,0,0,2-13.84,96.42,96.42,0,0,0-2.22-20.83c-.08-.39-.13-.66-.15-.79s32.41-29.4,31.47-18.57c-1.28,14.89,7,36.68,14.87,41.69C228.73,154.25,171.78,174.86,175.63,162Z"/><path class="cls-2" d="M201.7,125c-3.45,14.81-17.65,20.85-24.11,23.21a96.42,96.42,0,0,0-2.22-20.83C186.49,119.73,204.94,111.16,201.7,125Z"/><path class="cls-7" d="M152.61,100.28c0,.35,0,.71,0,1.07,1,18.63,4.26,39,9.06,40.2,4.58,1.16,27.3.37,37.21-6.44S226.1,84,218.9,73,166,64.89,156.69,71.62c-1.94,1.4-3.12,5.14-3.73,10.21,0,.31-.08.63-.11,1A118.42,118.42,0,0,0,152.61,100.28Z"/><path class="cls-2" d="M158.54,120.57c-.56,1.39-7.52,3.59-9.45,1.69s3.07-15.61,4-15.45S159.33,118.63,158.54,120.57Z"/><path class="cls-2" d="M152.75,97.75c8-1.18,13.72-5.12,18-5.77a9.27,9.27,0,0,1,8.68,3.7l1.69-12.09-28-1.76c0,.27-.08.54-.11.83A89.29,89.29,0,0,0,152.75,97.75Z"/><ellipse class="cls-7" cx="234.76" cy="202.82" rx="27.42" ry="43.53" transform="translate(-63.8 118.52) rotate(-25.06)"/><path class="cls-4" d="M146.46,64.33c6.16-6,23.77-32.7,39.06-20.9,3,2.28,4.74,5.88,7.87,7.91,3.65,2.37,8.31,2.16,12.6,2.87,29.61,4.9,25.48,40.2,12.74,59.17-18,26.86-12.09-11.15-20.85-17.16a6.73,6.73,0,0,0-6.89,0c-3,1.81-2.42,5-1.41,8,1.75,5.08,4,10,6,15,1.71,4.28,4.81,11,2.29,15.53-4.3,7.75-35.19,13.7-39.06,12.19s-7.16-18.5-3.86-22,22.3,1.82,24.88-5.06c2.86-7.64,1.13-16.57-2.18-23.77S166.5,91,160.26,92.06c-7.23,1.21-15.84,2.17-20.39-5C129.09,70.26,141.75,69,146.46,64.33Z"/><path class="cls-7" d="M226,209.86c-27.8,5.69-91.46,19.68-106.27,10.39s-16.16-74.1-7-120.29c1.66-8.38,24.53-3.68,22.81,7.16-3.19,20.09,2,63.82,11.54,71s60.88-10.63,81.05-11.65S250.21,204.91,226,209.86Z"/><path class="cls-7" d="M144,101.85c3.52-2.46,5.71-10.2,9.66-17.4,1.86-3.38-1.76-3.78-4.82-1.31-2.43,2-5,6.19-6.52,6.56-3.54.84-2.83-7.85,1.17-13,8.9-11.51,5.81-18.27,2.5-15.39-4.53,3.93-7.64,2.27-13.81,1.73s-15.25,9-16.6,15.14-.84,14-2.75,23.23,13.4,18.38,15.73,11C131,104.61,140.45,104.31,144,101.85Z"/></g></g></svg>