<!--?xml version="1.0" encoding="utf-8"?-->
<!-- Generator: Adobe Illustrator 15.1.0, SVG Export Plug-In . SVG Version: 6.00 Build 0)  -->

<svg version="1.1" id="_x32_" xmlns="http://www.w3.org/2000/svg" xmlns:xlink="http://www.w3.org/1999/xlink" x="0px" y="0px" width="512px" height="512px" viewBox="0 0 512 512" style="width: 256px; height: 256px; opacity: 1;" xml:space="preserve">
<style type="text/css">

	.st0{fill:#4B4B4B;}

</style>
<g>
	<path class="st0" d="M122.563,215.578l-0.594-7.547c-0.531-2.859-2.406-5.297-5.063-6.5l-11.375-4.672
		c-1.906-0.859-3.125-2.766-3.125-4.859v-1.672c0-0.797,0.125-1.578,0.375-2.344c0,0,7.188-9.547,7.188-18.359
		c0-11.031-7.063-18.125-15.75-18.125c-8.703,0-15.75,7.094-15.75,18.125c0,8.813,7.156,18.359,7.156,18.359
		c0.266,0.766,0.391,1.547,0.391,2.344V192c0,2.094-1.203,4-3.109,4.859L71.5,201.531c-2.641,1.203-4.531,3.641-5.047,6.5
		l-0.578,7.547h28.344H122.563z" style="fill: rgb(76, 76, 76);"></path>
	<path class="st0" d="M502.563,107.438c-5.156-6.531-11.938-12.031-21.359-17.281l-1.063-0.516
		c-1.422-0.609-14.359-6.109-32.953-11.734c-26.344-7.875-49.031-11.719-69.359-11.75c-59.141,0.078-103.578,19.906-119.922,28.438
		L256,95.578l-1.906-0.984c-16.344-8.531-60.75-28.359-119.906-28.438c-20.344,0.031-43.031,3.875-69.375,11.75
		c-18.625,5.625-31.531,11.125-32.953,11.75l-1.078,0.5c-9.406,5.25-16.188,10.734-21.359,17.313
		c-6.156,7.719-9.5,17.344-9.422,27.188v269.906c0,11.016,5.313,21.453,14.25,27.922c5.922,4.297,12.938,6.578,20.266,6.578
		c3.641,0,7.234-0.563,10.672-1.688l0.422-0.125l0.859-0.375c0.094-0.047,12.188-5.344,29.344-10.375
		c14.688-4.313,36.703-9.5,58.469-9.5c32.094,0,60.406,7.438,78.484,13.656c8.172,2.813,16.016,5.969,23.344,9.359
		c2.734,1.266,4.781,2.313,6.172,3.031l3,1.641l1.25,0.391c1.641,0.516,3.344,0.766,5.031,0.766c1.063,0,2.188-0.125,3.563-0.422
		l0.875-0.203l0.875,0.203c1.344,0.297,2.516,0.422,3.547,0.422c1.703,0,3.391-0.25,5.031-0.766l1.266-0.391l1.094-0.625l-0.625,0.5
		C272.031,441.188,319.5,417,378.031,417c21.984,0,44.625,5.438,59.734,9.969c6.891,2.063,13.75,4.391,20.328,6.906
		c2.469,0.938,4.375,1.719,5.688,2.25l2.219,0.984l0.797,0.266c3.453,1.125,7.047,1.688,10.688,1.688
		c7.328,0,14.328-2.281,20.266-6.578C506.688,426,512,415.563,512,404.563V134.625C512.078,124.828,508.719,115.188,502.563,107.438
		z M243.641,416.219l-5.734-2.406c-23.156-9.766-59.969-21.438-103.719-21.531c-20.063,0.031-42.625,3.734-67.031,11
		c-14.75,4.438-25.578,8.813-29.531,10.484l-0.469,0.203l-2.641,0.375c-2.078,0-4.047-0.656-5.75-1.875
		c-2.531-1.844-4.047-4.797-4.047-7.906v-270c0.109-4.75,1.188-7.844,4.188-11.875c2.719-3.531,7.281-7.172,13.688-10.75
		c3.281-1.359,15.25-6.203,31.063-10.859c12.813-3.813,37.719-10.203,60.281-10.203h0.297c34.094,0,63,7.625,81.25,14.031
		c10.266,3.594,18.297,7.219,23.219,9.594l4.938,2.469V416.219z M487.281,404.563c0,3.109-1.516,6.078-4.047,7.906l0,0
		c-1.609,1.188-3.516,1.813-6.109,1.813c-0.094,0-0.188,0-0.313,0l-1.969-0.313l-0.469-0.203c-3.969-1.672-14.797-6.063-29.5-10.484
		c-24.438-7.266-47-10.969-67.063-11c-43.766,0.094-80.563,11.766-103.734,21.531l-5.719,2.406v-299.25l2.266-1.156
		c14.813-7.5,54.906-24.938,107.469-24.938c23.172,0,48.75,6.703,61.953,10.703c9.313,2.813,17.109,5.609,21.984,7.453
		c2.688,1.016,4.781,1.859,6.219,2.438l1.578,0.688c5.953,3.344,10.531,7,13.328,10.594c2.938,3.953,4.016,7.047,4.125,11.906
		V404.563z" style="fill: rgb(76, 76, 76);"></path>
	<path class="st0" d="M303.844,167.609v17.828c49.234-8.281,99.5-8.188,148.688,0.375V168
		C403.313,159.734,353.109,159.625,303.844,167.609z" style="fill: rgb(76, 76, 76);"></path>
	<path class="st0" d="M303.844,212.563v17.828c49.234-8.297,99.5-8.203,148.688,0.375v-17.828
		C403.313,204.688,353.109,204.563,303.844,212.563z" style="fill: rgb(76, 76, 76);"></path>
	<path class="st0" d="M303.844,257.5v17.828c49.234-8.297,99.5-8.203,148.688,0.391v-17.844
		C403.313,249.625,353.109,249.516,303.844,257.5z" style="fill: rgb(76, 76, 76);"></path>
	<path class="st0" d="M303.844,302.422v17.859c49.234-8.313,99.5-8.219,148.688,0.375v-17.844
		C403.313,294.563,353.109,294.453,303.844,302.422z" style="fill: rgb(76, 76, 76);"></path>
	<path class="st0" d="M207.344,167.953c-20.516-3.469-41.375-5.516-62.125-6.016v17.625c20.75,0.594,41.531,2.656,62.125,6.266
		V167.953z" style="fill: rgb(76, 76, 76);"></path>
	<path class="st0" d="M207.344,212.938c-20.594-3.453-41.375-5.438-62.125-6v17.547c20.75,0.578,41.609,2.641,62.125,6.266V212.938z
		" style="fill: rgb(76, 76, 76);"></path>
	<path class="st0" d="M58.688,257.5v17.828c49.219-8.297,99.5-8.203,148.688,0.391v-17.844
		C158.156,249.625,107.938,249.516,58.688,257.5z" style="fill: rgb(76, 76, 76);"></path>
	<path class="st0" d="M58.688,302.422v17.859c49.219-8.313,99.5-8.219,148.688,0.375v-17.844
		C158.156,294.563,107.938,294.453,58.688,302.422z" style="fill: rgb(76, 76, 76);"></path>
</g>
</svg>
