<?xml version="1.0" standalone="no"?>
<!DOCTYPE svg PUBLIC "-//W3C//DTD SVG 20010904//EN"
 "http://www.w3.org/TR/2001/REC-SVG-20010904/DTD/svg10.dtd">
<svg version="1.0" xmlns="http://www.w3.org/2000/svg"
 width="247.000000pt" height="247.000000pt" viewBox="0 0 247.000000 247.000000"
 preserveAspectRatio="xMidYMid meet">
<metadata>
Created by potrace 1.11, written by Peter Selinger 2001-2013
</metadata>
<g transform="translate(0.000000,247.000000) scale(0.100000,-0.100000)"
fill="#000000" stroke="none">
<path d="M1207 2234 c-1 -1 -28 -4 -60 -8 -136 -14 -190 -76 -289 -336 -6 -14
-29 -70 -52 -125 l-41 -100 -50 -2 c-28 -1 -168 -2 -312 -3 -148 0 -265 -5
-268 -10 -6 -10 6 -39 100 -235 32 -66 80 -167 107 -225 28 -58 54 -108 59
-111 6 -3 30 -4 54 -2 25 3 45 1 45 -2 0 -7 -176 -388 -290 -630 -38 -80 -100
-217 -100 -220 0 -2 102 -3 228 -3 239 0 271 4 335 48 18 12 46 41 64 64 26
34 151 311 316 699 l20 47 91 1 c225 3 253 -1 305 -49 65 -60 67 -78 70 -465
1 -187 3 -343 5 -344 2 -2 69 -4 149 -5 165 -1 175 3 270 91 230 214 228 606
-4 1149 -90 211 -81 205 -384 207 -208 1 -230 2 -227 17 1 9 52 135 111 280
60 145 107 265 105 267 -4 4 -352 10 -357 5z"/>
<path d="M1830 2224 c0 -2 65 -135 145 -294 l145 -290 139 3 c77 1 142 5 146
8 5 6 -129 292 -244 519 l-27 55 -152 1 c-84 1 -152 0 -152 -2z"/>
</g>
</svg>
