<?xml version="1.0" standalone="no"?>
<!DOCTYPE svg PUBLIC "-//W3C//DTD SVG 20010904//EN"
 "http://www.w3.org/TR/2001/REC-SVG-20010904/DTD/svg10.dtd">
<svg version="1.0" xmlns="http://www.w3.org/2000/svg"
 width="1080.000000pt" height="1080.000000pt" viewBox="0 0 1080.000000 1080.000000"
 preserveAspectRatio="xMidYMid meet">
<metadata>
Created by potrace 1.11, written by Peter Selinger 2001-2013
</metadata>
<g transform="translate(0.000000,1080.000000) scale(0.100000,-0.100000)"
fill="#000000" stroke="none">
<path d="M5284 10084 c-187 -89 -234 -107 -306 -118 -103 -17 -170 -50 -227
-111 -80 -87 -98 -168 -62 -272 10 -29 16 -53 14 -53 -1 0 -20 9 -40 20 -21
11 -48 20 -60 20 -33 0 -90 -56 -118 -114 -46 -98 -52 -205 -16 -299 19 -49
15 -57 -29 -57 -172 0 -235 -241 -138 -525 51 -149 127 -284 277 -490 16 -22
32 -56 35 -75 6 -35 5 -36 -43 -53 -44 -15 -52 -16 -85 -2 -54 23 -166 44
-307 59 -112 12 -128 16 -151 39 -47 47 -146 48 -193 1 -30 -30 -32 -53 -4
-87 39 -50 140 -56 190 -11 17 15 28 15 158 1 76 -9 171 -24 210 -32 l71 -17
-74 -48 c-164 -107 -286 -273 -339 -460 -25 -88 -40 -239 -26 -257 31 -36 80
6 63 54 -17 49 16 215 62 306 51 99 124 199 124 169 0 -6 9 -74 21 -152 17
-117 18 -151 9 -189 -14 -59 1 -129 37 -172 46 -54 93 -23 93 61 0 43 -31 128
-50 140 -5 3 -21 88 -36 188 -26 178 -26 183 -8 203 35 39 155 111 247 149
l92 38 -3 49 -2 49 57 18 c169 53 352 182 487 345 66 79 180 245 234 342 18
31 38 61 45 67 6 5 103 22 215 38 193 26 204 27 232 11 41 -25 82 -22 110 8
51 54 15 145 -57 145 -36 0 -83 -36 -83 -65 0 -8 -4 -15 -9 -15 -5 0 -87 -11
-182 -25 -95 -14 -174 -23 -177 -20 -9 9 92 147 148 202 64 63 165 117 191
102 60 -31 189 31 189 91 0 34 -17 49 -64 57 -49 8 -119 -20 -153 -62 -22 -26
-87 -65 -109 -65 -3 0 10 27 27 61 55 110 82 261 60 339 -5 16 -1 40 11 66 31
73 -8 148 -77 148 -63 0 -107 -71 -85 -138 11 -34 47 -66 74 -66 19 0 26 -22
26 -88 -1 -119 -44 -227 -178 -448 -4 -6 -43 -66 -87 -132 -44 -66 -120 -185
-168 -264 -48 -79 -101 -159 -118 -178 l-29 -35 29 58 c17 31 33 73 37 93 9
47 -17 111 -61 154 -50 49 -47 70 10 70 72 0 121 25 145 75 53 109 66 352 24
438 l-18 38 34 67 c34 67 34 67 41 252 7 183 18 254 58 385 23 73 25 85 14 84
-5 0 -107 -48 -229 -105z m-94 -1628 c0 -2 -8 -10 -17 -17 -16 -13 -17 -12 -4
4 13 16 21 21 21 13z m-115 -122 c-38 -36 -90 -79 -115 -95 -45 -30 -45 -30
-10 -2 19 15 68 58 110 95 41 37 77 67 80 67 3 0 -26 -29 -65 -65z"/>
<path d="M6993 9155 c-57 -38 -97 -86 -106 -125 -3 -14 1 -43 9 -65 7 -22 14
-47 14 -55 0 -28 -183 -198 -346 -321 -7 -6 -9 7 -6 44 2 29 -2 87 -8 128 -7
40 -13 112 -14 157 -1 80 -2 85 -30 107 -30 24 -67 35 -117 35 -27 0 -29 -2
-29 -43 0 -24 10 -62 23 -87 18 -36 31 -48 66 -61 24 -9 47 -23 52 -32 16 -28
29 -170 21 -228 -7 -53 -10 -58 -74 -112 -37 -31 -69 -53 -71 -49 -2 4 -8 24
-11 46 -8 43 -49 114 -71 122 -7 3 -17 19 -20 35 -4 15 -21 40 -38 55 -30 26
-35 26 -130 22 -54 -3 -103 -10 -108 -15 -18 -18 34 -96 91 -136 30 -21 98
-22 147 -2 28 12 39 13 50 3 23 -19 44 -67 53 -121 7 -47 5 -54 -20 -87 -39
-49 -86 -144 -106 -215 l-17 -60 -56 53 c-31 29 -69 66 -86 82 -16 15 -40 31
-52 34 -30 9 -110 -12 -158 -42 l-40 -25 60 -23 c73 -28 93 -29 146 -8 40 17
41 17 82 -12 23 -16 54 -50 68 -74 26 -43 27 -48 18 -113 -12 -80 -8 -162 6
-162 6 0 11 10 13 22 5 32 125 138 197 174 33 16 91 35 128 41 44 7 67 16 67
24 0 35 -158 -2 -243 -56 -27 -17 -70 -50 -96 -75 l-47 -44 7 72 c8 70 9 73
56 116 119 109 188 149 286 164 33 5 39 3 52 -23 21 -40 53 -60 98 -60 47 0
71 12 120 58 44 43 46 52 9 52 -16 0 -55 9 -87 20 -68 23 -103 25 -130 6 -11
-7 -33 -15 -48 -18 l-29 -6 35 37 c41 43 77 95 77 110 0 25 -27 7 -60 -40 -34
-49 -109 -109 -202 -162 -25 -15 -71 -50 -102 -78 -31 -28 -56 -49 -56 -47 0
19 38 124 60 169 65 127 167 218 271 240 74 16 273 -5 308 -32 54 -43 133 -12
179 69 l22 40 -29 7 c-80 17 -131 6 -182 -41 -25 -23 -27 -24 -107 -13 -44 6
-109 9 -143 7 l-61 -3 33 26 c19 15 72 57 118 94 47 37 98 72 115 77 17 5 87
12 156 14 142 6 175 -4 217 -66 l23 -33 -35 -38 c-30 -33 -35 -46 -35 -88 0
-54 17 -111 32 -111 18 0 77 40 93 63 21 30 19 80 -5 127 -11 22 -20 45 -20
51 0 7 -11 27 -26 46 -28 38 -26 39 42 18 43 -12 52 -20 69 -57 28 -61 75 -77
173 -58 102 19 105 23 54 70 -53 48 -122 72 -199 69 -32 -1 -103 8 -158 21
-82 18 -123 21 -226 18 l-126 -4 49 56 c40 46 59 59 99 69 117 30 151 117 93
239 -14 28 -29 52 -32 52 -4 0 -31 -16 -59 -35z"/>
<path d="M2425 8931 c-20 -42 -83 -157 -139 -256 -123 -217 -170 -317 -193
-409 -16 -68 -16 -70 6 -134 12 -35 21 -65 19 -66 -2 -2 -19 -7 -38 -12 -27
-7 -40 -19 -54 -49 -17 -34 -18 -47 -9 -110 6 -40 22 -98 36 -129 41 -90 181
-225 283 -273 l37 -18 -7 -80 c-3 -44 -6 -150 -6 -235 l0 -155 -19 40 c-10 22
-38 68 -62 102 -66 93 -259 312 -295 334 -38 23 -77 24 -114 2 l-28 -16 -94
68 c-148 109 -227 147 -312 153 -126 8 -273 -42 -302 -103 -20 -44 -27 -45
-20 -2 6 29 5 30 -4 7 -21 -48 7 -124 100 -275 90 -147 262 -360 363 -450 58
-53 143 -105 171 -105 10 0 31 11 48 25 16 14 41 25 55 25 38 0 87 -56 106
-121 9 -31 24 -62 33 -70 47 -39 167 7 299 116 l80 65 7 -33 c3 -17 14 -72 23
-121 9 -49 27 -121 41 -160 13 -39 24 -72 24 -73 0 -2 -37 -3 -82 -3 -82 0
-197 -19 -250 -41 -24 -10 -35 -6 -100 34 -40 25 -90 50 -111 57 -71 22 -191
-14 -372 -112 -143 -78 -165 -102 -165 -184 0 -62 -23 -97 -156 -234 -108
-112 -131 -151 -143 -249 -12 -98 -3 -221 17 -229 22 -8 229 16 337 39 276 60
502 158 539 232 12 26 12 34 -4 69 -34 77 5 126 111 137 83 9 106 22 120 72
10 33 10 52 -5 112 -9 40 -28 99 -41 132 -14 33 -21 63 -17 67 14 13 127 39
203 45 123 9 141 3 186 -70 22 -34 61 -85 87 -114 55 -60 174 -153 197 -153
29 0 38 44 43 220 5 185 24 301 69 435 l24 70 76 5 c64 5 90 13 160 49 74 38
272 177 447 314 94 73 97 127 13 241 -49 68 -49 77 -5 201 45 128 160 332 199
354 12 6 10 9 -10 9 -15 0 -24 -5 -21 -10 4 -6 -1 -6 -13 0 -20 11 -203 0
-305 -18 -192 -35 -276 -88 -318 -200 -30 -80 -76 -126 -170 -172 -105 -50
-147 -85 -177 -147 -50 -102 -34 -280 44 -490 l35 -94 -31 -96 c-50 -158 -73
-308 -83 -545 l-3 -59 -78 73 c-87 81 -125 132 -172 229 -97 201 -133 457
-120 854 l7 207 107 108 c194 195 301 358 301 456 0 57 -10 76 -77 147 l-35
36 32 74 c69 163 55 298 -56 522 -69 139 -115 202 -150 204 -16 0 -31 2 -34 3
-3 2 -14 4 -26 5 -17 2 -28 -12 -59 -74z"/>
<path d="M9552 8503 c-12 -3 -41 -22 -64 -43 l-40 -39 -127 9 c-198 15 -365
12 -440 -6 -133 -33 -252 -116 -316 -220 -49 -79 -68 -159 -69 -294 l-1 -125
-95 -110 c-134 -157 -193 -211 -263 -243 -69 -33 -255 -87 -265 -78 -3 4 17
25 44 49 294 252 443 494 444 720 0 36 6 67 16 82 38 59 9 179 -49 199 -67 24
-112 -96 -68 -182 11 -22 25 -43 31 -47 15 -9 12 -103 -5 -170 -21 -81 -76
-194 -131 -272 -47 -66 -210 -240 -218 -232 -2 2 0 29 6 59 15 82 3 269 -26
380 -21 80 -23 101 -14 136 21 77 -27 227 -93 294 -76 75 -136 -2 -109 -136
17 -84 45 -140 94 -188 32 -31 46 -55 58 -101 44 -160 49 -344 12 -458 -15
-49 -26 -63 -65 -92 -68 -49 -219 -132 -254 -141 -16 -3 -37 -13 -45 -20 -8
-7 -27 -17 -43 -23 -30 -12 -35 -32 -13 -50 11 -10 30 -8 83 8 110 32 169 41
257 41 110 0 169 -19 261 -86 136 -97 166 -109 275 -108 211 1 277 8 307 30
15 12 29 33 31 47 3 22 -2 27 -35 37 -44 13 -112 1 -133 -25 -17 -21 -116 -38
-190 -33 -74 6 -108 20 -201 89 -79 58 -158 96 -218 105 -45 7 -44 7 85 46
116 35 141 39 244 40 168 1 204 -15 415 -193 111 -94 247 -143 375 -137 54 2
65 6 68 22 5 26 -15 36 -78 36 -80 0 -214 36 -248 65 -10 9 49 97 97 145 101
99 222 144 420 156 97 6 109 5 143 -15 90 -54 258 -7 246 70 -10 72 -175 94
-247 34 -23 -20 -40 -25 -82 -25 -165 0 -335 -41 -432 -104 -67 -43 -139 -115
-168 -172 -13 -24 -28 -44 -33 -44 -5 0 -36 24 -70 53 -123 108 -193 149 -277
161 -104 16 -102 8 -24 89 39 39 103 111 142 158 154 185 327 282 599 336 84
16 85 16 123 -5 74 -42 178 -18 202 45 18 48 -40 103 -109 103 -42 0 -95 -22
-113 -47 -10 -14 -39 -24 -107 -37 -173 -31 -334 -94 -444 -172 -53 -37 -58
-34 -58 44 1 177 89 336 223 401 127 62 238 73 541 51 130 -10 140 -12 162
-36 25 -27 81 -54 111 -54 77 0 153 59 153 118 0 42 -41 86 -96 101 -40 11
-52 12 -92 4z"/>
<path d="M5600 7085 c-18 -21 -25 -107 -11 -133 7 -14 34 -28 76 -41 187 -58
282 -164 305 -343 5 -40 10 -229 10 -419 l0 -346 -42 -13 c-111 -32 -209 -108
-267 -205 -45 -74 -62 -142 -62 -241 0 -118 36 -214 114 -309 l25 -29 -38 -46
c-74 -89 -102 -172 -101 -302 1 -85 26 -175 69 -243 54 -86 158 -167 256 -199
15 -5 17 -12 11 -44 -25 -137 -121 -226 -296 -276 -64 -18 -79 -39 -79 -115 0
-33 6 -56 19 -72 22 -27 -17 -27 501 -9 157 5 411 10 566 10 204 0 283 3 292
12 13 13 16 106 4 125 -4 7 -44 24 -87 38 -90 29 -136 56 -189 112 -91 95
-118 221 -114 528 l3 195 477 -347 c262 -192 548 -401 635 -465 161 -120 201
-139 251 -122 37 13 66 66 58 108 -6 33 -240 301 -824 945 l-222 244 62 66
c34 36 150 161 258 276 398 425 520 559 535 591 41 87 -6 181 -97 191 -29 3
-60 0 -79 -7 -17 -7 -163 -110 -324 -229 -299 -221 -321 -237 -580 -424 l-150
-109 -3 404 c-6 752 16 890 157 992 62 45 83 55 160 77 36 10 72 27 79 36 6 9
12 40 12 68 0 92 55 85 -697 85 -581 0 -662 -2 -673 -15z m772 -231 c-91 -94
-86 -63 -90 -607 -3 -442 -5 -478 -20 -472 -9 3 -36 11 -59 18 l-43 11 0 456
c0 287 -4 469 -11 493 -6 24 -32 60 -69 97 l-58 60 202 0 202 0 -54 -56z
m1092 -1023 c32 -33 47 -55 43 -65 -10 -24 -28 -19 -70 19 -21 19 -42 35 -47
35 -24 0 -18 -25 15 -61 38 -43 41 -62 9 -67 -14 -2 -38 15 -73 53 l-53 56 39
39 c52 54 76 53 137 -9z m-219 -31 c3 -11 11 -20 16 -20 19 0 119 -103 119
-121 0 -36 -42 -21 -97 33 -29 29 -53 58 -53 64 0 6 -9 14 -20 17 -12 3 -20
14 -20 26 0 29 46 29 55 1z m3 -93 c3 -12 -4 -20 -17 -24 -30 -8 -26 -38 9
-70 34 -30 41 -73 12 -73 -10 0 -36 18 -57 40 -21 22 -45 40 -52 40 -25 0 -26
30 -2 54 13 13 30 32 37 41 18 21 66 16 70 -8z m-173 -57 c3 -11 10 -20 13
-20 4 0 33 -24 65 -53 58 -54 70 -80 41 -91 -18 -7 -134 98 -134 121 0 7 -6
13 -14 13 -19 0 -29 17 -22 35 8 22 44 18 51 -5z m-31 -86 c3 -9 6 -26 6 -39
0 -19 6 -23 46 -28 52 -5 70 -18 60 -42 -5 -14 -15 -16 -59 -10 -52 7 -52 7
-34 -13 20 -22 20 -53 1 -59 -6 -2 -26 9 -44 24 -29 24 -31 24 -22 6 7 -12 12
-37 12 -56 0 -47 -28 -70 -79 -65 -36 3 -39 2 -25 -13 16 -18 9 -49 -12 -49
-7 0 -29 14 -49 31 -20 18 -41 29 -50 25 -22 -8 -19 -21 17 -61 29 -34 30 -37
15 -53 -16 -15 -20 -13 -63 28 -104 100 -114 111 -114 126 0 25 30 28 55 4
l24 -22 27 21 c32 25 45 26 85 5 29 -15 30 -15 20 5 -16 29 -13 73 5 100 14
19 24 22 60 19 l43 -3 -41 42 c-26 27 -39 47 -35 57 9 24 37 19 69 -11 27 -25
28 -26 28 -6 0 34 11 53 30 53 10 0 21 -7 24 -16z m-906 -39 c82 -35 126 -102
125 -192 -1 -75 -27 -117 -99 -159 -38 -23 -53 -26 -107 -22 -74 4 -114 28
-155 92 -21 32 -26 54 -27 102 0 78 34 132 108 169 58 29 102 32 155 10z m565
-299 c6 -16 -11 -36 -30 -36 -22 0 -27 -29 -8 -50 25 -27 44 -25 55 6 7 16 16
24 28 22 26 -5 27 -46 1 -74 -53 -56 -149 -8 -149 75 0 30 6 44 22 55 28 20
74 21 81 2z m-566 -381 c133 -56 171 -230 71 -321 -46 -42 -87 -56 -152 -52
-109 7 -180 83 -181 194 0 80 32 131 106 168 60 30 104 33 156 11z m137 -690
c8 -94 20 -140 46 -170 38 -45 39 -45 -100 -45 l-131 0 30 38 c32 39 51 109
51 188 0 41 1 43 43 57 23 9 45 16 48 16 3 1 9 -37 13 -84z"/>
<path d="M6904 5386 c-8 -21 15 -58 34 -54 9 2 18 11 20 21 7 36 -42 65 -54
33z"/>
<path d="M9955 7034 c-45 -23 -83 -62 -124 -126 -35 -54 -45 -61 -141 -108
-56 -28 -145 -69 -197 -91 -90 -38 -122 -44 -95 -17 21 21 14 106 -15 170 -26
58 -28 60 -59 55 -102 -17 -127 -113 -63 -238 11 -22 17 -44 14 -49 -9 -14
-286 -96 -459 -135 l-28 -6 22 36 c28 45 24 115 -8 189 -22 48 -22 48 -59 41
-58 -11 -92 -35 -103 -73 -10 -39 0 -106 25 -166 9 -21 15 -40 13 -42 -12 -11
-159 -26 -313 -31 -104 -3 -183 -10 -187 -16 -12 -19 3 -35 46 -46 69 -17 165
-87 278 -203 l108 -110 -39 -38 c-70 -68 -77 -145 -26 -273 36 -88 42 -92 96
-64 79 41 96 116 54 238 l-15 44 23 -29 c54 -71 186 -262 187 -271 0 -5 -14
-18 -30 -27 -69 -39 -89 -143 -53 -271 18 -65 27 -72 76 -63 72 14 106 84 87
183 -5 31 -8 58 -6 60 11 11 250 -433 241 -448 -4 -5 -14 -9 -24 -9 -29 0 -97
-66 -116 -112 -17 -42 -24 -206 -10 -229 9 -14 60 -11 104 7 53 21 79 75 89
180 l7 79 49 -120 c27 -66 65 -170 86 -231 l38 -112 -32 0 c-44 0 -109 -35
-136 -72 -27 -37 -56 -119 -65 -182 -7 -46 -6 -47 21 -53 16 -4 35 -8 42 -11
28 -8 76 11 107 43 21 22 41 60 58 111 14 42 28 70 31 62 26 -75 64 -291 72
-410 l7 -95 -36 -36 c-33 -33 -57 -89 -57 -136 0 -29 46 -174 62 -195 12 -15
17 -15 53 -3 103 36 120 143 51 303 -20 45 -26 77 -28 153 l-3 97 27 -23 c42
-36 95 -49 193 -50 l90 0 0 51 c-1 104 -62 145 -227 152 l-107 5 -6 41 c-9 57
-60 247 -89 334 l-25 73 27 -20 c60 -42 156 -49 265 -20 32 9 37 13 37 40 0
52 -28 96 -74 119 -50 24 -105 25 -201 5 -38 -8 -75 -15 -81 -15 -6 0 -28 42
-49 93 -21 50 -64 147 -96 213 l-57 122 34 -20 c43 -25 146 -27 227 -3 54 16
57 18 57 48 0 46 -34 96 -78 114 -46 19 -149 13 -237 -14 l-60 -19 -71 121
c-39 66 -91 152 -117 192 -26 39 -47 74 -47 77 0 3 12 1 26 -4 63 -24 172 -5
264 47 54 31 56 42 17 95 -54 73 -155 76 -294 7 l-87 -43 -20 29 c-116 160
-291 356 -400 447 -58 49 -59 49 -25 44 19 -3 68 -10 109 -16 115 -17 330 -72
330 -84 0 -6 -7 -20 -15 -30 -21 -28 -19 -102 5 -151 20 -41 93 -125 110 -125
17 0 70 62 72 83 4 61 -12 103 -64 169 l-29 37 97 -39 c97 -40 202 -93 281
-143 l42 -27 -24 -26 c-57 -61 -54 -131 8 -234 36 -60 49 -64 100 -28 55 39
60 96 17 181 l-29 58 42 -31 c61 -45 210 -183 253 -236 l38 -46 -32 -25 c-18
-13 -39 -38 -47 -53 -20 -38 -18 -123 4 -185 18 -48 19 -50 56 -49 26 1 45 10
64 28 22 23 26 35 26 89 0 34 -3 76 -8 92 -20 79 141 -205 189 -332 l24 -63
-41 -6 c-84 -14 -139 -97 -139 -210 0 -57 8 -64 82 -64 63 0 118 80 118 170 0
41 17 10 34 -63 17 -73 17 -75 -3 -115 -24 -47 -26 -109 -6 -166 17 -48 76
-136 92 -136 23 0 73 52 82 85 13 48 -3 108 -48 185 -23 39 -51 109 -69 175
-17 61 -48 156 -69 211 l-39 100 35 -19 c65 -34 188 -6 270 60 l24 20 -21 35
c-38 61 -100 73 -194 38 -29 -11 -73 -33 -98 -50 l-44 -29 -31 57 c-65 120
-144 230 -236 329 l-39 42 48 -6 c37 -4 60 0 96 16 58 25 146 88 146 104 0 21
-46 67 -78 78 -47 16 -125 -11 -205 -71 -36 -27 -70 -50 -75 -50 -5 0 -17 10
-28 21 -29 33 -192 152 -264 195 l-65 38 29 11 c43 18 89 68 116 126 l24 51
-29 24 c-17 13 -37 24 -46 24 -8 0 -26 12 -40 26 -27 29 -86 62 -142 79 l-38
11 113 38 c103 34 241 88 341 130 l38 17 -7 -36 c-9 -52 18 -117 64 -149 44
-30 114 -56 152 -56 24 0 31 7 45 45 36 93 -7 154 -138 196 l-70 22 69 35 c61
31 77 35 134 33 60 -2 71 1 115 31 48 32 135 144 135 173 0 15 -77 55 -106 55
-10 0 -32 -7 -49 -16z m-911 -568 c-3 -19 -1 -50 6 -70 12 -37 80 -106 105
-106 19 0 19 -4 0 -39 l-14 -28 -133 53 c-74 30 -187 67 -253 84 -66 17 -127
34 -135 37 -8 3 44 16 115 29 100 19 287 62 313 73 2 0 0 -14 -4 -33z"/>
<path d="M4157 6359 c-588 -38 -1083 -408 -1257 -938 -108 -331 -74 -704 89
-978 188 -316 483 -507 886 -574 112 -18 155 -20 315 -15 263 8 378 34 570
132 135 69 294 189 443 334 136 133 139 141 78 218 -52 66 -88 92 -124 92 -24
0 -50 -21 -154 -125 -147 -147 -227 -210 -345 -269 -117 -60 -210 -79 -346
-74 -336 14 -572 251 -667 672 -36 161 -36 483 0 656 61 289 175 480 349 584
82 49 154 68 261 69 175 0 283 -67 329 -206 9 -26 27 -118 41 -205 27 -170 49
-228 110 -299 78 -92 237 -128 360 -83 79 30 154 105 184 184 58 155 5 347
-136 497 -222 235 -580 354 -986 328z m774 -572 c20 -39 33 -78 36 -117 8 -81
-1 -110 -32 -110 -33 0 -40 20 -65 179 -11 69 -23 137 -25 151 -5 23 -3 22 24
-10 17 -19 44 -61 62 -93z m-1603 -94 c-98 -216 -134 -598 -83 -888 36 -204
130 -410 245 -538 60 -66 46 -62 -60 19 -147 111 -268 295 -322 489 -30 110
-33 389 -5 509 35 149 108 299 204 420 25 31 46 56 48 56 2 0 -10 -30 -27 -67z"/>
<path d="M960 5362 c-49 -24 -83 -78 -76 -121 15 -97 165 -152 271 -101 23 11
48 32 55 46 12 22 19 25 50 19 58 -10 152 -43 193 -68 l39 -24 -55 -49 c-108
-96 -222 -134 -407 -134 -129 0 -218 14 -264 41 -101 59 -277 15 -237 -59 27
-50 173 -72 241 -37 28 14 43 15 113 6 256 -35 449 12 592 142 l60 55 92 -88
c96 -92 160 -131 251 -152 28 -7 52 -15 52 -19 0 -3 -12 -12 -27 -20 -15 -8
-88 -58 -163 -112 -240 -175 -360 -218 -655 -237 -130 -9 -141 -8 -160 10 -11
10 -41 24 -67 31 -118 32 -209 -64 -115 -122 43 -25 129 -26 171 0 24 15 59
20 161 24 154 6 302 35 409 78 43 17 79 29 82 26 10 -10 -27 -142 -53 -190
-85 -155 -284 -230 -531 -200 -48 5 -56 10 -77 43 -77 122 -310 100 -331 -31
-12 -72 80 -149 178 -149 61 0 107 19 140 58 l25 30 84 -10 c182 -20 364 26
470 120 87 77 135 174 147 296 l7 69 135 99 c196 144 233 161 404 184 183 24
193 18 73 -42 -157 -79 -300 -187 -390 -292 -59 -70 -118 -185 -124 -247 -4
-27 -13 -51 -23 -58 -68 -48 -45 -187 31 -187 34 0 78 41 80 74 1 12 8 -24 15
-78 9 -58 11 -102 6 -105 -22 -14 -42 -74 -42 -124 0 -142 138 -241 220 -159
65 65 61 190 -9 264 -23 25 -49 42 -71 47 -42 8 -47 24 -49 157 -1 99 15 205
56 354 23 87 29 99 74 141 44 41 218 153 226 146 1 -2 -7 -30 -19 -63 -20 -52
-23 -79 -23 -234 -1 -116 -5 -182 -13 -197 -31 -57 3 -209 60 -266 93 -94 164
77 93 226 -14 31 -37 65 -51 76 -21 16 -25 31 -33 107 -16 165 17 318 86 395
24 28 285 119 341 119 12 0 30 4 40 9 9 6 29 12 45 16 27 5 38 37 17 50 -5 3
-63 1 -127 -4 -225 -20 -351 11 -478 115 -138 114 -164 124 -374 136 -172 9
-213 4 -226 -30 -3 -9 3 -24 14 -35 24 -24 101 -28 150 -8 21 9 63 12 128 9
118 -5 159 -21 257 -102 81 -67 142 -104 199 -121 41 -12 39 -12 -90 -25 -203
-20 -334 -6 -440 49 -22 11 -90 67 -150 124 -60 56 -130 115 -155 130 -53 31
-186 77 -222 77 -19 0 -32 10 -50 39 -47 73 -173 105 -256 63z m915 -949 c-8
-21 -40 -185 -51 -258 -4 -28 -9 -42 -12 -30 -2 10 -12 30 -20 44 -27 41 -8
124 49 213 32 49 47 62 34 31z"/>
<path d="M8335 3800 c-3 -6 5 -43 19 -83 50 -144 87 -434 101 -792 l7 -160
-66 -34 c-42 -21 -85 -54 -120 -91 -58 -63 -153 -207 -143 -217 11 -11 121 17
174 43 56 29 85 56 128 119 l27 40 -5 -249 -5 -248 -29 -32 c-47 -49 -72 -90
-98 -160 -24 -64 -60 -235 -51 -244 3 -2 30 13 61 33 75 50 137 127 154 194 7
23 8 23 34 -22 15 -25 47 -62 70 -81 41 -33 144 -86 168 -86 17 0 3 44 -45
145 -49 102 -116 189 -173 223 l-39 24 0 441 c0 451 -13 688 -50 916 -8 52
-13 95 -11 97 5 6 126 -262 172 -381 87 -224 163 -497 200 -708 15 -87 15 -89
-9 -135 -30 -60 -46 -135 -46 -217 0 -78 19 -215 30 -215 25 0 115 148 126
206 l6 34 41 -35 c43 -37 131 -75 173 -75 21 0 24 3 18 28 -23 99 -103 204
-220 288 l-60 43 -18 103 c-18 102 -68 315 -82 352 -4 11 11 1 35 -23 86 -86
200 -112 328 -75 l55 16 -38 40 c-22 21 -66 52 -99 68 -58 29 -201 60 -272 60
-18 0 -35 6 -37 13 -18 64 -112 311 -162 426 l-63 143 62 -61 c145 -146 350
-237 517 -230 30 1 68 -3 85 -10 92 -38 192 -38 267 0 55 28 130 89 125 102
-11 35 -186 48 -286 22 -31 -8 -85 -26 -121 -41 -56 -23 -75 -26 -135 -21
-145 11 -286 82 -422 213 l-78 74 45 -17 c25 -8 79 -16 120 -17 88 -1 144 22
219 91 l46 41 -30 12 c-96 37 -202 32 -338 -16 -117 -41 -105 -45 -172 51 -57
81 -76 97 -90 75z"/>
<path d="M1682 3554 c-35 -68 -52 -145 -52 -230 0 -82 10 -122 38 -156 14 -17
11 -18 -46 -18 -44 0 -62 -4 -62 -13 0 -7 15 -44 34 -82 68 -143 171 -220 282
-213 l54 3 21 -62 c31 -95 113 -249 175 -329 69 -91 171 -188 286 -271 49 -36
87 -67 86 -69 -2 -1 -46 1 -98 6 -52 5 -121 10 -152 10 -42 0 -58 4 -58 14 0
22 -58 88 -103 118 -37 24 -165 63 -175 53 -3 -2 5 -21 17 -41 l22 -37 -23 8
c-46 14 -156 17 -195 5 -27 -9 -71 -47 -154 -131 l-116 -118 43 -31 c83 -59
171 -93 254 -98 49 -3 85 0 99 8 13 6 25 9 28 7 4 -5 -11 -68 -24 -103 -8 -22
25 -17 92 14 77 37 163 123 207 207 l33 65 68 0 69 0 -67 -67 c-125 -127 -212
-269 -246 -401 -23 -90 -24 -135 -4 -152 23 -19 45 5 45 49 0 136 105 324 274
490 l75 75 132 -17 c174 -22 570 -90 567 -98 -2 -4 -43 -42 -92 -85 -103 -91
-209 -217 -272 -323 -38 -65 -49 -76 -86 -89 -55 -18 -113 -64 -144 -113 -13
-21 -24 -41 -24 -44 0 -2 14 -2 31 2 l31 6 -34 -47 c-30 -43 -33 -55 -33 -114
1 -57 6 -78 38 -139 20 -40 37 -79 37 -88 0 -26 17 -17 83 44 71 67 117 148
117 207 l0 37 32 -44 32 -44 12 30 c31 72 7 209 -47 270 l-31 35 27 47 c107
186 378 453 445 439 14 -3 95 -11 181 -17 l157 -13 -39 -51 c-53 -71 -105
-188 -120 -269 -6 -37 -9 -107 -7 -155 l5 -86 -42 -41 c-59 -57 -87 -121 -93
-210 -3 -41 -1 -74 2 -74 4 0 22 11 40 25 l33 25 -15 -45 c-29 -89 16 -151
200 -274 79 -52 148 -114 148 -131 0 -53 65 84 94 197 19 72 23 196 8 234 -6
15 -23 36 -39 49 l-28 22 63 -7 c74 -8 76 -3 31 67 -69 107 -181 178 -285 181
l-64 2 0 95 c0 54 7 121 15 154 34 130 145 290 208 300 18 3 73 12 123 21 124
20 256 66 392 134 61 32 112 55 112 52 0 -3 -5 -24 -10 -46 -15 -61 -13 -213
4 -275 14 -52 13 -57 -6 -88 -22 -36 -29 -114 -15 -167 l9 -30 19 25 c17 23
19 23 19 5 1 -31 34 -97 62 -125 25 -23 208 -103 217 -94 2 2 4 37 4 77 -1 80
-22 148 -56 185 l-22 24 50 -8 50 -7 -30 39 c-55 73 -119 114 -197 128 -34 6
-39 11 -49 49 -20 69 -14 222 10 298 21 66 23 68 119 140 137 102 282 231 282
250 0 26 -31 32 -56 12 -12 -10 -64 -54 -114 -98 -51 -44 -125 -104 -166 -133
l-73 -54 -133 12 c-290 25 -457 85 -594 212 -96 91 -101 100 -73 139 28 40 49
111 49 169 0 51 -24 144 -46 174 -14 21 -13 23 -31 -38 l-9 -30 -22 46 c-28
57 -84 116 -131 136 -22 9 -86 18 -166 23 -71 3 -140 10 -152 14 -22 7 -23 5
-23 -51 1 -144 76 -327 154 -375 l31 -19 -35 -1 c-76 -1 -78 -11 -11 -62 61
-46 139 -77 191 -77 15 0 49 7 76 15 45 14 50 13 62 -3 7 -9 37 -42 66 -72
l55 -55 -124 2 c-117 2 -124 3 -151 28 -26 24 -136 65 -175 65 -20 0 -26 -15
-9 -25 25 -15 6 -23 -25 -9 -39 16 -93 18 -128 5 -22 -9 -29 -4 -71 52 -34 44
-45 67 -41 82 31 99 22 150 -42 238 -39 53 -47 58 -33 21 16 -40 12 -40 -20 4
-56 77 -121 102 -320 121 -52 5 -103 12 -112 16 -16 6 -18 0 -18 -66 0 -97 22
-197 56 -255 29 -49 93 -97 148 -111 31 -7 31 -7 -14 -13 l-45 -5 27 -19 c15
-10 43 -22 63 -26 37 -8 140 8 211 33 l41 15 49 -65 48 -66 -26 -22 c-15 -13
-33 -25 -40 -27 -23 -8 108 -112 177 -140 32 -13 64 -45 65 -65 0 -7 5 -13 12
-13 6 0 36 -24 67 -53 31 -29 70 -62 86 -74 l30 -22 -26 -1 c-14 0 -107 14
-205 31 -98 16 -240 41 -315 53 l-135 23 -135 100 c-160 119 -231 183 -299
268 l-50 63 0 93 c1 207 65 337 196 399 47 23 64 36 62 48 -9 49 -132 0 -203
-81 -55 -63 -93 -154 -109 -266 l-12 -86 -37 89 c-52 125 -54 134 -26 146 38
15 56 33 80 80 19 36 24 61 24 125 0 44 -4 97 -8 118 l-8 39 -30 -31 c-16 -17
-30 -31 -32 -31 -1 0 -2 30 -2 68 -1 118 -46 178 -200 264 -49 28 -100 59
-112 70 l-22 20 -19 -38z m1980 -1239 c37 -7 107 -30 155 -49 88 -35 243 -69
383 -84 l75 -8 -104 -53 c-195 -99 -401 -151 -600 -151 -68 0 -100 5 -137 21
-60 27 -171 99 -203 132 l-23 26 39 19 c52 27 92 68 115 120 l19 42 107 0 c59
0 137 -7 174 -15z"/>
<path d="M7488 2818 c-3 -7 4 -33 15 -58 13 -30 22 -75 25 -135 4 -78 1 -100
-21 -166 -33 -98 -99 -212 -230 -397 -57 -81 -134 -191 -171 -245 -37 -54
-105 -136 -150 -183 l-83 -84 -107 0 c-171 0 -306 -34 -486 -122 -83 -41 -119
-66 -176 -122 -102 -101 -120 -181 -58 -255 50 -60 149 -51 300 28 154 81 254
163 602 495 l53 51 -26 -58 c-14 -32 -34 -90 -45 -129 -11 -38 -28 -85 -38
-102 -56 -95 -93 -249 -94 -391 0 -104 9 -154 44 -243 35 -90 156 -180 206
-153 31 17 46 90 38 194 -10 132 -55 376 -107 581 l-20 79 20 68 c43 139 149
321 359 616 41 57 88 128 107 158 l33 55 7 -37 c4 -21 7 -120 6 -220 -1 -195
9 -266 52 -385 34 -93 72 -154 141 -224 49 -50 72 -65 115 -78 210 -62 200 72
-32 419 -44 66 -110 161 -147 211 -37 50 -73 100 -79 112 -6 12 -14 80 -18
151 -6 121 -4 134 18 193 35 91 34 238 -1 322 -25 59 -44 79 -52 54z"/>
<path d="M5809 2548 c-104 -207 -179 -277 -344 -327 -39 -11 -91 -34 -117 -50
-43 -28 -128 -121 -128 -142 0 -5 -18 -29 -40 -53 -62 -67 -75 -136 -25 -136
31 0 69 47 83 103 15 57 67 133 120 173 23 18 83 46 138 64 100 33 131 48 173
84 37 33 -78 -186 -136 -258 -53 -66 -125 -120 -181 -136 -20 -6 -78 -19 -128
-29 -117 -24 -193 -62 -269 -133 -49 -45 -65 -55 -86 -51 -29 5 -94 -24 -120
-53 -45 -51 -62 -131 -39 -175 13 -22 61 -49 90 -49 37 0 99 39 123 78 30 47
39 91 27 133 -9 31 -7 36 28 72 33 34 125 97 144 97 9 0 28 -94 28 -144 0 -83
-55 -221 -124 -312 -53 -69 -95 -114 -106 -114 -16 0 -90 -71 -106 -101 -25
-50 -16 -109 18 -109 57 0 131 79 143 153 4 24 18 55 34 72 114 125 191 294
191 417 0 24 -6 68 -14 98 -8 30 -13 56 -12 57 1 1 47 12 101 24 113 24 160
45 226 100 l46 38 8 -142 c11 -183 8 -298 -11 -370 -37 -151 -146 -359 -199
-382 -64 -27 -106 -95 -89 -143 14 -40 70 -43 109 -5 33 33 57 86 49 107 -3 8
19 57 50 109 69 117 114 228 135 335 l17 83 46 -43 c151 -143 149 -345 -6
-543 -42 -54 -50 -59 -81 -57 -39 4 -80 -15 -116 -55 -38 -41 -49 -66 -49
-115 0 -54 19 -83 65 -98 29 -9 41 -8 77 8 48 21 95 70 104 109 4 13 4 47 1
74 -6 48 -4 53 38 105 83 102 127 216 127 327 -1 122 -56 229 -158 307 -48 38
-53 45 -52 78 1 21 -2 98 -7 172 -5 95 -4 148 4 180 14 52 102 242 109 235 3
-3 6 -91 7 -197 1 -148 6 -207 19 -253 27 -97 70 -178 125 -239 28 -31 51 -63
51 -72 0 -9 14 -29 31 -45 38 -36 102 -41 119 -10 18 34 11 62 -24 97 -27 27
-42 34 -74 34 -34 0 -45 6 -75 40 -83 91 -127 242 -127 433 l0 109 39 -49 c46
-59 108 -106 212 -162 42 -23 81 -51 88 -64 27 -51 151 -105 215 -93 18 4 42
16 52 27 17 19 17 21 0 53 -35 66 -168 121 -234 98 -75 -26 -282 123 -349 251
-14 27 -14 38 2 116 15 77 52 209 76 268 4 13 6 30 3 38 -12 30 -34 14 -65
-47z"/>
</g>
</svg>
